<?xml version="1.0" encoding="UTF-8"?>
<svg width="281px" height="337px" viewBox="0 0 281 337" version="1.1" xmlns="http://www.w3.org/2000/svg" xmlns:xlink="http://www.w3.org/1999/xlink">
    <title>buildings</title>
    <defs>
        <rect id="path-1" x="0" y="0" width="281" height="337"></rect>
        <filter x="-32.1%" y="-8.4%" width="164.3%" height="116.8%" filterUnits="objectBoundingBox" id="filter-3">
            <feGaussianBlur stdDeviation="3" in="SourceGraphic"></feGaussianBlur>
        </filter>
        <filter x="-50.0%" y="-13.2%" width="200.0%" height="126.5%" filterUnits="objectBoundingBox" id="filter-4">
            <feGaussianBlur stdDeviation="3" in="SourceGraphic"></feGaussianBlur>
        </filter>
        <filter x="-64.3%" y="-16.7%" width="228.6%" height="133.3%" filterUnits="objectBoundingBox" id="filter-5">
            <feGaussianBlur stdDeviation="3" in="SourceGraphic"></feGaussianBlur>
        </filter>
        <filter x="-56.2%" y="-15.3%" width="212.5%" height="130.5%" filterUnits="objectBoundingBox" id="filter-6">
            <feGaussianBlur stdDeviation="3" in="SourceGraphic"></feGaussianBlur>
        </filter>
        <filter x="-45.0%" y="-12.0%" width="190.0%" height="124.0%" filterUnits="objectBoundingBox" id="filter-7">
            <feGaussianBlur stdDeviation="3" in="SourceGraphic"></feGaussianBlur>
        </filter>
        <filter x="-47.4%" y="-12.3%" width="194.7%" height="124.7%" filterUnits="objectBoundingBox" id="filter-8">
            <feGaussianBlur stdDeviation="3" in="SourceGraphic"></feGaussianBlur>
        </filter>
    </defs>
    <g id="Page-1" stroke="none" stroke-width="1" fill="none" fill-rule="evenodd">
        <g id="buildings">
            <mask id="mask-2" fill="white">
                <use xlink:href="#path-1"></use>
            </mask>
            <g id="Rectangle"></g>
            <g id="buildings-copy" opacity="0.1" mask="url(#mask-2)">
                <g id="Group-4-Copy" transform="translate(153.000000, 60.000000)" fill="#D75B71">
                    <path d="M24.5,10.8879041 C24.5,10.8879041 19.7037512,3.02872014 11.9559647,4.10042704 C4.20817826,5.17213394 -0.527118858,14.6876401 6.265889,25.4047091 C13.0588969,36.1217781 24.5,42 24.5,42 C24.5110588,41.9947541 35.9446647,36.1161591 42.734111,25.4047091 C49.5271189,14.6876401 44.7918217,5.17213394 37.0440353,4.10042704 C29.2962488,3.02872014 24.5,10.8879041 24.5,10.8879041 Z" id="Combined-Shape" transform="translate(24.500000, 23.000000) rotate(-9.000000) translate(-24.500000, -23.000000) "></path>
                    <path d="M24,33.3948877 C24,33.3948877 20.8768613,11.2650804 15.831791,14.2827814 C10.7867207,17.3004824 7.70327144,44.0941446 12.1266254,74.2711546 C16.5499793,104.448165 24,121 24,121 C24.0072011,120.985229 31.4523398,104.432343 35.8733746,74.2711546 C40.2967286,44.0941446 37.2132793,17.3004824 32.168209,14.2827814 C27.1231387,11.2650804 24,33.3948877 24,33.3948877 Z" id="Combined-Shape-Copy" opacity="0.2" filter="url(#filter-3)"></path>
                </g>
                <g id="Group-52" transform="translate(119.000000, 145.000000)" fill-rule="nonzero">
                    <g id="Group-49">
                        <polygon id="Path" fill="#2A244A" points="6.24586051 36.2264493 0.000389492754 31.2291667 34.9768388 2.5744302e-13 123.667056 2.5744302e-13 123.667056 27.4818841 66.2060054 66.2065217"></polygon>
                        <polygon id="Path" fill="#CCCCCC" points="139.934203 17.5529248 139.934203 0.625334293 128.143339 0.625334293 128.143339 4.77123712 123.742626 2.83187322e-13 94.9738251 31.2912197 83.7171782 38.8015844 66.2621649 166.412437 92.5857217 192.753623 153.762165 192.753623 153.762165 32.5427959"></polygon>
                        <rect id="Rectangle" fill="#F2F2F2" x="-1.8664619e-13" y="31.7028986" width="95.1086957" height="161.050725"></rect>
                        <rect id="Rectangle" fill="#CCCCCC" x="36.850308" y="153.022926" width="17.488288" height="39.3486413"></rect>
                        <polygon id="Path" fill="#3F3D56" points="18.1127083 164.265399 18.1127083 158.019928 10.6181431 158.019928 10.6181431 164.265399 17.4886141 164.265399"></polygon>
                        <polygon id="Path" fill="#3F3D56" points="17.4886141 169.261775 10.6181431 169.261775 10.6181431 175.508152 18.1127083 175.508152 18.1127083 169.261775"></polygon>
                        <rect id="Rectangle" fill="#3F3D56" x="23.1095109" y="158.019583" width="7.49498188" height="6.24581522"></rect>
                        <rect id="Rectangle" fill="#3F3D56" x="23.1095109" y="169.262047" width="7.49498188" height="6.24581522"></rect>
                        <polygon id="Path" fill="#2A244A" points="69.328288 164.265399 69.328288 158.019928 61.8337228 158.019928 61.8337228 164.265399 68.7041938 164.265399"></polygon>
                        <polygon id="Path" fill="#2A244A" points="68.7041938 169.261775 61.8337228 169.261775 61.8337228 175.508152 69.328288 175.508152 69.328288 169.261775"></polygon>
                        <rect id="Rectangle" fill="#2A244A" x="74.3251993" y="158.019583" width="7.49498188" height="6.24581522"></rect>
                        <rect id="Rectangle" fill="#2A244A" x="74.3251993" y="169.262047" width="7.49498188" height="6.24581522"></rect>
                        <path d="M121.792962,149.275362 L121.792962,155.520833 L114.298397,155.520833 L114.298397,149.275362 L121.792962,149.275362 Z M134.285036,149.275435 L134.285036,155.52125 L126.790054,155.52125 L126.790054,149.275435 L134.285036,149.275435 Z M121.792962,138.032609 L121.792962,144.278986 L114.298397,144.278986 L114.298397,138.032609 L121.792962,138.032609 Z M134.285036,138.032971 L134.285036,144.278786 L126.790054,144.278786 L126.790054,138.032971 L134.285036,138.032971 Z M121.792962,114.298913 L121.792962,120.544384 L114.298397,120.544384 L114.298397,114.298913 L121.792962,114.298913 Z M134.285036,114.298868 L134.285036,120.544683 L126.790054,120.544683 L126.790054,114.298868 L134.285036,114.298868 Z M121.792962,103.056159 L121.792962,109.302536 L114.298397,109.302536 L114.298397,103.056159 L121.792962,103.056159 Z M134.285036,103.056404 L134.285036,109.302219 L126.790054,109.302219 L126.790054,103.056404 L134.285036,103.056404 Z M121.792962,79.3224638 L121.792962,85.5679348 L114.298397,85.5679348 L114.298397,79.3224638 L121.792962,79.3224638 Z M134.285036,79.3223007 L134.285036,85.5681159 L126.790054,85.5681159 L126.790054,79.3223007 L134.285036,79.3223007 Z M121.792962,68.0797101 L121.792962,74.326087 L114.298397,74.326087 L114.298397,68.0797101 L121.792962,68.0797101 Z M134.285036,68.079837 L134.285036,74.3256522 L126.790054,74.3256522 L126.790054,68.079837 L134.285036,68.079837 Z M121.792962,44.3460145 L121.792962,50.5914855 L114.298397,50.5914855 L114.298397,44.3460145 L121.792962,44.3460145 Z M134.285036,44.3457337 L134.285036,50.5915489 L126.790054,50.5915489 L126.790054,44.3457337 L134.285036,44.3457337 Z M121.792962,33.1032609 L121.792962,39.3487319 L114.298397,39.3487319 L114.298397,33.1032609 L121.792962,33.1032609 Z M134.285036,33.1032699 L134.285036,39.3490851 L126.790054,39.3490851 L126.790054,33.1032699 L134.285036,33.1032699 Z" id="Combined-Shape" fill="#674EEA"></path>
                        <rect id="Rectangle" fill="#2A244A" x="10.6178804" y="39.3490851" width="72.4514583" height="14.9899547"></rect>
                        <rect id="Rectangle" fill="#2A244A" x="10.6178804" y="69.3289946" width="72.4514583" height="14.9899547"></rect>
                        <rect id="Rectangle" fill="#2A244A" x="10.6178804" y="99.308913" width="72.4514583" height="14.9899547"></rect>
                        <rect id="Rectangle" fill="#2A244A" x="10.6178804" y="129.288832" width="72.4514583" height="14.9899547"></rect>
                    </g>
                </g>
                <path d="M239.645576,132.45383 C244.902236,135.061983 247.403044,132.855084 247.403044,132.855084 L246.807951,141.582363 L246.75135,141.603554 C246.166678,141.816736 242.422677,143.508384 237.761112,140.679541 C235.00016,139.004074 234.55258,139.194217 233.574054,139.691971 L233.453769,150.101449 L232.065217,150.101449 L232.185653,131.551008 L233.524473,131.55104 L233.577231,131.526052 C234.469701,131.11238 235.601925,130.447526 239.645576,132.45383 Z" id="Path" fill="#2A244A" fill-rule="nonzero"></path>
                <path d="M232.03688,117.236439 C237.142505,120.809062 239.794349,118.905809 239.794349,118.905809 L239.199255,125.096856 L239.142655,126.386163 C238.557982,126.599345 236.082097,128.290993 231.420533,125.46215 C228.659581,123.786682 226.943884,122.70871 225.965359,123.206464 L225.724638,148.833333 L224.336086,148.833333 L224.576957,113.797385 L225.915777,113.797417 L225.968536,113.772429 C226.861006,113.358757 228.26087,114.594203 232.03688,117.236439 Z" id="Path-Copy-3" fill="#2A244A" fill-rule="nonzero"></path>
                <g id="Group-4-Copy-2" transform="translate(80.000000, 106.000000)" fill="#D75B71">
                    <path d="M14.5,5.35025519 C14.5,5.35025519 11.4884019,0.386560089 6.62351275,1.0634276 C1.75862356,1.74029512 -1.21470254,7.7500885 3.05067449,14.5187636 C7.31605151,21.2874388 14.5,25 14.5,25 C14.5069439,24.9966868 21.6861848,21.28389 25.9493255,14.5187636 C30.2147025,7.7500885 27.2413764,1.74029512 22.3764873,1.0634276 C17.5115981,0.386560089 14.5,5.35025519 14.5,5.35025519 Z" id="Combined-Shape" transform="translate(14.500000, 13.000000) rotate(3.000000) translate(-14.500000, -13.000000) "></path>
                    <path d="M14,19.325723 C14,19.325723 11.992268,5.26192025 8.7490085,7.17971154 C5.50574904,9.09750283 3.52353164,26.1252508 6.36711633,45.3031637 C9.21070101,64.4810765 14,75 14,75 C14.0046293,74.9906126 18.7907899,64.4710216 21.6328837,45.3031637 C24.4764684,26.1252508 22.494251,9.09750283 19.2509915,7.17971154 C16.007732,5.26192025 14,19.325723 14,19.325723 Z" id="Combined-Shape-Copy" opacity="0.2" filter="url(#filter-4)"></path>
                </g>
                <g id="Group-4-Copy-2" transform="translate(16.000000, 171.000000)" fill="#D75B71">
                    <path d="M13,5.44395203 C13,5.44395203 10.5461053,1.51436007 6.5821215,2.05021352 C2.61813772,2.58606697 0.195427561,7.34382006 3.67091995,12.7023545 C7.14641234,18.060889 13,21 13,21 C13.005658,20.997377 18.8554099,18.0580796 22.32908,12.7023545 C25.8045724,7.34382006 23.3818623,2.58606697 19.4178785,2.05021352 C15.4538947,1.51436007 13,5.44395203 13,5.44395203 Z" id="Combined-Shape" transform="translate(13.000000, 11.500000) rotate(9.000000) translate(-13.000000, -11.500000) "></path>
                    <path d="M13,16.7880742 C13,16.7880742 11.4384306,5.6197602 8.9158955,7.14271211 C6.39336036,8.66566401 4.85163572,22.1876991 7.0633127,37.4172182 C9.27498967,52.6467373 13,61 13,61 C13.0036005,60.9925453 16.7261699,52.6387524 18.9366873,37.4172182 C21.1483643,22.1876991 19.6066396,8.66566401 17.0841045,7.14271211 C14.5615694,5.6197602 13,16.7880742 13,16.7880742 Z" id="Combined-Shape-Copy" opacity="0.2" filter="url(#filter-5)"></path>
                </g>
                <g id="Group-4-Copy-2" transform="translate(190.000000, -0.000000)" fill="#D75B71">
                    <path d="M14,5.80647329 C14,5.80647329 11.3230239,1.46324008 6.998678,2.05549915 C2.67433205,2.64775823 0.031375521,7.90632744 3.82282177,13.8289182 C7.61426801,19.7515089 14,23 14,23 C14.0061724,22.9971009 20.3877198,19.7484037 24.1771782,13.8289182 C27.9686245,7.90632744 25.3256679,2.64775823 21.001322,2.05549915 C16.6769761,1.46324008 14,5.80647329 14,5.80647329 Z" id="Combined-Shape" transform="translate(14.000000, 12.500000) rotate(8.000000) translate(-14.000000, -12.500000) "></path>
                    <path d="M14,18.6943773 C14,18.6943773 12.2153493,6.49196022 9.332452,8.15592619 C6.4495547,9.81989216 4.68758368,24.5939676 7.21521451,41.2336273 C9.74284534,57.873287 14,67 14,67 C14.0041149,66.991855 18.2584799,57.8645628 20.7847855,41.2336273 C23.3124163,24.5939676 21.5504453,9.81989216 18.667548,8.15592619 C15.7846507,6.49196022 14,18.6943773 14,18.6943773 Z" id="Combined-Shape-Copy" opacity="0.2" filter="url(#filter-6)"></path>
                </g>
                <g id="Group-4-Copy-2" transform="translate(221.000000, 54.000000)" fill="#D75B71">
                    <path d="M16,5.89403709 C16,5.89403709 12.6537799,0.3098801 7.2483475,1.07135605 C1.84291507,1.83283201 -1.4607806,8.59384957 3.27852721,16.2086091 C8.01783502,23.8233686 16,28 16,28 C16.0077155,27.9962726 23.9846498,23.8193762 28.7214728,16.2086091 C33.4607806,8.59384957 30.1570849,1.83283201 24.7516525,1.07135605 C19.3462201,0.3098801 16,5.89403709 16,5.89403709 Z" id="Combined-Shape" transform="translate(16.000000, 14.500000) rotate(1.000000) translate(-16.000000, -14.500000) "></path>
                    <path d="M16,21.5945475 C16,21.5945475 13.7691866,6.08300028 10.165565,8.19821126 C6.56194338,10.3134222 4.3594796,29.0940266 7.51901814,50.2461364 C10.6785567,71.3982462 16,83 16,83 C16.0051436,82.9896462 21.3230999,71.3871562 24.4809819,50.2461364 C27.6405204,29.0940266 25.4380566,10.3134222 21.834435,8.19821126 C18.2308134,6.08300028 16,21.5945475 16,21.5945475 Z" id="Combined-Shape-Copy" opacity="0.2" filter="url(#filter-7)"></path>
                </g>
                <g id="Group-4-Copy-2" transform="translate(57.000000, 199.000000)" fill="#D75B71">
                    <path d="M15.5,5.71277646 C15.5,5.71277646 12.2653206,0.335440097 7.04006925,1.06871324 C1.8148179,1.80198638 -1.37875458,8.31259588 3.2025763,15.6453273 C7.78390718,22.9780587 15.5,27 15.5,27 C15.5074583,26.9964107 23.2184948,22.9742141 27.7974237,15.6453273 C32.3787546,8.31259588 29.1851821,1.80198638 23.9599308,1.06871324 C18.7346794,0.335440097 15.5,5.71277646 15.5,5.71277646 Z" id="Combined-Shape" transform="translate(15.500000, 14.000000) rotate(-3.000000) translate(-15.500000, -14.000000) "></path>
                    <path d="M15.5,21.2320262 C15.5,21.2320262 13.3807273,6.13412027 9.95728675,8.19292563 C6.53384621,10.251731 4.44150562,28.5315192 7.44306723,49.1195727 C10.4446288,69.7076263 15.5,81 15.5,81 C15.5048865,80.9899223 20.5569449,69.696832 23.5569328,49.1195727 C26.5584944,28.5315192 24.4661538,10.251731 21.0427133,8.19292563 C17.6192727,6.13412027 15.5,21.2320262 15.5,21.2320262 Z" id="Combined-Shape-Copy" opacity="0.2" filter="url(#filter-8)"></path>
                </g>
                <g id="Group-43" transform="translate(254.891304, 261.695652)" fill-rule="nonzero">
                    <rect id="Rectangle" fill="#2A244A" x="12.6811594" y="25.3623188" width="1.26811594" height="50.7246377"></rect>
                    <path d="M25.9959726,31.6458225 C26.0786055,49.1548478 13.4648354,63.4057971 13.4648354,63.4057971 C13.4648354,63.4057971 0.717095098,49.2689999 0.634462202,31.7599746 C0.551829306,14.2509493 13.1655994,0 13.1655994,0 C13.1655994,0 25.9133397,14.1367718 25.9959726,31.6458225 Z" id="Path" fill="#674EEA"></path>
                </g>
                <g id="Group-48" transform="translate(0.000000, 263.000000)" fill-rule="nonzero">
                    <polygon id="Path" fill="#2A244A" points="-2.5744302e-13 31.9311594 34.9764493 1.95108696 124.916667 1.95108696 124.916667 10.6947464 92.4384058 45.6721014 54.9628623 53.1666667 3.74728261 38.1766304"></polygon>
                    <polygon id="Path" fill="#CCCCCC" points="140.398551 19.5443841 140.398551 -6.95096155e-13 128.623188 -6.95096155e-13 128.623188 6.16304348 124.916667 1.95108696 94.9365942 31.9311594 89.9393116 36.9275362 83.6938406 61.9112319 94.9365942 89.3922101 152.397645 89.3922101 152.397645 33.1802536"></polygon>
                    <rect id="Rectangle" fill="#F2F2F2" x="-1.8664619e-13" y="31.9308967" width="94.9363949" height="57.4615036"></rect>
                    <rect id="Rectangle" fill="#2A244A" x="61.8335779" y="50.0437591" width="19.9866123" height="17.488288"></rect>
                    <rect id="Rectangle" fill="#CCCCCC" x="36.2257337" y="49.4191757" width="17.488288" height="39.9732156"></rect>
                    <polygon id="Path" fill="#2A244A" points="16.2391304 55.6648551 16.2391304 49.4193841 8.74456522 49.4193841 8.74456522 55.6648551 15.6141304 55.6648551"></polygon>
                    <polygon id="Path" fill="#2A244A" points="15.6141304 60.6612319 8.74456522 60.6612319 8.74456522 66.9076087 16.2391304 66.9076087 16.2391304 60.6612319"></polygon>
                    <rect id="Rectangle" fill="#2A244A" x="21.2357699" y="49.4191757" width="7.49498188" height="6.24581522"></rect>
                    <rect id="Rectangle" fill="#2A244A" x="21.2357699" y="60.6616486" width="7.49498188" height="6.24581522"></rect>
                    <polygon id="Path" fill="#674EEA" points="121.793478 56.2898551 121.793478 50.0434783 114.298007 50.0434783 114.298007 56.2898551 121.168478 56.2898551"></polygon>
                    <polygon id="Path" fill="#674EEA" points="121.168478 61.2862319 114.298007 61.2862319 114.298007 67.5317029 121.793478 67.5317029 121.793478 61.2862319"></polygon>
                    <rect id="Rectangle" fill="#674EEA" x="126.790054" y="50.0437591" width="7.49498188" height="6.24581522"></rect>
                    <rect id="Rectangle" fill="#674EEA" x="126.790054" y="61.2862319" width="7.49498188" height="6.24581522"></rect>
                </g>
            </g>
        </g>
    </g>
</svg>