<?xml version="1.0" encoding="UTF-8"?>
<svg width="117px" height="28px" viewBox="0 0 117 28" version="1.1" xmlns="http://www.w3.org/2000/svg" xmlns:xlink="http://www.w3.org/1999/xlink">
    <title>college_rentals_757575</title>
    <g id="Page-1" stroke="none" stroke-width="1" fill="none" fill-rule="evenodd">
        <g id="college_rentals_757575" fill="#757575">
            <path d="M6.27925088,25.2154116 L6.27951759,7.65079399 L11.9725664,7.6514609 L17.6656152,7.65079399 L17.6658819,25.2154116 C15.4317967,26.6948305 13.1738616,27.6176991 11.9725664,27.6176991 L11.9725664,27.6176991 C10.7712711,27.6176991 8.51333607,26.6948305 6.27925088,25.2154116 Z M1.65851759,3.25979399 L3.25292369,7.6514609 L4.83351759,7.65079399 L4.83451848,24.1737031 C2.31520861,22.19719 0.144337581,19.5794946 0.00690293593,16.8918817 L5.49386906e-13,16.6229085 L5.49386906e-13,0 L23.9451327,0 L23.9451327,16.6229085 L23.9382298,16.8918817 C23.8007952,19.5794946 21.6299241,22.19719 19.1106143,24.1737031 L19.1106143,24.1737031 L19.1116152,7.65079399 L20.692209,7.6514609 L22.2866152,3.25979399 L1.65851759,3.25979399 Z M11.4755919,16.3442449 L8.13230923,16.3442449 L8.13230923,22.5016335 L11.4755919,22.5016335 L11.4755919,16.3442449 Z M15.8128235,16.3442449 L12.4695408,16.3442449 L12.4695408,22.5016335 L15.8128235,22.5016335 L15.8128235,16.3442449 Z M10.391284,17.4308429 L10.391284,21.4150355 L9.21661713,21.4150355 L9.21661713,17.4308429 L10.391284,17.4308429 Z M14.7285156,17.4308429 L14.7285156,21.4150355 L13.5538487,21.4150355 L13.5538487,17.4308429 L14.7285156,17.4308429 Z M11.4755919,9.10025823 L8.13230923,9.10025823 L8.13230923,15.2576469 L11.4755919,15.2576469 L11.4755919,9.10025823 Z M15.8128235,9.10025823 L12.4695408,9.10025823 L12.4695408,15.2576469 L15.8128235,15.2576469 L15.8128235,9.10025823 Z M10.391284,10.1868562 L10.391284,14.1710489 L9.21661713,14.1710489 L9.21661713,10.1868562 L10.391284,10.1868562 Z M14.7285156,10.1868562 L14.7285156,14.1710489 L13.5538487,14.1710489 L13.5538487,10.1868562 L14.7285156,10.1868562 Z M4.5003784,6.11211374 L3.90856063,4.79914116 L20.0365721,4.79914116 L19.4447543,6.11211374 L4.5003784,6.11211374 Z" id="Combined-Shape"></path>
            <g id="Group-3" transform="translate(28.646018, 0.000000)" fill-rule="nonzero">
                <path d="M43.5186944,3.1770914 C43.6296391,3.24769343 43.7141085,3.32712072 43.7721023,3.41537326 C43.8300962,3.5036258 43.8590931,3.59566059 43.8590931,3.69147763 C43.8590931,3.91336973 43.7758845,4.12769732 43.6094674,4.33446041 C43.4430502,4.54122351 43.2060318,4.72529309 42.8984122,4.88666916 C43.0143999,5.09847525 43.0976085,5.30902059 43.148038,5.51830519 C43.1984674,5.72758978 43.2236821,5.94317812 43.2236821,6.16507022 C43.2236821,7.03750961 42.9047159,7.74731217 42.2667834,8.29447791 C41.6288509,8.84164365 40.7929829,9.11522652 39.7591793,9.11522652 C39.4616456,9.11522652 39.1817621,9.09379377 38.919529,9.05092825 C38.6572959,9.00806273 38.4101916,8.94628595 38.1782162,8.86559791 C38.0672714,8.98158697 37.9853236,9.09127226 37.9323726,9.19465381 C37.8794217,9.29803536 37.8529463,9.39511315 37.8529463,9.48588719 C37.8529463,9.7329943 37.9764984,9.91580313 38.2236027,10.0343137 C38.470707,10.1528242 38.8564922,10.2120795 39.3809584,10.2120795 C39.6431916,10.2120795 40.0441056,10.1830822 40.5837007,10.1250877 C41.1232958,10.0670932 41.5342957,10.0380959 41.8167006,10.0380959 C42.5479276,10.0380959 43.1076944,10.1868645 43.4960011,10.4844016 C43.8843078,10.7819388 44.0784612,11.2080724 44.0784612,11.7628027 C44.0784612,12.5999411 43.6674612,13.2971361 42.8454613,13.8543879 C42.0234613,14.4116396 40.9770504,14.6902655 39.7062284,14.6902655 C38.7077254,14.6902655 37.8756395,14.4860239 37.2099709,14.0775407 C36.5443022,13.6690575 36.2114678,13.1748433 36.2114678,12.5948981 C36.2114678,12.3326619 36.2946764,12.0943801 36.4610936,11.8800525 C36.6275108,11.6657249 36.9149586,11.4350075 37.3234371,11.1879004 C37.0158175,11.0819974 36.7787991,10.9281858 36.6123819,10.7264657 C36.4459648,10.5247456 36.3627562,10.290246 36.3627562,10.0229669 C36.3627562,9.75568781 36.4585721,9.49471244 36.650204,9.24004083 C36.8418359,8.98536922 37.1292837,8.74204436 37.5125475,8.51006626 C37.2049279,8.24783014 36.9729525,7.94777151 36.8166212,7.60989036 C36.6602899,7.27200921 36.5821243,6.89882705 36.5821243,6.49034387 C36.5821243,5.63303349 36.9048727,4.92070942 37.5503696,4.35337167 C38.1958665,3.78603392 39.0128235,3.50236505 40.0012406,3.50236505 C40.238259,3.50236505 40.5168817,3.52631931 40.8371087,3.57422783 C41.1573356,3.62213635 41.5620319,3.70156363 42.0511975,3.81250968 C42.2428294,3.81250968 42.4533724,3.76334041 42.6828263,3.66500187 C42.9122803,3.56666332 43.190903,3.4040265 43.5186944,3.1770914 Z M41.4460442,11.4677871 C41.3098847,11.4677871 41.0035258,11.4930021 40.5269676,11.5434321 C40.0504093,11.5938621 39.6431916,11.6190771 39.3053143,11.6190771 C39.1288112,11.6190771 38.9598726,11.6140341 38.7984984,11.6039481 C38.6371241,11.5938621 38.4757499,11.5787331 38.3143757,11.5585611 C38.1782162,11.6896792 38.0773573,11.827101 38.011799,11.9708265 C37.9462407,12.1145521 37.9134616,12.2721459 37.9134616,12.443608 C37.9134616,12.8117472 38.102572,13.1080235 38.4807929,13.3324371 C38.8590137,13.5568507 39.3658296,13.6690575 40.0012406,13.6690575 C40.7072528,13.6690575 41.2922344,13.5328965 41.7561853,13.2605744 C42.2201362,12.9882522 42.4521116,12.6528926 42.4521116,12.2544954 C42.4521116,12.0073883 42.3651208,11.8144935 42.1911392,11.6758109 C42.0171577,11.5371283 41.7687926,11.4677871 41.4460442,11.4677871 Z M5.5749751,0.0151290067 C5.86242293,0.0151290067 6.18264991,0.0428655189 6.53565602,0.0983385434 C6.88866213,0.153811568 7.39547805,0.262236116 8.05610377,0.423612187 C8.09644733,0.40848318 8.15191972,0.390832673 8.22252094,0.370660664 C8.54526939,0.279886624 8.74698717,0.234499604 8.82767428,0.234499604 C8.91844728,0.234499604 9.00795954,0.262236116 9.09621107,0.31770914 C9.1844626,0.373182165 9.25380308,0.448827198 9.30423253,0.54464424 C9.4706497,0.827052365 9.60806993,1.16871577 9.71649324,1.56963444 C9.82491654,1.97055312 9.8791282,2.32734553 9.8791282,2.64001167 C9.8791282,2.86190376 9.83878464,3.02832284 9.75809753,3.13926889 C9.67741042,3.25021494 9.55385828,3.30568796 9.38744111,3.30568796 C9.15546567,3.30568796 8.84280311,3.07118836 8.44945344,2.60218915 C8.24269272,2.35508204 8.07375408,2.16596946 7.94263752,2.0348514 C7.66527558,1.74235727 7.31605168,1.51920442 6.89496581,1.36539285 C6.47387995,1.21158128 6.01371127,1.1346755 5.51445977,1.1346755 C4.48065615,1.1346755 3.66874209,1.48516416 3.07871759,2.18614147 C2.48869309,2.88711877 2.19368084,3.8478107 2.19368084,5.06821724 C2.19368084,6.63659093 2.5693802,7.920035 3.32077893,8.91854944 C4.07217765,9.91706388 5.02529415,10.4163211 6.18012844,10.4163211 C6.64407933,10.4163211 7.08029402,10.3406761 7.48877252,10.189386 C7.89725102,10.0380959 8.2351283,9.82881134 8.50240436,9.56153222 C8.60326325,9.46067218 8.72681539,9.31442511 8.87306078,9.12279103 C9.10503622,8.81516789 9.30171106,8.66135632 9.46308528,8.66135632 C9.60428772,8.66135632 9.71649324,8.73321911 9.79970182,8.87694467 C9.88291041,9.02067023 9.9245147,9.21356507 9.9245147,9.45562918 C9.9245147,9.94480039 9.85517421,10.3305901 9.71649324,10.6129982 C9.57781227,10.8954063 9.38996258,11.0366104 9.1529442,11.0366104 C9.13277242,11.0366104 9.10881843,11.0340889 9.08108224,11.0290459 C9.05334604,11.0240029 9.01426322,11.0164384 8.96383378,11.0063524 C8.47971111,11.2685885 7.99180623,11.4627441 7.50011915,11.5888191 C7.00843206,11.7148942 6.49531246,11.7779317 5.96076035,11.7779317 C5.17406102,11.7779317 4.43022671,11.6493351 3.72925743,11.392142 C3.02828815,11.1349489 2.40800598,10.7668098 1.86841092,10.2877245 C1.26325759,9.7329943 0.800567433,9.06605725 0.48034046,8.28691341 C0.160113487,7.50776957 -2.15069444e-14,6.65676294 -2.15069444e-14,5.73389353 C-2.15069444e-14,4.9925722 0.105901834,4.3067239 0.317705501,3.67634862 C0.529509168,3.04597334 0.847214669,2.47611409 1.270822,1.96677087 C1.78520234,1.33639559 2.41052745,0.853528127 3.14679734,0.518168479 C3.88306723,0.182808831 4.69245982,0.0151290067 5.5749751,0.0151290067 Z M14.7174501,3.50236505 C15.8521126,3.50236505 16.7812752,3.87050421 17.5049377,4.60678253 C18.2286002,5.34306086 18.5904315,6.28610228 18.5904315,7.43590678 C18.5904315,8.65631332 18.2021248,9.67499977 17.4255113,10.4919661 C16.6488979,11.3089325 15.6856955,11.7174157 14.5359041,11.7174157 C13.4012416,11.7174157 12.4607325,11.331626 11.7143767,10.5600467 C10.9680209,9.78846732 10.594843,8.81516789 10.594843,7.64014837 C10.594843,6.45504285 10.986932,5.46913591 11.7711098,4.68242757 C12.5552877,3.89571922 13.5374011,3.50236505 14.7174501,3.50236505 Z M32.0539434,3.50236505 C33.0675752,3.50236505 33.8706641,3.79107692 34.4632101,4.36850068 C35.0557561,4.94592443 35.3520291,5.72632903 35.3520291,6.70971446 C35.3520291,7.03246661 35.3041211,7.24553345 35.2083052,7.348915 C35.1244662,7.43937385 34.9267276,7.49025695 34.6150894,7.50156431 L34.4745567,7.50398731 L30.5864466,7.50398731 L30.468349,7.50537671 C30.2466653,7.51093431 30.1120496,7.53316468 30.0645018,7.57206784 C30.0090294,7.61745486 29.9812932,7.73848692 29.9812932,7.935164 C29.9812932,8.59075429 30.2157901,9.15430979 30.684784,9.6258305 C31.1537778,10.0973512 31.7236305,10.3331116 32.3943422,10.3331116 C32.68179,10.3331116 32.9591519,10.290246 33.226428,10.204515 C33.493704,10.118784 33.7534157,9.98766591 34.0055629,9.81116083 C34.0761641,9.76073081 34.1719801,9.68760728 34.2930107,9.59179024 C34.5552439,9.37494114 34.7594831,9.26651659 34.9057285,9.26651659 C35.0217162,9.26651659 35.1175322,9.30433911 35.1931763,9.37998414 C35.2688205,9.45562918 35.3066426,9.54640322 35.3066426,9.65230626 C35.3066426,9.77838132 35.2410843,9.93345364 35.1099677,10.1175232 C34.9788512,10.3015928 34.8023481,10.4818801 34.5804586,10.6583852 C34.1215506,11.0366104 33.680293,11.3076717 33.2566857,11.4715693 C32.8330783,11.6354669 32.3716489,11.7174157 31.8723974,11.7174157 C30.7528637,11.7174157 29.8186583,11.3354083 29.069781,10.5713934 C28.3209038,9.80737858 27.9464651,8.86055491 27.9464651,7.73092241 C27.9464651,6.50042987 28.3309897,5.48804717 29.1000387,4.69377432 C29.8690877,3.89950147 30.8537226,3.50236505 32.0539434,3.50236505 Z M48.4477893,3.50236505 C49.4614212,3.50236505 50.2645101,3.79107692 50.857056,4.36850068 C51.449602,4.94592443 51.745875,5.72632903 51.745875,6.70971446 C51.745875,7.03246661 51.697967,7.24553345 51.6021511,7.348915 C51.5183121,7.43937385 51.3205735,7.49025695 51.0089353,7.50156431 L50.8684027,7.50398731 L46.9802925,7.50398731 L46.862195,7.50537671 C46.6405112,7.51093431 46.5058955,7.53316468 46.4583477,7.57206784 C46.4028753,7.61745486 46.3751391,7.73848692 46.3751391,7.935164 C46.3751391,8.59075429 46.6096361,9.15430979 47.0786299,9.6258305 C47.5476237,10.0973512 48.1174765,10.3331116 48.7881881,10.3331116 C49.0756359,10.3331116 49.3529978,10.290246 49.6202739,10.204515 C49.88755,10.118784 50.1472616,9.98766591 50.3994088,9.81116083 C50.47001,9.76073081 50.565826,9.68760728 50.6868567,9.59179024 C50.9490898,9.37494114 51.153329,9.26651659 51.2995744,9.26651659 C51.4155621,9.26651659 51.5113781,9.30433911 51.5870222,9.37998414 C51.6626664,9.45562918 51.7004885,9.54640322 51.7004885,9.65230626 C51.7004885,9.77838132 51.6349302,9.93345364 51.5038137,10.1175232 C51.3726971,10.3015928 51.196194,10.4818801 50.9743045,10.6583852 C50.5153965,11.0366104 50.0741389,11.3076717 49.6505316,11.4715693 C49.2269242,11.6354669 48.7654948,11.7174157 48.2662433,11.7174157 C47.1467096,11.7174157 46.2125042,11.3354083 45.4636269,10.5713934 C44.7147497,9.80737858 44.3403111,8.86055491 44.3403111,7.73092241 C44.3403111,6.50042987 44.7248356,5.48804717 45.4938846,4.69377432 C46.2629336,3.89950147 47.2475685,3.50236505 48.4477893,3.50236505 Z M21.6738088,3.34108932e-14 C21.83014,3.34108932e-14 21.9410848,0.0491692717 22.0066431,0.147507815 C22.0722014,0.245846359 22.1049805,0.418569185 22.1049805,0.665676294 C22.1049805,0.736278325 22.0999376,0.937998414 22.0898517,1.27083656 C22.0293363,3.14179039 21.9990787,5.03291622 21.9990787,6.94421407 L21.9990787,6.94421407 L21.9996749,7.38730219 C22.002887,8.53130452 22.0190779,9.27495912 22.0482474,9.618266 C22.0810265,10.0040557 22.1402811,10.2473805 22.2260112,10.3482406 C22.2764406,10.4037136 22.4239468,10.4793586 22.6685296,10.5751757 C22.9131124,10.6709927 23.0354038,10.8197613 23.0354038,11.0214814 C23.0354038,11.2232015 22.9042872,11.3656663 22.6420541,11.4488758 C22.379821,11.5320853 21.9057842,11.5736901 21.2199438,11.5736901 C20.4181156,11.5736901 19.8898672,11.5308246 19.6351985,11.4450936 C19.3805298,11.3593625 19.2531954,11.2005079 19.2531954,10.9685298 C19.2531954,10.8071538 19.3616187,10.6785572 19.5784653,10.5827402 C19.795312,10.4869231 19.92895,10.4137996 19.9793794,10.3633696 C20.0701524,10.2776385 20.13445,10.0746577 20.172272,9.75442706 C20.2100941,9.43419642 20.2290052,8.91602794 20.2290052,8.19992162 L20.2290052,8.19992162 L20.2289604,8.14755198 C20.2286023,7.92410819 20.2260958,7.53308156 20.2214408,6.97447208 C20.2166945,6.40490948 20.2141817,5.9269236 20.2139025,5.54051446 L20.2139025,5.54051446 L20.213529,4.5890677 C20.2105187,3.42873979 20.1879412,2.67062989 20.1457966,2.31473802 C20.1004101,1.93146985 20.0222445,1.70957775 19.9112997,1.64906173 C19.795312,1.5885457 19.6339377,1.53055118 19.427177,1.47507815 C19.0943427,1.38430411 18.9279255,1.24562155 18.9279255,1.05903047 C18.9279255,0.92791241 18.9796157,0.818227111 19.082996,0.729974572 C19.1863764,0.641722033 19.4246555,0.534558236 19.7978334,0.40848318 C20.1609254,0.282408125 20.5126708,0.182808831 20.8530696,0.109685298 C21.1934683,0.0365617661 21.467048,3.34108932e-14 21.6738088,3.34108932e-14 Z M25.9674927,3.34108932e-14 C26.123824,3.34108932e-14 26.2347688,0.0491692717 26.300327,0.147507815 C26.3658853,0.245846359 26.3986645,0.418569185 26.3986645,0.665676294 C26.3986645,0.736278325 26.3936215,0.937998414 26.3835356,1.27083656 C26.3230203,3.14179039 26.2927626,5.03291622 26.2927626,6.94421407 C26.2927626,8.34112568 26.3091522,9.23247633 26.3419313,9.618266 C26.3747105,10.0040557 26.4339651,10.2473805 26.5196951,10.3482406 C26.5701246,10.4037136 26.7176307,10.4793586 26.9622135,10.5751757 C27.2067963,10.6709927 27.3290877,10.8197613 27.3290877,11.0214814 C27.3290877,11.2232015 27.1979712,11.3656663 26.935738,11.4488758 C26.6735049,11.5320853 26.1994682,11.5736901 25.5136277,11.5736901 C24.7117995,11.5736901 24.1835511,11.5308246 23.9288824,11.4450936 C23.6742137,11.3593625 23.5468794,11.2005079 23.5468794,10.9685298 C23.5468794,10.8071538 23.6553027,10.6785572 23.8721493,10.5827402 C24.0889959,10.4869231 24.2226339,10.4137996 24.2730634,10.3633696 C24.3638364,10.2776385 24.4281339,10.0746577 24.465956,9.75442706 C24.5023773,9.44605681 24.5212624,8.95413927 24.5226113,8.27867443 L24.5226113,8.27867443 L24.5223029,8.02621535 C24.5214209,7.79347049 24.5190281,7.4428894 24.5151247,6.97447208 C24.510675,6.44050714 24.5081885,5.98702956 24.507665,5.61403934 L24.507665,5.61403934 L24.5072129,4.5890677 C24.5042026,3.42873979 24.4816251,2.67062989 24.4394805,2.31473802 C24.394094,1.93146985 24.3159284,1.70957775 24.2049836,1.64906173 C24.0889959,1.5885457 23.9276217,1.53055118 23.7208609,1.47507815 C23.3880266,1.38430411 23.2216094,1.24562155 23.2216094,1.05903047 C23.2216094,0.92791241 23.2732996,0.818227111 23.37668,0.729974572 C23.4800604,0.641722033 23.7183395,0.534558236 24.0915174,0.40848318 C24.4546094,0.282408125 24.8063547,0.182808831 25.1467535,0.109685298 C25.4871522,0.0365617661 25.760732,3.34108932e-14 25.9674927,3.34108932e-14 Z M14.3316649,4.60678253 C13.8122416,4.60678253 13.3936772,4.81984938 13.0759717,5.24598307 C12.7582662,5.67211675 12.5994135,6.23819375 12.5994135,6.94421407 C12.5994135,7.98811553 12.8200423,8.86055491 13.2612999,9.56153222 C13.7025576,10.2625095 14.2408919,10.6129982 14.8763029,10.6129982 C15.3906832,10.6129982 15.8079869,10.3961491 16.1282139,9.9624509 C16.4484408,9.52875271 16.6085543,8.95637195 16.6085543,8.24530864 C16.6085543,7.21653619 16.385404,6.35292206 15.9391034,5.65446625 C15.4928029,4.95601044 14.95699,4.60678253 14.3316649,4.60678253 Z M39.8802099,4.49331498 C39.4666885,4.49331498 39.1199861,4.66351631 38.8401026,5.00391896 C38.5602192,5.34432161 38.4202775,5.77423755 38.4202775,6.29366678 C38.4202775,6.83326802 38.5539156,7.26696621 38.8211916,7.59476135 C39.0884677,7.9225565 39.4364308,8.08645407 39.8650811,8.08645407 C40.3139032,8.08645407 40.6845596,7.92129575 40.9770504,7.5909791 C41.2695411,7.26066246 41.4157865,6.83326802 41.4157865,6.30879579 C41.4157865,5.76919455 41.2733234,5.3317141 40.988397,4.99635446 C40.7034706,4.66099481 40.3340749,4.49331498 39.8802099,4.49331498 Z M31.7891888,4.50844399 C31.2899373,4.50844399 30.8764159,4.68116682 30.5486245,5.02661247 C30.2208331,5.37205812 30.0569374,5.79945256 30.0569374,6.30879579 C30.0569374,6.42478484 30.0871951,6.50295137 30.1477104,6.54329539 C30.1961227,6.5755706 30.288106,6.59493573 30.4236603,6.60139077 L30.5334957,6.60381142 L33.0902685,6.60381142 C33.2919863,6.60381142 33.4256243,6.58363941 33.4911826,6.54329539 C33.5567409,6.50295137 33.58952,6.42478484 33.58952,6.30879579 C33.58952,5.79945256 33.4193206,5.37205812 33.0789219,5.02661247 C32.7385231,4.68116682 32.3086121,4.50844399 31.7891888,4.50844399 Z M48.1830347,4.50844399 C47.6837832,4.50844399 47.2702618,4.68116682 46.9424704,5.02661247 C46.614679,5.37205812 46.4507833,5.79945256 46.4507833,6.30879579 C46.4507833,6.42478484 46.481041,6.50295137 46.5415563,6.54329539 C46.5899686,6.5755706 46.6819519,6.59493573 46.8175062,6.60139077 L46.9273416,6.60381142 L49.4841144,6.60381142 C49.6858322,6.60381142 49.8194702,6.58363941 49.8850285,6.54329539 C49.9505868,6.50295137 49.9833659,6.42478484 49.9833659,6.30879579 C49.9833659,5.79945256 49.8131665,5.37205812 49.4727678,5.02661247 C49.132369,4.68116682 48.702458,4.50844399 48.1830347,4.50844399 Z" id="Combined-Shape"></path>
                <path d="M37.3868572,19.3678518 C37.9718387,19.3678518 38.4736117,19.4447576 38.8921761,19.5985691 C39.3107405,19.7523807 39.6360104,19.9755335 39.8679858,20.2680277 C40.0243171,20.4697478 40.1352619,20.7319839 40.2008202,21.054736 C40.2590942,21.3416268 40.2914687,21.7978629 40.2979436,22.4234442 L40.2991576,22.6659752 L40.2991576,25.2076484 L40.3021834,25.3770932 C40.3102521,25.5909165 40.3344582,25.756327 40.3748018,25.8733246 C40.4252312,26.0195717 40.5033968,26.1078242 40.6092987,26.1380823 C40.669814,26.1582543 40.7505011,26.1809478 40.85136,26.2061628 C41.1841944,26.2969368 41.3506115,26.4305764 41.3506115,26.6070815 C41.3506115,26.8592316 41.1741085,27.0874274 40.8211023,27.291669 C40.4680962,27.4959106 40.0570963,27.5980314 39.5881024,27.5980314 C39.356127,27.5980314 39.1102834,27.4606096 38.8505718,27.185766 C38.5908602,26.9109224 38.4534399,26.7735005 38.4383111,26.7735005 C38.3929246,26.7735005 38.2794583,26.8314951 38.0979123,26.9474841 C37.4322437,27.3811823 36.7766609,27.5980314 36.131164,27.5980314 C35.3646364,27.5980314 34.7443543,27.3748786 34.2703175,26.9285729 C33.7962807,26.4822672 33.5592623,25.8985397 33.5592623,25.1773903 C33.5592623,24.335209 33.8643605,23.6783579 34.4745567,23.2068372 C35.084753,22.7353165 35.9370106,22.4995562 37.0313296,22.4995562 C37.2380903,22.4995562 37.4637621,22.5109029 37.7083449,22.5335964 C37.8714001,22.5487254 38.0428602,22.5688974 38.2227252,22.5941124 L38.4988264,22.6357172 L38.5063908,21.8036218 L38.5002158,21.6113445 C38.4755157,21.239912 38.3767151,20.947212 38.2038142,20.7332446 C38.0020964,20.483616 37.7146486,20.3588017 37.3414707,20.3588017 C37.0842805,20.3588017 36.8447406,20.4155355 36.6228511,20.529003 C36.4009615,20.6424706 36.1866364,20.8177149 35.9798757,21.054736 C35.9395321,21.100123 35.8840597,21.1682036 35.8134585,21.2589776 C35.495753,21.6624178 35.1578757,21.8641379 34.7998267,21.8641379 C34.5930659,21.8641379 34.4279095,21.7973181 34.3043574,21.6636785 C34.1808052,21.530039 34.1190292,21.3497516 34.1190292,21.1228165 C34.1190292,20.6286023 34.4241273,20.2125546 35.0343236,19.8746735 C35.6445199,19.5367923 36.4286977,19.3678518 37.3868572,19.3678518 Z M14.7855299,19.3678518 C15.7991617,19.3678518 16.6022506,19.6565636 17.1947966,20.2339874 C17.7873426,20.8114112 18.0836156,21.5918158 18.0836156,22.5752012 C18.0836156,22.8979533 18.0357076,23.1110202 17.9398917,23.2144017 C17.8560527,23.3048606 17.6583141,23.3557437 17.3466759,23.367051 L17.2061432,23.369474 L13.3180331,23.369474 L13.1999355,23.3708634 C12.9782518,23.376421 12.8436361,23.3986514 12.7960883,23.4375546 C12.7406159,23.4829416 12.7128797,23.6039736 12.7128797,23.8006507 C12.7128797,24.456241 12.9473766,25.0197965 13.4163705,25.4913172 C13.8853643,25.9628379 14.455217,26.1985983 15.1259286,26.1985983 C15.4133765,26.1985983 15.6907384,26.1557328 15.9580145,26.0700017 C16.2252905,25.9842707 16.4850022,25.8531526 16.7371494,25.6766476 C16.8077506,25.6262175 16.9035666,25.553094 17.0245972,25.457277 C17.2868303,25.2404279 17.4910696,25.1320033 17.637315,25.1320033 C17.7533027,25.1320033 17.8491187,25.1698258 17.9247628,25.2454709 C18.000407,25.3211159 18.0382291,25.4118899 18.0382291,25.517793 C18.0382291,25.643868 17.9726708,25.7989404 17.8415542,25.9830099 C17.7104377,26.1670795 17.5339346,26.3473669 17.3120451,26.5238719 C16.8531371,26.9020971 16.4118795,27.1731585 15.9882721,27.337056 C15.5646648,27.5009536 15.1032354,27.5829024 14.6039839,27.5829024 C13.4844502,27.5829024 12.5502448,27.200895 11.8013675,26.4368801 C11.0524903,25.6728653 10.6780516,24.7260416 10.6780516,23.5964091 C10.6780516,22.3659166 11.0625761,21.3535339 11.8316252,20.559261 C12.6006742,19.7649882 13.5853091,19.3678518 14.7855299,19.3678518 Z M30.4531918,17.8549511 C30.5590936,17.8549511 30.6423022,17.8776446 30.7028176,17.9230316 C30.7633329,17.9684187 30.7935906,18.0314562 30.7935906,18.1121442 L30.7935906,18.1121442 L30.7935906,19.5872224 L32.5560996,19.5872224 L32.6466363,19.5919502 C32.7293721,19.6014058 32.7887055,19.6250449 32.8246364,19.6628674 C32.8725444,19.7132974 32.8964984,19.811636 32.8964984,19.957883 L32.8964984,19.957883 L32.8964984,20.1469956 L32.8915342,20.2420247 C32.8816059,20.329962 32.8567852,20.3966242 32.817072,20.4420112 C32.7641211,20.5025273 32.6771303,20.5327853 32.5560996,20.5327853 L32.5560996,20.5327853 L30.9297501,20.5327853 L30.8826826,20.5399295 C30.8535456,20.5494552 30.8288912,20.5685066 30.8087194,20.5970836 C30.7784617,20.6399491 30.7633329,20.7017259 30.7633329,20.7824139 L30.7633329,20.7824139 L30.7633329,24.7008266 L30.7650349,24.8959908 C30.7752468,25.4587899 30.8314126,25.8173473 30.9335323,25.9716632 C31.0469985,26.1431253 31.2575414,26.2288563 31.5651611,26.2288563 C31.7315782,26.2288563 31.9446426,26.1859908 32.2043543,26.1002597 C32.4640659,26.0145287 32.6443512,25.9716632 32.7452101,25.9716632 C32.8611978,25.9716632 32.9570137,26.0057035 33.0326579,26.073784 C33.1083021,26.1418645 33.1461241,26.2313778 33.1461241,26.3423239 C33.1461241,26.629775 32.9229739,26.9084009 32.4766733,27.1782015 C32.0303727,27.4480021 31.5248175,27.5829024 30.9600077,27.5829024 C30.6322163,27.5829024 30.3384648,27.5400369 30.0787532,27.4543058 C29.8190415,27.3685748 29.5958912,27.2399782 29.4093023,27.0685162 C29.2227134,26.8970541 29.0915968,26.6663367 29.0159526,26.3763641 C28.9403085,26.0863915 28.9024864,25.548051 28.9024864,24.7613427 L28.9024864,24.7613427 L28.9024864,20.5327853 L28.1763024,20.5327853 L28.0994763,20.529003 C28.0290326,20.5214385 27.9777364,20.5025273 27.9455877,20.4722693 C27.9027226,20.4319252 27.8812901,20.3638447 27.8812901,20.2680277 L27.8812901,20.2680277 L27.8812901,20.0789151 L27.8881044,20.0284642 C27.9335325,19.8479998 28.2061016,19.5445861 28.7058115,19.1182232 C28.841971,19.0022341 28.9503944,18.9089386 29.0310815,18.8383365 C29.1016827,18.7778205 29.2025416,18.689568 29.3336581,18.5735789 C29.8782961,18.0944937 30.251474,17.8549511 30.4531918,17.8549511 Z M50.7246787,19.3073357 C50.9818689,19.3073357 51.2327554,19.5140988 51.4773382,19.927625 C51.721921,20.3411512 51.8442124,20.7748494 51.8442124,21.2287196 C51.8442124,21.4153107 51.8038689,21.560297 51.7231817,21.6636785 C51.6424946,21.7670601 51.5265069,21.8187509 51.3752186,21.8187509 C51.2541879,21.8187509 51.1356787,21.7695816 51.019691,21.671243 C50.9037033,21.5729045 50.7650223,21.3951387 50.6036481,21.1379456 C50.4069732,20.8151934 50.2039947,20.5895191 49.9947125,20.4609225 C49.7854303,20.3323259 49.5345438,20.2680277 49.2420531,20.2680277 C48.9344335,20.2680277 48.6873292,20.3537587 48.5007402,20.5252208 C48.3141513,20.6966829 48.2208568,20.9210965 48.2208568,21.1984616 C48.2208568,21.4354827 48.315412,21.6472888 48.5045224,21.8338799 C48.6936329,22.0204709 49.1210224,22.2776641 49.7866911,22.6054592 C49.8018199,22.6155452 49.8295561,22.6306742 49.8698997,22.6508462 C51.3323535,23.3719955 52.0635805,24.1587039 52.0635805,25.0109713 C52.0635805,25.7422066 51.7824363,26.3536706 51.220148,26.8453633 C50.6578597,27.337056 49.9556297,27.5829024 49.113458,27.5829024 C48.9369549,27.5829024 48.7289335,27.5665126 48.4893936,27.5337331 C48.2498537,27.5009536 47.9737525,27.4543058 47.66109,27.3937898 C47.5753599,27.4593488 47.4934121,27.5072574 47.4152464,27.5375154 C47.3370808,27.5677734 47.2576544,27.5829024 47.1769673,27.5829024 C47.1265379,27.5829024 47.0748477,27.5715556 47.0218968,27.5488621 C46.9689459,27.5261686 46.9122127,27.4896069 46.8516974,27.4391768 C46.6802373,27.2929298 46.5188631,27.0080001 46.3675747,26.584388 C46.2162864,26.1607758 46.1406422,25.7548141 46.1406422,25.3665029 C46.1406422,25.2000838 46.1860287,25.0601405 46.2768017,24.946673 C46.3675747,24.8332054 46.4785195,24.7764717 46.6096361,24.7764717 C46.8516974,24.7764717 47.0962802,24.9882778 47.3433845,25.4118899 C47.4644151,25.623696 47.565274,25.7825506 47.6459611,25.8884537 C47.8022924,26.0952167 48.0166176,26.2591143 48.2889366,26.3801464 C48.5612556,26.5011784 48.8537463,26.5616944 49.1664089,26.5616944 C49.5143721,26.5616944 49.7892125,26.4747027 49.9909303,26.3007191 C50.1926481,26.1267355 50.293507,25.8934967 50.293507,25.6010025 C50.293507,25.1572183 49.8522493,24.7235201 48.9697341,24.299908 C48.7972654,24.2182113 48.6574749,24.1508116 48.5503628,24.0977088 L48.5503628,24.0977088 L48.5158691,24.0805374 C47.6938691,23.6720542 47.1391452,23.2963505 46.8516974,22.9534264 C46.5642496,22.6105022 46.4205256,22.1894115 46.4205256,21.6901543 C46.4205256,21.004306 46.657544,20.4457935 47.1315808,20.0146168 C47.6056176,19.5834401 48.2258998,19.3678518 48.9924273,19.3678518 C49.1790163,19.3678518 49.3656052,19.3779378 49.5521942,19.3981098 C49.7387831,19.4182818 49.925372,19.4510613 50.111961,19.4964483 C50.2582064,19.4308893 50.3817585,19.3829808 50.4826174,19.3527228 C50.5834763,19.3224648 50.6641634,19.3073357 50.7246787,19.3073357 Z M5.55984627,15.9940833 C6.70459466,15.9940833 7.57954552,16.2399296 8.18469886,16.7316224 C8.78985219,17.2233151 9.09242886,17.9331176 9.09242886,18.86103 C9.09242886,19.5519214 8.89197182,20.1495171 8.49105773,20.6538173 C8.13468966,21.1020842 7.64981989,21.4347978 7.03644842,21.6519582 L6.8004106,21.7279768 L6.8004106,21.8490089 L7.00648186,21.892623 C7.47393917,22.0079028 7.84776713,22.2177784 8.12796573,22.5222497 C8.44819271,22.8702168 8.7343798,23.4678126 8.98652703,24.315037 C9.04199942,24.506671 9.11260064,24.7714287 9.1983307,25.1093098 C9.40004847,25.9212332 9.65471717,26.3271948 9.96233678,26.3271948 C9.99763739,26.3271948 10.0720208,26.3221518 10.1854871,26.3120658 C10.2989533,26.3019798 10.39603,26.2969368 10.4767171,26.2969368 C10.5725331,26.2969368 10.6607846,26.3372808 10.7414717,26.4179689 C10.8221588,26.4986569 10.8625024,26.5919525 10.8625024,26.6978555 C10.8625024,26.9449626 10.7124748,27.1466827 10.4124196,27.3030158 C10.1123644,27.4593488 9.7152325,27.5375154 9.22102395,27.5375154 C8.17713444,27.5375154 7.42321425,26.7381995 6.95926335,25.1395678 C6.94917747,25.1143528 6.94413452,25.0967023 6.94413452,25.0866163 C6.57095663,23.8208227 6.19651801,23.0189854 5.82081864,22.6811042 C5.48686365,22.3807654 5.01046105,22.2139105 4.39161083,22.1805396 L4.15286476,22.1742825 L3.44180959,22.1742825 L3.37130923,22.1783673 C3.28416715,22.1892602 3.22445869,22.2219389 3.19218384,22.2764033 C3.15760365,22.334758 3.13784354,22.477403 3.13290352,22.7043381 L3.13166851,22.8248298 L3.13166851,23.1349744 C3.13166851,24.335209 3.15057955,25.1206566 3.18840163,25.4913172 C3.22622372,25.8619779 3.2955642,26.0826092 3.39642309,26.1532113 C3.46198137,26.2086843 3.57796909,26.2641573 3.74438626,26.3196303 C4.06713471,26.4356194 4.22850893,26.6020385 4.22850893,26.8188876 C4.22850893,27.0508657 4.08478501,27.2122417 3.79733718,27.3030158 C3.50988934,27.3937898 2.94760104,27.4391768 2.11047226,27.4391768 C1.29351525,27.4391768 0.737530627,27.3937898 0.442518376,27.3030158 C0.147506125,27.2122417 -1.01409843e-13,27.0508657 -1.01409843e-13,26.8188876 C-1.01409843e-13,26.6070815 0.163895695,26.4381409 0.491687085,26.3120658 C0.658104252,26.2465068 0.774091975,26.1885123 0.839650253,26.1380823 C0.950595031,26.0523512 1.03002141,25.6968196 1.07792938,25.0714873 C1.12583735,24.446155 1.14979134,23.303915 1.14979134,21.6447673 C1.14979134,20.4344467 1.12835882,19.4460183 1.0854938,18.679482 C1.04262877,17.9129456 0.985895642,17.4817689 0.91529442,17.3859519 C0.85982203,17.3103069 0.693404863,17.2144898 0.416042918,17.0985008 C0.138680973,16.9825117 -1.01409843e-13,16.8261786 -1.01409843e-13,16.6295016 C-1.01409843e-13,16.4378675 0.0794263752,16.2966634 0.238279126,16.2058894 C0.370656418,16.1302443 0.563443982,16.0861181 0.816641819,16.0735106 L0.975809753,16.0697283 L2.70049676,16.0697283 L2.91660794,16.0686777 C3.29237734,16.0651756 3.74606724,16.0529183 4.27767764,16.0319058 C4.91561011,16.0066908 5.34299966,15.9940833 5.55984627,15.9940833 Z M23.9733914,19.3678518 C24.3516123,19.3678518 24.715965,19.4498006 25.0664496,19.6136981 C25.4169343,19.7775957 25.7132073,20.0007486 25.9552686,20.2831567 C26.1973299,20.5706078 26.3687901,20.913532 26.4696489,21.3119291 C26.5705078,21.7103263 26.6209373,22.3331371 26.6209373,23.1803615 L26.6209373,23.1803615 L26.6204645,24.3528595 C26.6195189,24.466327 26.6171551,24.6024881 26.6133729,24.7613427 C26.6083299,24.9731487 26.6058084,25.1219173 26.6058084,25.2076484 C26.6058084,25.5808305 26.6322839,25.8443274 26.6852348,25.9981389 C26.7381857,26.1519505 26.8302195,26.2666788 26.961336,26.3423239 C27.0117655,26.3675389 27.0798452,26.3952754 27.1655753,26.4255334 C27.4227654,26.5213504 27.5513605,26.6575115 27.5513605,26.8340166 C27.5513605,27.0609517 27.4303299,27.216024 27.1882685,27.2992335 C26.9462072,27.3824431 26.421741,27.4240478 25.6148699,27.4240478 C24.8786,27.4240478 24.3856521,27.3849646 24.1360264,27.306798 C23.8864006,27.2286315 23.7615878,27.0886882 23.7615878,26.8869681 C23.7615878,26.685248 23.8927043,26.5364794 24.1549374,26.4406624 C24.2910969,26.3902324 24.3894344,26.3473669 24.4499497,26.3120658 C24.5709804,26.2465068 24.6567104,26.098999 24.7071399,25.8695424 C24.7575693,25.6400858 24.782784,25.2404279 24.782784,24.6705686 C24.782784,22.9962919 24.6756215,21.9473474 24.4612963,21.5237352 C24.2469712,21.100123 23.8624467,20.8883169 23.3077228,20.8883169 C23.0253179,20.8883169 22.7567811,20.9727872 22.5021124,21.1417278 C22.2474437,21.3106684 22.0520296,21.5363427 21.9158701,21.8187509 C21.7998824,22.045686 21.7191953,22.3633951 21.6738088,22.7718783 C21.6284223,23.1803615 21.605729,23.9065538 21.605729,24.9504552 C21.605729,25.4597985 21.6271615,25.7989404 21.6700266,25.9678809 C21.7128916,26.1368215 21.7897965,26.2515498 21.9007413,26.3120658 C21.9662995,26.3473669 22.064637,26.3902324 22.1957535,26.4406624 C22.4630296,26.5364794 22.5966676,26.685248 22.5966676,26.8869681 C22.5966676,27.0886882 22.4680725,27.231153 22.2108823,27.3143625 C21.9536922,27.3975721 21.4821769,27.4391768 20.7963364,27.4391768 C19.9945083,27.4391768 19.4637384,27.3963113 19.2040267,27.3105803 C18.9443151,27.2248492 18.8144593,27.0659947 18.8144593,26.8340166 C18.8144593,26.6575115 18.9430543,26.5213504 19.2002445,26.4255334 C19.2960604,26.3902324 19.3641402,26.3624959 19.4044838,26.3423239 C19.5406433,26.2666788 19.6364592,26.1406038 19.6919316,25.9640987 C19.747404,25.7875936 19.7751402,25.5001425 19.7751402,25.1017453 C19.7751402,25.0059283 19.7726187,24.8294232 19.7675758,24.5722301 C19.7625328,24.315037 19.7600113,24.1032309 19.7600113,23.9368118 L19.7600113,23.1198454 C19.7600113,22.2927931 19.7398396,21.7531918 19.699496,21.5010417 C19.6591525,21.2488916 19.5860298,21.09508 19.4801279,21.039607 C19.3994408,20.999263 19.2758887,20.953876 19.1094715,20.903446 C18.791766,20.8025859 18.6329133,20.6639033 18.6329133,20.4873983 C18.6329133,20.3714092 18.682082,20.2667669 18.7804194,20.1734714 C18.8787568,20.0801758 19.0413918,19.988141 19.2683243,19.897367 C19.656631,19.7460769 20.0348518,19.6250449 20.4029868,19.5342708 C20.7711217,19.4434968 21.0434407,19.3981098 21.2199438,19.3981098 C21.3661891,19.3981098 21.472091,19.4371931 21.5376493,19.5153596 C21.6032075,19.5935261 21.6359867,19.7208619 21.6359867,19.897367 L21.6359867,19.897367 L21.6359867,20.4193177 L21.6372474,20.4546188 C21.6389284,20.4747908 21.6422904,20.4882388 21.6473333,20.4949628 C21.6548977,20.5050488 21.6712873,20.5126133 21.696502,20.5176563 C21.7065879,20.5176563 21.720456,20.513874 21.7381063,20.5063095 C21.7557566,20.498745 21.7671032,20.4924413 21.7721462,20.4873983 L21.7721462,20.4873983 L21.9536922,20.3209792 L21.9990787,20.2806352 C22.0326983,20.2503772 22.0730419,20.2133951 22.1201093,20.1696891 C22.6899621,19.6351309 23.3077228,19.3678518 23.9733914,19.3678518 Z M44.2221851,15.8654867 C44.3785164,15.8654867 44.4894612,15.914656 44.5550195,16.0129945 C44.6205777,16.1113331 44.6533569,16.2840559 44.6533569,16.531163 C44.6533569,16.6017651 44.6483139,16.8034851 44.638228,17.1363233 C44.5777127,19.0072771 44.547455,20.8984029 44.547455,22.8097008 L44.547455,22.8097008 L44.5475404,22.9816816 C44.5488493,24.2800139 44.5652104,25.1140376 44.5966237,25.4837527 C44.6294029,25.8695424 44.6886575,26.1128673 44.7743875,26.2137273 C44.824817,26.2692003 44.9723231,26.3448454 45.2169059,26.4406624 C45.4614887,26.5364794 45.5837801,26.685248 45.5837801,26.8869681 C45.5837801,27.0886882 45.4526636,27.231153 45.1904305,27.3143625 C44.9281973,27.3975721 44.4541606,27.4391768 43.7683201,27.4391768 C42.966492,27.4391768 42.4382435,27.3963113 42.1835748,27.3105803 C41.9289061,27.2248492 41.8015718,27.0659947 41.8015718,26.8340166 C41.8015718,26.6726405 41.9099951,26.5440439 42.1268417,26.4482269 C42.3436883,26.3524099 42.4773263,26.2792863 42.5277558,26.2288563 C42.6185288,26.1431253 42.6828263,25.9401444 42.7206484,25.6199138 C42.7584705,25.2996831 42.7773815,24.7815147 42.7773815,24.0654083 L42.7773815,24.0654083 L42.7771018,23.9213918 C42.7763185,23.6892198 42.7738903,23.3287421 42.7698171,22.8399588 C42.7647742,22.2347985 42.7622527,21.7330198 42.7622527,21.3346226 L42.762124,20.5604265 C42.7602365,19.3402297 42.7375861,18.5468291 42.694173,18.1802247 C42.6487865,17.7969566 42.5706208,17.5750645 42.459676,17.5145485 C42.3436883,17.4540324 42.1823141,17.3960379 41.9755534,17.3405649 C41.642719,17.2497908 41.4763019,17.1111083 41.4763019,16.9245172 C41.4763019,16.7933991 41.527992,16.6837138 41.6313724,16.5954613 C41.7347528,16.5072088 41.9730319,16.400045 42.3462098,16.2739699 C42.7093018,16.1478949 43.0610472,16.0482956 43.4014459,15.975172 C43.7418447,15.9020485 44.0154244,15.8654867 44.2221851,15.8654867 Z M37.3565995,23.5056351 C36.7917897,23.5056351 36.3505321,23.6317102 36.0328266,23.8838603 C35.7151211,24.1360104 35.5562683,24.4839775 35.5562683,24.9277617 C35.5562683,25.3463309 35.6936886,25.6816906 35.968529,25.9338407 C36.2433695,26.1859908 36.6127652,26.3120658 37.0767161,26.3120658 C37.5910964,26.3120658 37.9579706,26.1985983 38.1773387,25.9716632 C38.3692858,25.773095 38.477256,25.4509732 38.5012494,25.0052979 L38.5063908,24.8067297 L38.4988264,23.6417962 L38.2945872,23.6001914 C38.1601087,23.5749764 38.0289921,23.5548044 37.9012375,23.5396754 C37.7096056,23.5169819 37.5280596,23.5056351 37.3565995,23.5056351 Z M14.5207753,20.3739307 C14.0215238,20.3739307 13.6080024,20.5466535 13.280211,20.8920992 C12.9524196,21.2375448 12.7885239,21.6649393 12.7885239,22.1742825 C12.7885239,22.2902716 12.8187816,22.3684381 12.8792969,22.4087821 C12.9277092,22.4410573 13.0196925,22.4604225 13.1552468,22.4668775 L13.2650821,22.4692981 L15.821855,22.4692981 C16.0235728,22.4692981 16.1572108,22.4491261 16.2227691,22.4087821 C16.2883273,22.3684381 16.3211065,22.2902716 16.3211065,22.1742825 C16.3211065,21.6649393 16.1509071,21.2375448 15.8105084,20.8920992 C15.4701096,20.5466535 15.0401986,20.3739307 14.5207753,20.3739307 Z M4.41761935,16.9699042 C4.00914085,16.9699042 3.72799669,16.99638 3.57418689,17.0493315 C3.42037708,17.102283 3.31825745,17.2044038 3.26782801,17.3556939 C3.2325274,17.4918549 3.20605194,17.7225723 3.18840163,18.0478459 C3.17352962,18.3219191 3.16492313,18.740101 3.16255783,19.3023916 L3.16192618,19.5521963 L3.16192618,21.100123 L3.47395836,21.1256532 L3.77464393,21.1417278 C3.97131876,21.1492923 4.16042918,21.1530746 4.34197518,21.1530746 C5.23457635,21.1530746 5.88889839,20.984134 6.30494131,20.6462528 C6.72098423,20.3083717 6.92900569,19.7788565 6.92900569,19.0577071 C6.92900569,18.3718588 6.71720202,17.8524296 6.29359469,17.4994194 C5.86998735,17.1464093 5.24466224,16.9699042 4.41761935,16.9699042 Z" id="Combined-Shape"></path>
                <path d="M54.6174486,25.1320033 C54.9603688,25.1320033 55.2503381,25.2492531 55.4873565,25.4837527 C55.7243749,25.7182523 55.8428841,26.0094857 55.8428841,26.3574529 C55.8428841,26.695334 55.7231142,26.9840459 55.4835743,27.2235885 C55.2440344,27.4631311 54.9553259,27.5829024 54.6174486,27.5829024 C54.2745284,27.5829024 53.9845591,27.4631311 53.7475407,27.2235885 C53.5105223,26.9840459 53.3920131,26.695334 53.3920131,26.3574529 C53.3920131,26.0094857 53.5105223,25.7182523 53.7475407,25.4837527 C53.9845591,25.2492531 54.2745284,25.1320033 54.6174486,25.1320033 Z M61.278795,19.3678518 C62.1411385,19.3678518 62.8761476,19.5935261 63.4838224,20.0448748 C64.0914972,20.4962235 64.3953346,21.024478 64.3953346,21.6296383 C64.3953346,21.8717024 64.3108653,22.0696402 64.1419267,22.2234518 C63.972988,22.3772634 63.7574022,22.4541691 63.4951691,22.4541691 C63.227893,22.4541691 63.0135679,22.3911316 62.8521936,22.2650566 C62.6908194,22.1389815 62.5193593,21.8616164 62.3378133,21.4329612 C62.1713961,21.054736 61.9873287,20.7912392 61.7856109,20.6424706 C61.5838931,20.493702 61.32166,20.4193177 60.9989116,20.4193177 C60.3887153,20.4193177 59.9134178,20.6449921 59.573019,21.0963408 C59.2326203,21.5476895 59.0624209,22.1793255 59.0624209,22.9912489 C59.0624209,23.9292473 59.3044822,24.6932621 59.7886049,25.2832934 C60.2727275,25.8733246 60.8930097,26.1683403 61.6494514,26.1683403 C61.9116845,26.1683403 62.1600495,26.1330393 62.3945464,26.0624372 C62.6290433,25.9918352 62.8471507,25.8884537 63.0488685,25.7522926 C63.1194697,25.7018626 63.2203286,25.6262175 63.3514451,25.5253575 C63.6288071,25.3034654 63.8481752,25.1925193 64.0095494,25.1925193 C64.1204942,25.1925193 64.207485,25.2240381 64.2705218,25.2870756 C64.3335586,25.3501132 64.365077,25.437105 64.365077,25.548051 C64.365077,25.6791691 64.3096046,25.8380236 64.1986598,26.0246147 C64.087715,26.2112058 63.9465126,26.3776249 63.7750525,26.5238719 C63.361531,26.8869681 62.93162,27.1542472 62.4853194,27.3257093 C62.0390188,27.4971714 61.5536354,27.5829024 61.0291692,27.5829024 C59.9247644,27.5829024 59.0006448,27.200895 58.2568105,26.4368801 C57.5129762,25.6728653 57.141059,24.7260416 57.141059,23.5964091 C57.141059,22.3810456 57.5356694,21.3724452 58.3248903,20.5706078 C59.1141111,19.7687704 60.098746,19.3678518 61.278795,19.3678518 Z M69.2109633,19.3678518 C70.3456258,19.3678518 71.2747884,19.7359909 71.9984509,20.4722693 C72.7221134,21.2085476 73.0839447,22.151589 73.0839447,23.3013935 C73.0839447,24.5218 72.695638,25.5404865 71.9190245,26.3574529 C71.1424111,27.1744192 70.1792087,27.5829024 69.0294173,27.5829024 C67.8947548,27.5829024 66.9542457,27.1971127 66.2078899,26.4255334 C65.4615341,25.653954 65.0883562,24.6806546 65.0883562,23.5056351 C65.0883562,22.3205296 65.4804452,21.3346226 66.264623,20.5479143 C67.0488009,19.7612059 68.0309143,19.3678518 69.2109633,19.3678518 Z M83.6182724,19.3678518 C84.2284687,19.3678518 84.7617601,19.4901446 85.2181465,19.7347302 C85.674533,19.9793158 86.0086281,20.3235007 86.2204317,20.7672849 C86.4524072,21.2514131 86.5683949,22.2675781 86.5683949,23.8157797 C86.5734379,24.1536609 86.5759593,24.410854 86.5759593,24.5873591 L86.5754865,24.6767148 C86.574541,24.7722166 86.5721771,24.886157 86.5683949,25.0185358 C86.563352,25.1950408 86.5608305,25.3160729 86.5608305,25.3816319 C86.5608305,25.6842121 86.5873059,25.9010612 86.6402569,26.0321792 C86.6932078,26.1632973 86.7852415,26.2666788 86.9163581,26.3423239 C86.9567016,26.3624959 87.0247814,26.3902324 87.1205973,26.4255334 C87.3878734,26.5213504 87.5215114,26.6575115 87.5215114,26.8340166 C87.5215114,27.0609517 87.3979593,27.216024 87.150855,27.2992335 C86.9037507,27.3824431 86.3717201,27.4240478 85.5547631,27.4240478 C84.8033643,27.4240478 84.3003306,27.3849646 84.0456619,27.306798 C83.7909932,27.2286315 83.6636589,27.0886882 83.6636589,26.8869681 C83.6636589,26.685248 83.8023399,26.5289149 84.0797018,26.4179689 C84.2007325,26.3725819 84.294027,26.3322378 84.3595852,26.2969368 C84.4907018,26.2263348 84.5827355,26.0611765 84.6356864,25.8014619 C84.6886374,25.5417472 84.7151128,25.1017453 84.7151128,24.481456 C84.7151128,22.9231683 84.609211,21.9347399 84.3974073,21.5161707 C84.1856037,21.0976015 83.8023399,20.8883169 83.247616,20.8883169 C82.6374197,20.8883169 82.1999443,21.1543353 81.9351897,21.686372 C81.6704351,22.2184088 81.5380578,23.1248884 81.5380578,24.405811 L81.5380578,24.405811 L81.5380578,24.8369877 L81.5393579,25.0398109 C81.5454252,25.4921052 81.5727281,25.7976796 81.6212664,25.9565342 C81.6767388,26.1380823 81.7725547,26.2666788 81.9087142,26.3423239 C81.9591437,26.3675389 82.0272234,26.3952754 82.1129535,26.4255334 C82.3701436,26.5213504 82.4987387,26.6575115 82.4987387,26.8340166 C82.4987387,27.0609517 82.3777081,27.216024 82.1356467,27.2992335 C81.8935854,27.3824431 81.3691192,27.4240478 80.5622481,27.4240478 C79.8259782,27.4240478 79.3317696,27.3849646 79.0796224,27.306798 C78.8274752,27.2286315 78.7014016,27.0886882 78.7014016,26.8869681 C78.7014016,26.685248 78.8350396,26.5364794 79.1023156,26.4406624 C79.2283892,26.3952754 79.3292481,26.3524099 79.4048923,26.3120658 C79.5158371,26.2465068 79.5952635,26.1065635 79.6431714,25.8922359 C79.6910794,25.6779083 79.7150334,25.2706859 79.7150334,24.6705686 C79.7150334,22.9962919 79.6078708,21.9473474 79.3935457,21.5237352 C79.1792205,21.100123 78.794696,20.8883169 78.2399721,20.8883169 C77.9575672,20.8883169 77.6915519,20.9727872 77.4419262,21.1417278 C77.1923004,21.3106684 76.9994078,21.5363427 76.8632483,21.8187509 C76.7422176,22.055772 76.6577483,22.3898709 76.6098403,22.8210475 C76.5619324,23.2522242 76.5379784,23.9620268 76.5379784,24.9504552 C76.5379784,25.4345835 76.5606716,25.7661608 76.6060581,25.9451874 C76.6514446,26.124214 76.7321317,26.2465068 76.8481195,26.3120658 C76.9136777,26.3473669 77.0120152,26.3902324 77.1431317,26.4406624 C77.4104078,26.5364794 77.5440458,26.685248 77.5440458,26.8869681 C77.5440458,27.0886882 77.41419,27.231153 77.1544783,27.3143625 C76.8947667,27.3975721 76.4194692,27.4391768 75.7285858,27.4391768 C74.9267576,27.4391768 74.3985092,27.3963113 74.1438405,27.3105803 C73.8891718,27.2248492 73.7618375,27.0659947 73.7618375,26.8340166 C73.7618375,26.6575115 73.8904325,26.5213504 74.1476227,26.4255334 C74.2434386,26.3902324 74.3115184,26.3624959 74.351862,26.3423239 C74.4880215,26.2666788 74.5838374,26.1406038 74.6393098,25.9640987 C74.6947822,25.7875936 74.7225184,25.5001425 74.7225184,25.1017453 C74.7225184,25.0059283 74.7199969,24.8294232 74.714954,24.5722301 C74.709911,24.315037 74.7073895,24.1032309 74.7073895,23.9368118 L74.7073895,23.4753771 C74.7073895,22.5020777 74.685957,21.8691809 74.643092,21.5766867 C74.600227,21.2841926 74.5233221,21.105166 74.4123773,21.039607 C74.3316902,20.999263 74.2106595,20.953876 74.0492853,20.903446 C73.7366227,20.8025859 73.5802915,20.6639033 73.5802915,20.4873983 C73.5802915,20.3714092 73.6269387,20.2705492 73.7202332,20.1848181 C73.8135276,20.0990871 73.9786841,20.0083131 74.2157025,19.912496 C74.624181,19.7460769 75.0087055,19.6136981 75.369276,19.5153596 C75.7298465,19.417021 75.9908189,19.3678518 76.1521931,19.3678518 C76.2883526,19.3678518 76.391733,19.411978 76.4623342,19.5002306 C76.5329354,19.5884831 76.573279,19.7259049 76.5833649,19.912496 L76.5833649,19.912496 L76.5833649,20.4193177 L76.5850459,20.4588213 C76.5872872,20.4812346 76.5917698,20.4958033 76.5984937,20.5025273 C76.6085796,20.5126133 76.6237084,20.5176563 76.6438802,20.5176563 C76.6539661,20.5176563 76.6678342,20.513874 76.6854845,20.5063095 C76.7031348,20.498745 76.7144814,20.4924413 76.7195244,20.4873983 L76.7195244,20.4873983 L76.9010704,20.3209792 L76.9246041,20.2982857 C76.9425346,20.2814757 76.9649477,20.2613037 76.9918434,20.2377697 C77.6222114,19.6578244 78.2601439,19.3678518 78.9056408,19.3678518 C79.1477021,19.3678518 79.3821991,19.4044135 79.6091316,19.4775371 C79.8360641,19.5506606 80.0554321,19.6603459 80.2672358,19.806593 C80.4689536,19.937711 80.6681499,20.1217806 80.8648247,20.3588017 C81.0614996,20.5958228 81.1825302,20.7143334 81.2279167,20.7143334 C81.2985179,20.7143334 81.403159,20.6336453 81.54184,20.4722693 C81.680521,20.3108932 81.7977694,20.1923826 81.8935854,20.1167376 C82.2314627,19.8292865 82.5277357,19.6326094 82.7824044,19.5267063 C83.0370731,19.4208033 83.3156957,19.3678518 83.6182724,19.3678518 Z M68.8251781,20.4722693 C68.3057548,20.4722693 67.8871904,20.6853361 67.5694849,21.1114698 C67.2517794,21.5376035 67.0929267,22.1036805 67.0929267,22.8097008 C67.0929267,23.8536023 67.3135555,24.7260416 67.7548131,25.4270189 C68.1960708,26.1279963 68.7344051,26.4784849 69.3698161,26.4784849 C69.8841964,26.4784849 70.3015001,26.2616358 70.6217271,25.8279376 C70.941954,25.3942394 71.1020675,24.8218587 71.1020675,24.1107954 C71.1020675,23.0820229 70.8789172,22.2184088 70.4326166,21.519953 C69.9863161,20.8214972 69.4505032,20.4722693 68.8251781,20.4722693 Z" id="Combined-Shape"></path>
            </g>
        </g>
    </g>
</svg>