<?xml version="1.0" encoding="UTF-8"?>
<svg width="100px" height="24px" viewBox="0 0 100 24" version="1.1" xmlns="http://www.w3.org/2000/svg" xmlns:xlink="http://www.w3.org/1999/xlink">
    <title>college_rentals_bababa</title>
    <g id="Page-1" stroke="none" stroke-width="1" fill="none" fill-rule="evenodd">
        <g id="college_rentals_bababa">
            <path d="M15.1116836,6.54453207 L15.1112133,21.5705646 C13.2913427,22.7755677 11.4530809,23.5488178 10.3945485,23.6197282 L10.2417163,23.6250634 C9.21422384,23.6250634 7.28308348,22.8358178 5.3722193,21.5705646 L5.37174901,6.54453207 L10.2417163,6.54530445 L15.1116836,6.54453207 Z M56.4866338,16.56788 C56.9870457,16.56788 57.4162784,16.6336677 57.7743317,16.765243 C58.1323851,16.8968184 58.4106314,17.0877105 58.6090706,17.3379193 C58.7428014,17.5104771 58.8377071,17.7348023 58.8937877,18.0108948 C58.9428583,18.2524757 58.9704605,18.6344284 58.9765943,19.1567529 L58.9779087,19.3892004 L58.9779087,21.5634289 L58.9804971,21.7083774 C58.9873993,21.8912887 59.008106,22.0327861 59.0426172,22.1328697 C59.0857561,22.2579741 59.1526215,22.3334681 59.2432133,22.3593518 C59.2949801,22.3766076 59.3640024,22.3960203 59.4502803,22.4175901 C59.7349975,22.4952411 59.877356,22.6095606 59.877356,22.7605487 C59.877356,22.976246 59.7263697,23.171452 59.424397,23.3461668 C59.1224242,23.5208816 58.7708417,23.608239 58.3696494,23.608239 C58.1712102,23.608239 57.9609077,23.490684 57.7387421,23.255574 C57.5165764,23.0204639 57.3990228,22.9029089 57.3860811,22.9029089 C57.347256,22.9029089 57.2501934,22.9525193 57.0948931,23.0517401 C56.5254588,23.4227394 55.9646523,23.608239 55.4124737,23.608239 C54.7567615,23.608239 54.2261522,23.4173469 53.820646,23.0355628 C53.4151398,22.6537786 53.2123867,22.1544394 53.2123867,21.5375452 C53.2123867,20.8171163 53.4733774,20.2552249 53.9953588,19.851871 C54.5173402,19.4485171 55.2463887,19.2468402 56.1825041,19.2468402 C56.3593738,19.2468402 56.5524207,19.2565465 56.7616446,19.2759593 C56.9011273,19.2889011 57.0477997,19.3061569 57.201662,19.3277266 L57.4378478,19.3633167 L57.4443187,18.6515157 L57.4390364,18.4870355 C57.4179071,18.1693002 57.3333899,17.9189153 57.1854849,17.7358808 C57.0129291,17.5223405 56.767037,17.4155703 56.4478087,17.4155703 C56.2278,17.4155703 56.0228899,17.4641022 55.8330785,17.561166 C55.6432671,17.6582298 55.4599265,17.8081394 55.2830568,18.0108948 C55.2485456,18.0497203 55.2010927,18.1079586 55.1406982,18.1856096 C54.8689228,18.5307252 54.5798917,18.703283 54.2736051,18.703283 C54.0967354,18.703283 53.9554553,18.6461233 53.8497648,18.5318037 C53.7440744,18.4174842 53.6912291,18.2632606 53.6912291,18.0691331 C53.6912291,17.6463664 53.9522198,17.2904659 54.4742013,17.0014316 C54.9961827,16.7123972 55.6669935,16.56788 56.4866338,16.56788 Z M83.7099923,16.56788 C84.6806189,16.56788 85.4754543,16.8827981 86.0944984,17.5126341 C86.7135424,18.1424701 87.0230645,18.9491779 87.0230645,19.9327575 C87.0230645,20.9767323 86.6908945,21.8481493 86.0265545,22.5470084 C85.3622145,23.2458676 84.5382604,23.5952972 83.5546921,23.5952972 C82.5840655,23.5952972 81.7795239,23.2652804 81.1410672,22.6052467 C80.5026106,21.945213 80.1833823,21.1126216 80.1833823,20.1074723 C80.1833823,19.0936951 80.5187877,18.2503188 81.1895986,17.5773433 C81.8604094,16.9043678 82.7005407,16.56788 83.7099923,16.56788 Z M67.8962331,16.5161127 C68.1162418,16.5161127 68.3308581,16.6929845 68.540082,17.046728 C68.749306,17.4004715 68.853918,17.7714708 68.853918,18.1597259 C68.853918,18.3193419 68.8194068,18.4433678 68.7503845,18.5318037 C68.6813621,18.6202396 68.5821425,18.6644575 68.4527256,18.6644575 C68.3491921,18.6644575 68.2478156,18.6223966 68.148596,18.5382746 C68.0493764,18.4541527 67.9307442,18.3020861 67.7926995,18.0820749 C67.6244576,17.8059824 67.4508233,17.6129333 67.2717966,17.5029277 C67.0927699,17.3929221 66.8781536,17.3379193 66.6279476,17.3379193 C66.3648,17.3379193 66.1534191,17.4112564 65.9938049,17.5579305 C65.8341908,17.7046047 65.7543837,17.8965752 65.7543837,18.1338422 C65.7543837,18.3365977 65.8352692,18.5177834 65.9970403,18.6773994 C66.1588114,18.8370153 66.5244141,19.0570266 67.0938484,19.337433 C67.1067901,19.3460609 67.1305165,19.3590027 67.1650277,19.3762585 C68.4160575,19.9931527 69.0415725,20.6661282 69.0415725,21.395185 C69.0415725,22.0207071 68.8010727,22.543773 68.3200733,22.9643827 C67.8390739,23.3849923 67.2383639,23.5952972 66.5179433,23.5952972 C66.3669569,23.5952972 66.1890087,23.5812769 65.9840986,23.5532362 C65.7791886,23.5251956 65.5430028,23.4852916 65.2755412,23.4335242 C65.202205,23.4896055 65.1321042,23.530588 65.0652388,23.5564717 C64.9983734,23.5823553 64.9304295,23.5952972 64.8614072,23.5952972 C64.8182682,23.5952972 64.7740508,23.5855908 64.7287549,23.566178 C64.683459,23.5467653 64.6349277,23.5154892 64.5831609,23.4723497 C64.4364884,23.3472453 64.2984438,23.1035074 64.1690269,22.741136 C64.03961,22.3787646 63.9749016,22.031492 63.9749016,21.6993182 C63.9749016,21.556958 64.0137266,21.437246 64.0913768,21.3401822 C64.1690269,21.2431184 64.2639326,21.1945865 64.3760939,21.1945865 C64.5831609,21.1945865 64.7923849,21.3757722 65.0037658,21.7381437 C65.1072993,21.9193294 65.1935772,22.0552187 65.2625995,22.1458115 C65.3963303,22.3226833 65.5796709,22.4628865 65.8126213,22.5664212 C66.0455717,22.6699559 66.2957776,22.7217232 66.5632392,22.7217232 C66.860898,22.7217232 67.0960053,22.6473077 67.2685612,22.4984765 C67.441117,22.3496454 67.5273949,22.1501255 67.5273949,21.8999166 C67.5273949,21.5202894 67.149929,21.1492901 66.3949972,20.7869187 C66.2966404,20.7403281 66.2107076,20.699173 66.1371988,20.6634536 L66.0362536,20.613951 L66.0067466,20.5992621 C65.3035815,20.2498325 64.829053,19.9284435 64.5831609,19.6350953 C64.3372688,19.341747 64.2143228,18.9815325 64.2143228,18.5544519 C64.2143228,17.9677553 64.4170759,17.4899859 64.8225821,17.1211435 C65.2280884,16.7523012 65.7586976,16.56788 66.4144098,16.56788 C66.5740239,16.56788 66.7336381,16.5765079 66.8932522,16.5937637 C67.0528664,16.6110195 67.2124805,16.6390601 67.3720947,16.6778857 C67.4971977,16.6218044 67.6028881,16.5808219 67.689166,16.5549382 C67.775444,16.5290545 67.8444663,16.5161127 67.8962331,16.5161127 Z M76.9245617,16.56788 C77.662238,16.56788 78.2909883,16.7609291 78.8108128,17.1470272 C79.3306372,17.5331253 79.5905495,17.9850111 79.5905495,18.5026846 C79.5905495,18.709754 79.5182917,18.8790763 79.3737762,19.0106517 C79.2292607,19.142227 79.0448416,19.2080147 78.820519,19.2080147 C78.5918826,19.2080147 78.408542,19.1540903 78.2704973,19.0462417 C78.1324526,18.9383931 77.9857802,18.7011261 77.8304799,18.3344407 C77.6881213,18.0108948 77.5306641,17.7854911 77.3581083,17.6582298 C77.1855524,17.5309684 76.9612299,17.4673377 76.6851405,17.4673377 C76.1631591,17.4673377 75.7565744,17.6603867 75.4653864,18.0464848 C75.1741984,18.432583 75.0286044,18.9729046 75.0286044,19.6674498 C75.0286044,20.4698437 75.2356714,21.1234064 75.6498055,21.6281381 C76.0639395,22.1328697 76.5945487,22.3852355 77.2416331,22.3852355 C77.4659557,22.3852355 77.6784151,22.3550379 77.8790112,22.2946426 C78.0796074,22.2342474 78.2661834,22.1458115 78.4387392,22.029335 C78.4991338,21.9861955 78.5854117,21.9214863 78.697573,21.8352074 C78.9348373,21.6453938 79.1224918,21.550487 79.2605364,21.550487 C79.3554421,21.550487 79.4298569,21.5774492 79.4837806,21.6313735 C79.5377043,21.6852978 79.5646661,21.7597134 79.5646661,21.8546202 C79.5646661,21.9667828 79.5172132,22.1026721 79.4223075,22.262288 C79.3274018,22.421904 79.2066127,22.5642642 79.0599403,22.6893686 C78.7062008,22.9999727 78.3384412,23.2286118 77.9566614,23.375286 C77.5748816,23.5219601 77.1596691,23.5952972 76.7110239,23.5952972 C75.7662807,23.5952972 74.9757592,23.2685158 74.3394595,22.6149531 C73.7031599,21.9613903 73.38501,21.1514471 73.38501,20.1851233 C73.38501,19.1454624 73.7225724,18.2826734 74.3976971,17.596756 C75.0728219,16.9108387 75.9151101,16.56788 76.9245617,16.56788 Z M71.2262329,21.4987197 C71.5195779,21.4987197 71.7676269,21.5990189 71.97038,21.7996174 C72.1731331,22.0002158 72.2745097,22.2493462 72.2745097,22.5470084 C72.2745097,22.8360428 72.1720546,23.0830162 71.9671446,23.2879286 C71.7622345,23.492841 71.515264,23.5952972 71.2262329,23.5952972 C70.932888,23.5952972 70.684839,23.492841 70.4820859,23.2879286 C70.2793328,23.0830162 70.1779562,22.8360428 70.1779562,22.5470084 C70.1779562,22.2493462 70.2793328,22.0002158 70.4820859,21.7996174 C70.684839,21.5990189 70.932888,21.4987197 71.2262329,21.4987197 Z M50.5553546,15.2736964 C50.6459464,15.2736964 50.7171257,15.2931092 50.7688924,15.3319347 C50.8034036,15.3578183 50.826411,15.3904126 50.8379148,15.4297174 L50.8465426,15.4937076 L50.8465426,16.7555367 L52.3542492,16.7555367 L52.4316971,16.759581 C52.502472,16.7676696 52.5532277,16.7878913 52.5839642,16.8202459 C52.6147007,16.8526004 52.633911,16.9080077 52.6415951,16.9864676 L52.6454372,17.0726117 L52.6454372,17.2343846 L52.6411907,17.3156755 C52.6326977,17.3908999 52.6114653,17.4479249 52.5774933,17.4867504 C52.5435214,17.5255759 52.4931702,17.5498419 52.4264396,17.5595483 L52.3542492,17.5644014 L50.9630178,17.5644014 L50.9227547,17.5705129 C50.89783,17.5786614 50.8767398,17.5949586 50.8594842,17.6194042 C50.8422287,17.6438499 50.8307249,17.6754855 50.8249731,17.714311 L50.8206592,17.7779417 L50.8206592,21.1298774 L50.8224566,21.3145781 C50.8320431,21.7858101 50.8799753,22.0866146 50.9662532,22.2169916 C51.0633158,22.3636658 51.243421,22.4370028 51.5065687,22.4370028 C51.6489272,22.4370028 51.8311893,22.4003343 52.053355,22.3269972 C52.2755206,22.2536601 52.4297424,22.2169916 52.5160203,22.2169916 C52.6152399,22.2169916 52.697204,22.2461107 52.7619124,22.304349 C52.8266208,22.3625873 52.8589751,22.4391598 52.8589751,22.5340666 C52.8589751,22.7799615 52.6680852,23.018307 52.2863054,23.2491031 C51.9045256,23.4798991 51.4720575,23.5952972 50.9889011,23.5952972 C50.7084979,23.5952972 50.4572134,23.5586286 50.2350478,23.4852916 C50.0128822,23.4119545 49.8219923,23.3019489 49.6623781,23.1552747 C49.5027639,23.0086006 49.3906027,22.8112376 49.3258942,22.5631857 C49.2683756,22.3426952 49.2364208,21.9543336 49.2300299,21.3981009 L49.2288315,21.1816447 L49.2288315,17.5644014 L48.6076305,17.5644014 L48.541911,17.561166 C48.4816513,17.5546951 48.4377709,17.5385178 48.4102698,17.5126341 C48.3858244,17.4896264 48.3695274,17.4560735 48.361379,17.4119754 L48.3552676,17.3379193 L48.3552676,17.1761464 L48.3623208,17.1283263 C48.4046401,16.9734125 48.6373964,16.715417 49.0605896,16.3543397 C49.1770648,16.255119 49.2698136,16.175311 49.3388359,16.1149158 C49.3992304,16.0631484 49.4855084,15.9876544 49.5976697,15.8884336 C50.0635704,15.4786088 50.3827987,15.2736964 50.5553546,15.2736964 Z M37.1527353,16.56788 C38.0198284,16.56788 38.7068164,16.8148534 39.2136992,17.3088002 C39.7205819,17.8027469 39.9740233,18.47033 39.9740233,19.3115493 C39.9740233,19.5876419 39.9330413,19.7699061 39.8510773,19.8583419 C39.7808224,19.9341441 39.6170704,19.9774597 39.3598214,19.9882885 L39.2234054,19.9909958 L35.8973916,19.9909958 L35.7807366,19.9926135 C35.6003918,19.9980059 35.4904474,20.0168794 35.4509033,20.049234 C35.4034505,20.0880595 35.3797241,20.1915942 35.3797241,20.3598381 C35.3797241,20.920651 35.5803202,21.4027344 35.9815126,21.8060883 C36.3827049,22.2094422 36.8701751,22.4111192 37.4439233,22.4111192 C37.6898154,22.4111192 37.9270797,22.3744506 38.1557161,22.3011135 C38.3843526,22.2277765 38.6065183,22.1156139 38.8222131,21.9646258 C38.8826076,21.9214863 38.9645717,21.8589341 39.0681052,21.7769692 C39.2924278,21.5914695 39.4671405,21.4987197 39.5922435,21.4987197 C39.6914631,21.4987197 39.7734272,21.5310743 39.8381356,21.5957835 C39.902844,21.6604926 39.9351983,21.7381437 39.9351983,21.8287365 C39.9351983,21.9365852 39.8791176,22.069239 39.7669563,22.226698 C39.654795,22.384157 39.5038087,22.5383805 39.3139972,22.6893686 C38.9214327,23.0129145 38.5439668,23.2447891 38.1815995,23.3849923 C37.8192323,23.5251956 37.4245108,23.5952972 36.9974351,23.5952972 C36.0397501,23.5952972 35.2406009,23.2685158 34.5999873,22.6149531 C33.9593738,21.9613903 33.639067,21.1514471 33.639067,20.1851233 C33.639067,19.1325206 33.9680016,18.2664961 34.6258707,17.5870497 C35.2837399,16.9076032 36.1260281,16.56788 37.1527353,16.56788 Z M29.2607904,13.6818505 C30.2400448,13.6818505 30.9885058,13.8921554 31.5061733,14.3127651 C32.0238408,14.7333747 32.2826746,15.3405626 32.2826746,16.1343285 C32.2826746,16.7253391 32.1111972,17.2365416 31.7682425,17.6679361 C31.4681571,18.0454064 31.0615555,18.3270935 30.5484378,18.5129976 L30.3220088,18.5868065 L30.3220088,18.6903412 L30.522671,18.7337888 C30.9111858,18.8336258 31.2228427,19.0111139 31.4576419,19.2662529 C31.7315743,19.5639152 31.9763879,20.0751177 32.1920827,20.7998605 C32.2395356,20.9637905 32.2999301,21.1902726 32.3732664,21.4793069 C32.5458222,22.1738522 32.763674,22.5211248 33.0268216,22.5211248 C33.0570189,22.5211248 33.1206489,22.5168108 33.2177115,22.5081829 C33.3147742,22.499555 33.3978167,22.4952411 33.466839,22.4952411 C33.548803,22.4952411 33.6242962,22.5297527 33.6933186,22.5987758 C33.7623409,22.6677989 33.7968521,22.7476069 33.7968521,22.8381998 C33.7968521,23.0495831 33.6685137,23.2221409 33.4118368,23.3558732 C33.15516,23.4896055 32.8154407,23.5564717 32.3926789,23.5564717 C31.4997024,23.5564717 30.854775,22.8727113 30.4578965,21.5051906 C30.4492687,21.4836209 30.4449549,21.4685221 30.4449549,21.4598942 C30.1257265,20.3770939 29.8054198,19.6911765 29.4840345,19.4021422 C29.1983587,19.1452228 28.7908287,19.0024898 28.2614444,18.9739432 L28.0572134,18.9685907 L27.4489541,18.9685907 L27.3749438,18.9740505 C27.3078088,18.9849702 27.2612996,19.0122694 27.2354162,19.0559481 C27.2066569,19.10448 27.1898806,19.2211662 27.1850874,19.4060068 L27.1836495,19.5250896 L27.1836495,19.7903973 C27.1836495,20.8171163 27.1998266,21.4890133 27.2321808,21.8060883 C27.264535,22.1231633 27.3238511,22.3118984 27.410129,22.3722936 C27.4662096,22.419747 27.5654293,22.4672004 27.7077878,22.5146538 C27.9838772,22.6138746 28.1219218,22.7562348 28.1219218,22.9417344 C28.1219218,23.1401759 27.9989758,23.2782222 27.7530837,23.3558732 C27.5071917,23.4335242 27.0261922,23.4723497 26.3100855,23.4723497 C25.6112343,23.4723497 25.1356273,23.4335242 24.8832644,23.3558732 C24.6309015,23.2782222 24.50472,23.1401759 24.50472,22.9417344 C24.50472,22.7605487 24.6449216,22.6160316 24.9253249,22.5081829 C25.0676834,22.4521016 25.1669031,22.4024913 25.2229837,22.3593518 C25.3178894,22.2860147 25.3858333,21.9818816 25.4268153,21.4469523 C25.4677973,20.9120231 25.4882883,19.9349145 25.4882883,18.5156264 C25.4882883,17.4802795 25.4699543,16.6347462 25.4332861,15.9790265 C25.396618,15.3233068 25.3480867,14.9544644 25.2876921,14.8724995 C25.2402393,14.8077903 25.0978807,14.7258253 24.8606164,14.6266046 C24.6233522,14.5273838 24.50472,14.3936515 24.50472,14.2254077 C24.50472,14.0614777 24.5726639,13.9406873 24.7085516,13.8630362 C24.8172618,13.8009154 24.9735974,13.7636429 25.1775584,13.7512188 L25.3394589,13.7465597 L26.8148113,13.7465597 L26.9996798,13.745661 C27.3211249,13.7426652 27.7092258,13.7321799 28.1639823,13.7142051 C28.7096902,13.6926354 29.0752929,13.6818505 29.2607904,13.6818505 Z M96.0344654,16.56788 C96.5564469,16.56788 97.0126414,16.6724932 97.403049,16.8817196 C97.7934565,17.0909459 98.0792522,17.3853727 98.2604358,17.7649999 C98.458875,18.1791387 98.5580946,19.0483987 98.5580946,20.3727799 C98.5624085,20.6618143 98.5645655,20.8818255 98.5645655,21.0328136 C98.5645655,21.1277204 98.5624085,21.2506678 98.5580946,21.4016559 C98.5537807,21.552644 98.5516238,21.6561787 98.5516238,21.71226 C98.5516238,21.9710967 98.5742717,22.1565964 98.6195676,22.268759 C98.6648635,22.3809215 98.7435921,22.4693574 98.8557534,22.5340666 C98.8902646,22.5513224 98.9485022,22.5750491 99.0304662,22.6052467 C99.2591027,22.6872117 99.373421,22.8036882 99.373421,22.9546763 C99.373421,23.1488038 99.2677305,23.2814576 99.0563496,23.3526377 C98.8449687,23.4238178 98.3898527,23.4594079 97.6910015,23.4594079 C97.048231,23.4594079 96.6179199,23.4259748 96.4000681,23.3591087 C96.1822164,23.2922425 96.0732905,23.1725305 96.0732905,22.9999727 C96.0732905,22.8274149 96.1919226,22.6936826 96.4291869,22.5987758 C96.5327204,22.5599503 96.6125275,22.5254387 96.6686082,22.4952411 C96.7807695,22.4348459 96.8594981,22.2935641 96.904794,22.0713959 C96.9500899,21.8492278 96.9727378,21.472836 96.9727378,20.9422207 C96.9727378,19.6092116 96.882146,18.7636783 96.7009624,18.4056208 C96.5197787,18.0475633 96.1919226,17.8685346 95.7173941,17.8685346 C95.1954127,17.8685346 94.8211822,18.0960952 94.5947026,18.5512165 C94.3870964,18.9684109 94.274643,19.6547552 94.2573425,20.6102491 L94.2549833,20.8775115 L94.2549833,21.2463539 L94.2560955,21.4198554 C94.2612857,21.8067624 94.2846414,22.0681605 94.3261626,22.2040498 C94.3736155,22.3593518 94.4555795,22.4693574 94.5720547,22.5340666 C94.6151936,22.5556363 94.6734312,22.579363 94.7467675,22.6052467 C94.9667762,22.6872117 95.0767805,22.8036882 95.0767805,22.9546763 C95.0767805,23.1488038 94.973247,23.2814576 94.76618,23.3526377 C94.559113,23.4238178 94.1104678,23.4594079 93.4202444,23.4594079 C92.7904156,23.4594079 92.3676538,23.4259748 92.151959,23.3591087 C91.9362642,23.2922425 91.8284168,23.1725305 91.8284168,22.9999727 C91.8284168,22.8274149 91.9427351,22.7001535 92.1713715,22.6181885 C92.2792189,22.579363 92.3654969,22.5426945 92.4302053,22.5081829 C92.525111,22.4521016 92.5930549,22.3323896 92.6340369,22.149047 C92.6750189,21.9657043 92.6955099,21.6173532 92.6955099,21.1039937 C92.6955099,19.6717638 92.6038396,18.7744631 92.420499,18.4120917 C92.2371585,18.0497203 91.9082239,17.8685346 91.4336953,17.8685346 C91.1921171,17.8685346 90.9645591,17.9407932 90.7510213,18.0853104 C90.5374834,18.2298275 90.3724769,18.4228766 90.2560017,18.6644575 C90.1524682,18.867213 90.0802104,19.1530119 90.0392284,19.5218542 C89.9982464,19.8906965 89.9777554,20.4978843 89.9777554,21.3434177 C89.9777554,21.7575564 89.9971679,22.0411983 90.035993,22.1943434 C90.0748181,22.3474885 90.1438404,22.4521016 90.24306,22.5081829 C90.2991407,22.5383805 90.3832616,22.5750491 90.4954229,22.6181885 C90.7240594,22.7001535 90.8383777,22.8274149 90.8383777,22.9999727 C90.8383777,23.1725305 90.7272948,23.2943995 90.5051292,23.3655796 C90.2829636,23.4367597 89.8763789,23.4723497 89.2853751,23.4723497 C88.5994656,23.4723497 88.147585,23.4356812 87.9297333,23.3623441 C87.7118815,23.2890071 87.6029556,23.1531178 87.6029556,22.9546763 C87.6029556,22.8036882 87.71296,22.6872117 87.9329687,22.6052467 C88.0149327,22.5750491 88.0731703,22.5513224 88.1076815,22.5340666 C88.2241567,22.4693574 88.3061207,22.3615088 88.3535736,22.2105207 C88.4010264,22.0595326 88.4247528,21.8136377 88.4247528,21.472836 C88.4247528,21.3908711 88.4225959,21.239883 88.418282,21.0198717 C88.4150466,20.8548633 88.4130244,20.7116943 88.4122156,20.5903646 L88.4118112,20.4763146 L88.4113566,19.8617378 C88.4083262,19.1529673 88.3901436,18.6848507 88.356809,18.4573882 C88.3201409,18.2071793 88.2543539,18.0540343 88.1594482,17.997953 C88.0904259,17.9634414 87.9868924,17.9246159 87.8488477,17.8814764 C87.5813862,17.7951975 87.4476554,17.676564 87.4476554,17.5255759 C87.4476554,17.4263552 87.4875589,17.3400763 87.567366,17.2667392 C87.6471731,17.1934021 87.7884532,17.1157511 87.9912063,17.0337862 C88.3406319,16.891426 88.6695664,16.7781849 88.97801,16.6940629 C89.2864536,16.609941 89.5096977,16.56788 89.6477424,16.56788 C89.7642176,16.56788 89.8526524,16.6056271 89.913047,16.6811211 C89.9583429,16.7377416 89.9890794,16.8180215 90.0052565,16.9219606 L90.0165805,17.0337862 L90.0165805,17.4673377 L90.0180184,17.5011302 C90.0199357,17.5203033 90.0237703,17.5327658 90.0295222,17.5385178 C90.03815,17.5471457 90.0510916,17.5514596 90.0683472,17.5514596 C90.076975,17.5514596 90.0888382,17.5482241 90.1039369,17.5417532 L90.1225405,17.5328557 L90.1225405,17.5328557 L90.1330557,17.5255759 L90.2883559,17.3832157 L90.3207101,17.3524789 L90.3660061,17.3120356 C90.9052431,16.8159319 91.4509509,16.56788 92.0031296,16.56788 C92.2101966,16.56788 92.4107928,16.5991561 92.6049181,16.6617084 C92.7990434,16.7242606 92.9866979,16.8180889 93.1678815,16.9431933 C93.3404374,17.0553559 93.5108363,17.2128149 93.6790782,17.4155703 C93.8473202,17.6183258 93.9508537,17.7197035 93.9896787,17.7197035 C94.0500733,17.7197035 94.1395866,17.6506804 94.2582187,17.5126341 C94.3768509,17.3745878 94.477149,17.2732101 94.559113,17.2085009 C94.848144,16.9626061 95.1015854,16.7943622 95.3194372,16.7037693 C95.5372889,16.6131765 95.7756317,16.56788 96.0344654,16.56788 Z M45.012326,16.56788 C45.3358682,16.56788 45.6475472,16.6379817 45.947363,16.7781849 C46.2471788,16.9183881 46.5006202,17.1092802 46.7076872,17.3508611 C46.9147542,17.596756 47.0614266,17.8901043 47.1477046,18.230906 C47.2243961,18.5338409 47.2670024,18.9884561 47.2755237,19.5947519 L47.2771215,19.8292228 L47.2771215,20.7416223 L47.276717,20.8322151 C47.2759082,20.9292789 47.273886,21.0457554 47.2706506,21.1816447 C47.2663367,21.3628304 47.2641798,21.4900918 47.2641798,21.5634289 C47.2641798,21.8826608 47.2868277,22.1080645 47.3321236,22.2396398 C47.3774195,22.3712152 47.4561481,22.4693574 47.5683094,22.5340666 C47.6114484,22.5556363 47.669686,22.579363 47.7430222,22.6052467 C47.9630309,22.6872117 48.0730353,22.8036882 48.0730353,22.9546763 C48.0730353,23.1488038 47.9695018,23.2814576 47.7624348,23.3526377 C47.5553677,23.4238178 47.1067226,23.4594079 46.4164992,23.4594079 C45.7866704,23.4594079 45.364987,23.4259748 45.1514492,23.3591087 C44.9379113,23.2922425 44.8311424,23.1725305 44.8311424,22.9999727 C44.8311424,22.8274149 44.9433037,22.7001535 45.1676263,22.6181885 C45.2841015,22.5750491 45.3682225,22.5383805 45.4199892,22.5081829 C45.5235227,22.4521016 45.5968589,22.3259187 45.6399979,22.1296342 C45.6831369,21.9333497 45.7047063,21.5914695 45.7047063,21.1039937 C45.7047063,19.6717638 45.6130361,18.7744631 45.4296955,18.4120917 C45.2463549,18.0497203 44.9174203,17.8685346 44.4428918,17.8685346 C44.2013136,17.8685346 43.9715986,17.9407932 43.7537469,18.0853104 C43.5358951,18.2298275 43.3687316,18.4228766 43.2522565,18.6644575 C43.1530368,18.8585851 43.0840145,19.1303636 43.0451894,19.4797932 C43.0063644,19.8292228 42.9869518,20.4504309 42.9869518,21.3434177 C42.9869518,21.7791261 43.0052859,22.069239 43.041954,22.2137561 C43.0786221,22.3582733 43.1444091,22.4564156 43.2393148,22.5081829 C43.2953954,22.5383805 43.3795164,22.5750491 43.4916777,22.6181885 C43.7203142,22.7001535 43.8346324,22.8274149 43.8346324,22.9999727 C43.8346324,23.1725305 43.7246281,23.2943995 43.5046194,23.3655796 C43.2846107,23.4367597 42.8812614,23.4723497 42.2945715,23.4723497 C41.6086621,23.4723497 41.1546245,23.4356812 40.9324589,23.3623441 C40.7102932,23.2890071 40.5992104,23.1531178 40.5992104,22.9546763 C40.5992104,22.8036882 40.7092147,22.6872117 40.9292234,22.6052467 C41.0111875,22.5750491 41.0694251,22.5513224 41.1039362,22.5340666 C41.2204114,22.4693574 41.3023754,22.3615088 41.3498283,22.2105207 C41.3972812,22.0595326 41.4210076,21.8136377 41.4210076,21.472836 C41.4210076,21.3908711 41.4188506,21.239883 41.4145367,21.0198717 C41.4113013,20.8548633 41.4092792,20.7116943 41.4084703,20.5903646 L41.4080659,19.7774555 C41.4080659,19.0699684 41.3908103,18.6083762 41.3562991,18.392679 C41.321788,18.1769817 41.2592365,18.0454064 41.1686447,17.997953 C41.0996223,17.9634414 40.9939319,17.9246159 40.8515733,17.8814764 C40.5797979,17.7951975 40.4439101,17.676564 40.4439101,17.5255759 C40.4439101,17.4263552 40.4859706,17.3368408 40.5700916,17.2570328 C40.6542126,17.1772248 40.7933357,17.0984953 40.987461,17.0208443 C41.319631,16.891426 41.6431732,16.7878913 41.9580876,16.7102402 C42.2730021,16.6325892 42.5059524,16.5937637 42.6569388,16.5937637 C42.7820418,16.5937637 42.8726336,16.6271968 42.9287143,16.6940629 C42.9707747,16.7442126 42.9970625,16.8180215 43.0075777,16.9154897 L43.0128352,17.0208443 L43.0128352,17.4673377 L43.0139137,17.4975353 C43.0153517,17.5147911 43.0182276,17.5262949 43.0225415,17.5320469 C43.0290123,17.5406747 43.0430325,17.5471457 43.064602,17.5514596 C43.0732298,17.5514596 43.085093,17.5482241 43.1001916,17.5417532 L43.1187953,17.5328557 L43.1187953,17.5328557 L43.1293104,17.5255759 L43.2846107,17.3832157 L43.3234357,17.3487042 C43.352195,17.3228205 43.3867062,17.2911849 43.4269692,17.2537974 C43.9144395,16.7965192 44.4428918,16.56788 45.012326,16.56788 Z M62.333792,13.5718449 C62.4675228,13.5718449 62.5624285,13.6139059 62.6185091,13.6980278 C62.6745898,13.7821498 62.7026301,13.9299024 62.7026301,14.1412857 C62.7026301,14.201681 62.6983162,14.3742388 62.6896884,14.6589592 C62.6551772,15.7259417 62.6321698,16.8005934 62.6206661,17.8829144 L62.6120383,19.5121478 L62.6125982,19.9085155 C62.6154604,20.8773121 62.6292939,21.5076794 62.6540988,21.7996174 C62.6821391,22.1296342 62.7328274,22.3377821 62.8061636,22.424061 C62.8493026,22.4715144 62.975484,22.5362236 63.184708,22.6181885 C63.3939319,22.7001535 63.4985439,22.8274149 63.4985439,22.9999727 C63.4985439,23.1725305 63.3863826,23.2943995 63.16206,23.3655796 C62.9377374,23.4367597 62.5322312,23.4723497 61.9455413,23.4723497 C61.2596319,23.4723497 60.8077513,23.4356812 60.5898995,23.3623441 C60.3720478,23.2890071 60.2631219,23.1531178 60.2631219,22.9546763 C60.2631219,22.81663 60.3558706,22.7066244 60.5413682,22.6246595 C60.7268657,22.5426945 60.841184,22.4801423 60.8843229,22.4370028 C60.961973,22.3636658 61.0169752,22.1900294 61.0493294,21.9160939 C61.0776394,21.6764003 61.0935637,21.3070693 61.0971025,20.8081008 L61.0971098,20.3425789 C61.0961409,20.1475371 61.0942342,19.8793546 61.0913899,19.5380315 C61.087076,19.020358 61.0849191,18.5911205 61.0849191,18.2503188 L61.084809,17.5880466 C61.0831943,16.5442512 61.0638185,15.865551 61.0266815,15.5519459 C60.9878564,15.224086 60.920991,15.0342724 60.8260853,14.9825051 C60.7268657,14.9307377 60.588821,14.8811274 60.4119513,14.833674 C60.1272342,14.756023 59.9848756,14.6373895 59.9848756,14.4777735 C59.9848756,14.3656109 60.029093,14.2717826 60.1175279,14.1962885 C60.2059628,14.1207945 60.4097943,14.0291231 60.7290227,13.9212745 C61.0396232,13.8134259 61.3405174,13.7282255 61.6317054,13.6656732 C61.9228934,13.603121 62.1569222,13.5718449 62.333792,13.5718449 Z M83.3799793,17.5126341 C82.935648,17.5126341 82.5775946,17.6948983 82.3058192,18.0594267 C82.0340437,18.4239551 81.898156,18.9081954 81.898156,19.5121478 C81.898156,20.4051345 82.086889,21.1514471 82.4643549,21.7510855 C82.8418208,22.3507239 83.3023292,22.6505431 83.8458801,22.6505431 C84.2858975,22.6505431 84.6428724,22.4650435 84.9168047,22.0940442 C85.1907371,21.7230449 85.3277033,21.233412 85.3277033,20.6251457 C85.3277033,19.7451009 85.1368134,19.0063377 84.7550336,18.4088563 C84.3732538,17.8113748 83.9149024,17.5126341 83.3799793,17.5126341 Z M56.4607504,20.1074723 C55.977594,20.1074723 55.6001281,20.2153209 55.3283527,20.4310182 C55.0565772,20.6467155 54.9206895,20.9443777 54.9206895,21.3240049 C54.9206895,21.6820624 55.0382432,21.9689397 55.2733505,22.184637 C55.5084578,22.4003343 55.8244507,22.5081829 56.2213292,22.5081829 C56.6613466,22.5081829 56.9751825,22.4111192 57.162837,22.2169916 C57.3270346,22.04713 57.4193958,21.7715767 57.4399205,21.3903318 L57.4443187,21.2204702 L57.4378478,20.2239488 L57.2631351,20.1883588 C57.1480978,20.166789 57.0359365,20.1495333 56.9266512,20.1365914 C56.7627231,20.1171787 56.6074229,20.1074723 56.4607504,20.1074723 Z M20.4834326,-1.49331512e-12 L20.4834326,14.2197677 L20.4762019,14.4744797 C20.351497,16.6800164 18.6301149,18.8288838 16.585314,20.4894092 L16.3480126,20.6788165 L16.3486836,6.54453207 L17.7007776,6.54530445 L19.0646836,2.78853207 L1.41874901,2.78853207 L2.782655,6.54530445 L4.13474901,6.54453207 L4.13542006,20.6788165 C1.98809369,18.9940975 0.136731921,16.7648447 0.00723073203,14.4744797 L1.53731452e-12,14.2197677 L1.53731452e-12,-1.49331512e-12 L20.4834326,-1.49331512e-12 Z M9.81658847,13.98139 L6.9566375,13.98139 L6.9566375,19.2486172 L9.81658847,19.2486172 L9.81658847,13.98139 Z M13.5267951,13.98139 L10.6668442,13.98139 L10.6668442,19.2486172 L13.5267951,19.2486172 L13.5267951,13.98139 Z M36.9262558,17.4285122 C36.4991801,17.4285122 36.1454406,17.5762648 35.8650374,17.8717701 C35.5846341,18.1672753 35.4444325,18.5328822 35.4444325,18.9685907 C35.4444325,19.0678114 35.4703159,19.1346776 35.5220826,19.1691891 C35.563496,19.1967984 35.6421815,19.213364 35.758139,19.2188858 L35.8520957,19.2209565 L38.039241,19.2209565 C38.2117968,19.2209565 38.326115,19.2037007 38.3821957,19.1691891 C38.4382763,19.1346776 38.4663167,19.0678114 38.4663167,18.9685907 C38.4663167,18.5328822 38.3207227,18.1672753 38.0295347,17.8717701 C37.7383467,17.5762648 37.3705871,17.4285122 36.9262558,17.4285122 Z M12.5992435,14.9109007 L12.5992435,18.3191065 L11.5943958,18.3191065 L11.5943958,14.9109007 L12.5992435,14.9109007 Z M8.8890368,14.9109007 L8.8890368,18.3191065 L7.88418916,18.3191065 L7.88418916,14.9109007 L8.8890368,14.9109007 Z M28.2836929,14.516599 C27.9342674,14.516599 27.6937677,14.5392472 27.5621938,14.5845436 C27.43062,14.6298401 27.3432636,14.7171974 27.3001246,14.8466158 C27.2699274,14.9630923 27.2472794,15.1604553 27.2321808,15.4387048 C27.2194588,15.6731558 27.2120965,16.030882 27.2100732,16.5118834 L27.2095328,16.7255743 L27.2095328,18.0497203 L27.4764551,18.0715597 L27.7336712,18.0853104 C27.9019131,18.0917813 28.0636842,18.0950167 28.2189845,18.0950167 C28.9825441,18.0950167 29.5422721,17.9504996 29.8981685,17.6614652 C30.254065,17.3724309 30.4320132,16.9194666 30.4320132,16.3025724 C30.4320132,15.7158758 30.2508295,15.2715394 29.8884623,14.9695633 C29.526095,14.6675871 28.9911719,14.516599 28.2836929,14.516599 Z M9.81658847,7.78465204 L6.9566375,7.78465204 L6.9566375,13.0518793 L9.81658847,13.0518793 L9.81658847,7.78465204 Z M13.5267951,7.78465204 L10.6668442,7.78465204 L10.6668442,13.0518793 L13.5267951,13.0518793 L13.5267951,7.78465204 Z M61.7320035,2.71778563 C61.8269092,2.77818087 61.899167,2.84612551 61.9487768,2.92161955 C61.9983866,2.9971136 62.0231915,3.0758431 62.0231915,3.15780807 C62.0231915,3.34762167 61.9520122,3.53096435 61.8096536,3.70783611 C61.667295,3.88470787 61.4645419,4.04216688 61.2013943,4.18021314 C61.3006139,4.36139885 61.3717932,4.54150607 61.4149321,4.7205348 C61.4580711,4.89956354 61.4796406,5.08398471 61.4796406,5.27379831 C61.4796406,6.02011087 61.2067866,6.62729869 60.6610788,7.09536177 C60.1153709,7.56342485 59.4003427,7.79745639 58.515994,7.79745639 C58.2614741,7.79745639 58.0220529,7.77912213 57.7977303,7.74245359 C57.5734077,7.70578505 57.3620268,7.65293922 57.1635876,7.58391609 C57.0686819,7.68313684 56.9985811,7.77696515 56.9532852,7.86540104 C56.9079892,7.95383692 56.8853413,8.03688037 56.8853413,8.11453138 C56.8853413,8.32591471 56.9910317,8.48229523 57.2024126,8.58367295 C57.4137936,8.68505067 57.7438066,8.73573953 58.1924518,8.73573953 C58.4167744,8.73573953 58.7597291,8.71093434 59.221316,8.66132397 C59.6829029,8.6117136 60.0344854,8.58690841 60.2760636,8.58690841 C60.9015785,8.58690841 61.380421,8.7141698 61.712591,8.96869258 C62.0447609,9.22321536 62.2108459,9.58774375 62.2108459,10.0622778 C62.2108459,10.7783927 61.8592634,11.3747957 61.1560984,11.8514866 C60.4529333,12.3281776 59.5577999,12.5665231 58.4706981,12.5665231 C57.6165467,12.5665231 56.9047538,12.3918083 56.3353195,12.0423787 C55.7658853,11.6929491 55.4811681,11.2701825 55.4811681,10.7740788 C55.4811681,10.5497536 55.5523474,10.3459197 55.694706,10.162577 C55.8370646,9.9792343 56.0829566,9.7818713 56.4323822,9.57048797 C56.1692346,9.47989512 55.9664814,9.34831978 55.8241229,9.17576196 C55.6817643,9.00320415 55.610585,8.80260568 55.610585,8.57396657 C55.610585,8.34532747 55.692549,8.12208079 55.8564771,7.90422654 C56.0204051,7.6863723 56.2662972,7.47822443 56.5941533,7.27978294 C56.3310057,7.05545778 56.1325664,6.79877802 55.9988357,6.50974368 C55.8651049,6.22070933 55.7982395,5.90147737 55.7982395,5.55204779 C55.7982395,4.81867706 56.0743288,4.20933227 56.6265075,3.72401341 C57.1786862,3.23869454 57.8775374,2.99603511 58.723061,2.99603511 C58.9258141,2.99603511 59.1641569,3.01652635 59.4380893,3.05750884 C59.7120217,3.09849132 60.0582118,3.16643596 60.4766597,3.26134276 C60.6405878,3.26134276 60.8206929,3.21928179 61.0169752,3.13515985 C61.2132575,3.05103792 61.4516002,2.91191318 61.7320035,2.71778563 Z M8.8890368,8.71416273 L8.8890368,12.1223686 L7.88418916,12.1223686 L7.88418916,8.71416273 L8.8890368,8.71416273 Z M12.5992435,8.71416273 L12.5992435,12.1223686 L11.5943958,12.1223686 L11.5943958,8.71416273 L12.5992435,8.71416273 Z M59.9589922,9.80991195 C59.842517,9.80991195 59.5804478,9.83148167 59.1727847,9.87462113 C58.7651215,9.91776058 58.4167744,9.93933031 58.1277433,9.93933031 C57.976757,9.93933031 57.8322415,9.93501636 57.6941968,9.92638847 C57.5561521,9.91776058 57.4181075,9.90481874 57.2800628,9.88756296 C57.1635876,9.99972554 57.0773097,10.1172806 57.021229,10.240228 C56.9651484,10.3631754 56.937108,10.4979862 56.937108,10.6446604 C56.937108,10.9595784 57.0988791,11.2130227 57.4224213,11.4049933 C57.7459635,11.5969638 58.1795101,11.6929491 58.723061,11.6929491 C59.3270064,11.6929491 59.8274184,11.5764726 60.2242968,11.3435196 C60.6211753,11.1105665 60.8196145,10.8236891 60.8196145,10.4828874 C60.8196145,10.2715041 60.7451998,10.1064957 60.5963704,9.98786219 C60.4475409,9.86922869 60.2350816,9.80991195 59.9589922,9.80991195 Z M29.2737321,0.0129418363 C29.5196242,0.0129418363 29.7935566,0.0366685363 30.0955293,0.0841219362 C30.397502,0.131575336 30.8310485,0.224325163 31.3961689,0.362371417 C31.4306801,0.349429581 31.478133,0.334330772 31.5385275,0.31707499 C31.8146168,0.239423972 31.9871727,0.200598463 32.056195,0.200598463 C32.1338451,0.200598463 32.2104168,0.224325163 32.28591,0.271778563 C32.3614032,0.319231963 32.4207192,0.383941145 32.4638582,0.465906108 C32.6062168,0.707487053 32.7237704,0.999756857 32.8165192,1.34271552 C32.909268,1.68567418 32.9556423,1.99088582 32.9556423,2.25835044 C32.9556423,2.44816404 32.9211312,2.59052424 32.8521088,2.68543104 C32.7830865,2.78033784 32.677396,2.82779124 32.5350375,2.82779124 C32.3365983,2.82779124 32.0691367,2.62719278 31.7326528,2.22599585 C31.5557831,2.01461252 31.4112676,1.85283957 31.2991063,1.74067699 C31.061842,1.49046815 30.7631047,1.29957607 30.4028944,1.16800073 C30.042684,1.03642539 29.649041,0.970637725 29.2219653,0.970637725 C28.3376166,0.970637725 27.6430794,1.27045693 27.1383535,1.87009535 C26.6336277,2.46973377 26.3812648,3.29154038 26.3812648,4.33551517 C26.3812648,5.67715221 26.70265,6.77505132 27.3454206,7.62921252 C27.9881911,8.48337372 28.8035174,8.91045432 29.7913996,8.91045432 C30.188278,8.91045432 30.56143,8.84574514 30.9108556,8.71632677 C31.2602812,8.58690841 31.5493122,8.40787967 31.7779487,8.17924057 C31.8642266,8.09296166 31.9699171,7.96785724 32.0950201,7.80392731 C32.2934593,7.54077664 32.4617012,7.4092013 32.5997459,7.4092013 C32.720535,7.4092013 32.8165192,7.47067503 32.8876985,7.59362247 C32.9588778,7.71656992 32.9944674,7.88157833 32.9944674,8.08864771 C32.9944674,8.50710042 32.9351513,8.83711725 32.8165192,9.07869819 C32.6978871,9.32027914 32.5371944,9.44106961 32.3344413,9.44106961 C32.3171857,9.44106961 32.2966947,9.43891264 32.2729683,9.43459869 C32.2492419,9.43028475 32.2158092,9.42381383 32.1726702,9.41518594 C31.7585362,9.6395111 31.3411668,9.805598 30.9205619,9.91344664 C30.499957,10.0212953 30.0610181,10.0752196 29.6037451,10.0752196 C28.9307773,10.0752196 28.2944777,9.96521398 27.6948461,9.74520276 C27.0952146,9.52519155 26.5646054,9.21027353 26.1030185,8.80044871 C25.585351,8.32591471 25.189551,7.75539543 24.9156186,7.08889085 C24.6416862,6.42238628 24.50472,5.69440799 24.50472,4.90495597 C24.50472,4.27080599 24.5953118,3.68410941 24.7764955,3.14486623 C24.9576791,2.60562305 25.2294545,2.11814721 25.5918218,1.68243872 C26.0318392,1.14319554 26.5667623,0.730135267 27.1965911,0.443257895 C27.82642,0.156380522 28.5188003,0.0129418363 29.2737321,0.0129418363 Z M51.9246887,2.99603511 C52.7917818,2.99603511 53.4787698,3.24300849 53.9856525,3.73695524 C54.4925353,4.230902 54.7459767,4.89848505 54.7459767,5.73970442 C54.7459767,6.01579692 54.7049947,6.19806112 54.6230307,6.286497 C54.5527758,6.36229919 54.3890238,6.40561472 54.1317748,6.4164436 L53.9953588,6.41915082 L50.669345,6.41915082 L50.55269,6.42076855 C50.3723452,6.42616099 50.2624008,6.4450345 50.2228567,6.47738909 C50.1754039,6.5162146 50.1516774,6.61974929 50.1516774,6.78799316 C50.1516774,7.34880607 50.3522736,7.83088947 50.7534659,8.23424337 C51.1546583,8.63759727 51.6421285,8.83927422 52.2158767,8.83927422 C52.4617688,8.83927422 52.699033,8.80260568 52.9276695,8.72926861 C53.156306,8.65593154 53.3784717,8.54376896 53.5941665,8.39278087 C53.654561,8.34964141 53.736525,8.2870892 53.8400585,8.20512424 C54.0643811,8.01962458 54.2390939,7.92687476 54.3641969,7.92687476 C54.4634165,7.92687476 54.5453806,7.95922935 54.610089,8.02393853 C54.6747974,8.08864771 54.7071517,8.16629873 54.7071517,8.25689158 C54.7071517,8.36474022 54.651071,8.49739404 54.5389097,8.65485305 C54.4267484,8.81231206 54.275762,8.96653561 54.0859506,9.1175237 C53.6933861,9.44106961 53.3159202,9.67294418 52.9535529,9.8131474 C52.5911856,9.95335063 52.1964642,10.0234522 51.7693885,10.0234522 C50.8117035,10.0234522 50.0125543,9.69667088 49.3719407,9.04310814 C48.7313272,8.38954541 48.4110204,7.57960215 48.4110204,6.61327837 C48.4110204,5.56067568 48.739955,4.69465113 49.3978241,4.01520472 C50.0556933,3.33575832 50.8979815,2.99603511 51.9246887,2.99603511 Z M37.0944977,2.99603511 C38.0651243,2.99603511 38.8599597,3.31095313 39.4790038,3.94078917 C40.0980478,4.5706252 40.4075699,5.377333 40.4075699,6.36091256 C40.4075699,7.40488736 40.0753999,8.27630434 39.4110599,8.9751635 C38.7467199,9.67402266 37.9227658,10.0234522 36.9391975,10.0234522 C35.9685709,10.0234522 35.1640293,9.69343542 34.5255726,9.03340176 C33.887116,8.37336811 33.5678877,7.54077664 33.5678877,6.53562735 C33.5678877,5.52185017 33.9032931,4.67847384 34.574104,4.00549835 C35.2449148,3.33252286 36.0850461,2.99603511 37.0944977,2.99603511 Z M65.948509,2.99603511 C66.8156021,2.99603511 67.50259,3.24300849 68.0094728,3.73695524 C68.5163556,4.230902 68.769797,4.89848505 68.769797,5.73970442 C68.769797,6.01579692 68.728815,6.19806112 68.646851,6.286497 C68.5765961,6.36229919 68.4128441,6.40561472 68.155595,6.4164436 L68.0191791,6.41915082 L64.6931653,6.41915082 L64.5765103,6.42076855 C64.3961655,6.42616099 64.2862211,6.4450345 64.246677,6.47738909 C64.1992242,6.5162146 64.1754977,6.61974929 64.1754977,6.78799316 C64.1754977,7.34880607 64.3760939,7.83088947 64.7772862,8.23424337 C65.1784786,8.63759727 65.6659488,8.83927422 66.239697,8.83927422 C66.4855891,8.83927422 66.7228533,8.80260568 66.9514898,8.72926861 C67.1801263,8.65593154 67.402292,8.54376896 67.6179868,8.39278087 C67.6783813,8.34964141 67.7603453,8.2870892 67.8638788,8.20512424 C68.0882014,8.01962458 68.2629142,7.92687476 68.3880172,7.92687476 C68.4872368,7.92687476 68.5692008,7.95922935 68.6339093,8.02393853 C68.6986177,8.08864771 68.7309719,8.16629873 68.7309719,8.25689158 C68.7309719,8.36474022 68.6748913,8.49739404 68.56273,8.65485305 C68.4505687,8.81231206 68.2995823,8.96653561 68.1097709,9.1175237 C67.7172064,9.44106961 67.3397405,9.67294418 66.9773732,9.8131474 C66.6150059,9.95335063 66.2202844,10.0234522 65.7932087,10.0234522 C64.8355238,10.0234522 64.0363746,9.69667088 63.395761,9.04310814 C62.7551475,8.38954541 62.4348407,7.57960215 62.4348407,6.61327837 C62.4348407,5.56067568 62.7637753,4.69465113 63.4216444,4.01520472 C64.0795135,3.33575832 64.9218017,2.99603511 65.948509,2.99603511 Z M46.7181441,-1.93296344e-12 C46.8518748,-1.93296344e-12 46.9467805,0.0420609681 47.0028612,0.126182904 C47.0589418,0.210304841 47.0869822,0.358057472 47.0869822,0.569440799 C47.0869822,0.629836035 47.0826683,0.802393853 47.0740405,1.08711425 C47.0222737,2.68758801 46.9963904,4.30531756 46.9963904,5.94030288 C46.9963904,7.13526577 47.0104105,7.89775563 47.0384508,8.22777245 C47.0664912,8.55778928 47.1171794,8.76593715 47.1905157,8.85221606 C47.2336546,8.89966946 47.3598361,8.96437864 47.5690601,9.0463436 C47.778284,9.12830856 47.882896,9.25556996 47.882896,9.42812777 C47.882896,9.60068559 47.7707347,9.72255455 47.5464121,9.79373465 C47.3220895,9.86491475 46.9165833,9.9005048 46.3298934,9.9005048 C45.6439839,9.9005048 45.1921033,9.86383626 44.9742516,9.79049919 C44.7563998,9.71716212 44.647474,9.58127284 44.647474,9.38283135 C44.647474,9.24478509 44.7402227,9.13477948 44.9257203,9.05281452 C45.1112178,8.97084956 45.225536,8.90829735 45.268675,8.86515789 C45.3463251,8.79182082 45.4013273,8.61818452 45.4336815,8.34424898 C45.4609429,8.11343293 45.4767192,7.76240439 45.4810104,7.29116336 L45.4821463,7.08184297 L45.4818346,6.85356581 C45.4810439,6.65450127 45.479013,6.35870818 45.475742,5.96618655 C45.4726969,5.60077 45.4707265,5.27941838 45.4698309,5.0021317 L45.4693607,4.80242886 L45.4689266,3.90805168 C45.4661697,2.92539107 45.4468721,2.28274083 45.4110336,1.98010096 C45.3722085,1.65224111 45.3053431,1.46242751 45.2104374,1.41066016 C45.1112178,1.35889282 44.9731731,1.30928244 44.7963034,1.26182904 C44.5115862,1.18417803 44.3692277,1.06554453 44.3692277,0.905928544 C44.3692277,0.793765962 44.4134451,0.699937649 44.50188,0.624443603 C44.5903148,0.548949558 44.7941464,0.457278217 45.1133747,0.349429581 C45.4239752,0.241580945 45.7248695,0.156380522 46.0160575,0.0938283135 C46.3072455,0.0312761045 46.5412743,-1.93296344e-12 46.7181441,-1.93296344e-12 Z M43.0451894,-1.93296344e-12 C43.1789202,-1.93296344e-12 43.2738259,0.0420609681 43.3299066,0.126182904 C43.3859872,0.210304841 43.4140276,0.358057472 43.4140276,0.569440799 C43.4140276,0.629836035 43.4097137,0.802393853 43.4010859,1.08711425 C43.3665747,2.15409676 43.3435673,3.2287485 43.3320635,4.31106948 L43.3234357,5.94030288 L43.3235088,6.08742078 C43.3246284,7.19805577 43.3386242,7.91150633 43.3654962,8.22777245 C43.3935365,8.55778928 43.4442248,8.76593715 43.5175611,8.85221606 C43.5607,8.89966946 43.6868815,8.96437864 43.8961054,9.0463436 C44.1053294,9.12830856 44.2099414,9.25556996 44.2099414,9.42812777 C44.2099414,9.60068559 44.0977801,9.72255455 43.8734575,9.79373465 C43.6491349,9.86491475 43.2436287,9.9005048 42.6569388,9.9005048 C41.9710293,9.9005048 41.5191487,9.86383626 41.301297,9.79049919 C41.0834452,9.71716212 40.9745193,9.58127284 40.9745193,9.38283135 C40.9745193,9.24478509 41.0672681,9.13477948 41.2527656,9.05281452 C41.4382632,8.97084956 41.5525814,8.90829735 41.5957204,8.86515789 C41.6733705,8.79182082 41.7283727,8.61818452 41.7607269,8.34424898 C41.7890368,8.10455539 41.8049612,7.73522436 41.8084999,7.23625591 L41.8092582,7.0144753 L41.8089761,6.87898219 C41.8082635,6.68003955 41.8062006,6.37577434 41.8027874,5.96618655 C41.7987273,5.47896448 41.7965778,5.07008007 41.7963389,4.73953333 L41.7959719,3.90805168 C41.7932151,2.92539107 41.7739175,2.28274083 41.7380789,1.98010096 C41.6992539,1.65224111 41.6323885,1.46242751 41.5374828,1.41066016 C41.4382632,1.35889282 41.3002185,1.30928244 41.1233488,1.26182904 C40.8386316,1.18417803 40.6962731,1.06554453 40.6962731,0.905928544 C40.6962731,0.793765962 40.7404905,0.699937649 40.8289254,0.624443603 C40.9173602,0.548949558 41.1211918,0.457278217 41.4404201,0.349429581 C41.7510206,0.241580945 42.0519149,0.156380522 42.3431029,0.0938283135 C42.6342908,0.0312761045 42.8683197,-1.93296344e-12 43.0451894,-1.93296344e-12 Z M36.7644847,3.94078917 C36.3201534,3.94078917 35.9621,4.12305336 35.6903246,4.48758175 C35.4185491,4.85211014 35.2826614,5.33635052 35.2826614,5.94030288 C35.2826614,6.83328959 35.4713943,7.57960215 35.8488602,8.17924057 C36.2263262,8.77887898 36.6868346,9.07869819 37.2303855,9.07869819 C37.6704028,9.07869819 38.0273777,8.89319854 38.3013101,8.52219923 C38.5752425,8.15119992 38.7122087,7.66156711 38.7122087,7.0533008 C38.7122087,6.17325593 38.5213188,5.43449278 38.139539,4.83701133 C37.7577592,4.23952989 37.2994078,3.94078917 36.7644847,3.94078917 Z M58.6195275,3.84372539 C58.265788,3.84372539 57.9692077,3.98932105 57.7297864,4.28051237 C57.4903652,4.57170369 57.3706546,4.93946754 57.3706546,5.38380392 C57.3706546,5.84539608 57.4849728,6.21639539 57.7136093,6.49680184 C57.9422458,6.7772083 58.2399046,6.91741152 58.6065858,6.91741152 C58.9905226,6.91741152 59.3075939,6.77612981 59.5577999,6.49356638 C59.8080059,6.21100296 59.9331088,5.84539608 59.9331088,5.39674575 C59.9331088,4.93515359 59.8112413,4.56091882 59.5675061,4.27404145 C59.323771,3.98716408 59.0077781,3.84372539 58.6195275,3.84372539 Z M51.6982092,3.85666723 C51.2711335,3.85666723 50.917394,4.00441986 50.6369907,4.29992512 C50.3565875,4.59543039 50.2163859,4.96103726 50.2163859,5.39674575 C50.2163859,5.4959665 50.2422693,5.56283265 50.294036,5.59734422 C50.3354494,5.62495347 50.4141349,5.64151902 50.5300924,5.64704087 L50.6240491,5.64911156 L52.8111943,5.64911156 C52.9837502,5.64911156 53.0980684,5.63185578 53.1541491,5.59734422 C53.2102297,5.56283265 53.2382701,5.4959665 53.2382701,5.39674575 C53.2382701,4.96103726 53.0926761,4.59543039 52.8014881,4.29992512 C52.5103001,4.00441986 52.1425405,3.85666723 51.6982092,3.85666723 Z M65.7220295,3.85666723 C65.2949537,3.85666723 64.9412143,4.00441986 64.660811,4.29992512 C64.3804078,4.59543039 64.2402062,4.96103726 64.2402062,5.39674575 C64.2402062,5.4959665 64.2660895,5.56283265 64.3178563,5.59734422 C64.3592697,5.62495347 64.4379552,5.64151902 64.5539127,5.64704087 L64.6478693,5.64911156 L66.8350146,5.64911156 C67.0075705,5.64911156 67.1218887,5.63185578 67.1779694,5.59734422 C67.23405,5.56283265 67.2620903,5.4959665 67.2620903,5.39674575 C67.2620903,4.96103726 67.1164963,4.59543039 66.8253084,4.29992512 C66.5341204,4.00441986 66.1663607,3.85666723 65.7220295,3.85666723 Z M17.1399248,4.10533889 L16.633665,5.22849764 L3.84976767,5.22849764 L3.34350781,4.10533889 L17.1399248,4.10533889 Z" id="Combined-Shape" fill="#BABABA"></path>
            <g id="Group-3" transform="translate(24.504720, 0.000000)"></g>
        </g>
    </g>
</svg>