<?xml version="1.0" encoding="UTF-8"?>
<svg width="167px" height="40px" viewBox="0 0 167 40" version="1.1" xmlns="http://www.w3.org/2000/svg" xmlns:xlink="http://www.w3.org/1999/xlink">
    <title>college_rentals_color</title>
    <g id="Page-1" stroke="none" stroke-width="1" fill="none" fill-rule="evenodd">
        <g id="college_rentals_color">
            <path d="M8.97176788,36.0229499 L8.97131084,10.9298486 L17.1036662,10.9306584 L25.2360217,10.9298486 L25.2355646,36.0229499 C22.0444742,38.1358603 18.8195497,39.4538559 17.1036662,39.4538559 L17.1036662,39.4538559 C15.3877828,39.4538559 12.1628583,38.1358603 8.97176788,36.0229499 Z M2.36931084,4.65684856 L4.64703385,10.9306584 L6.90531084,10.9298486 L6.90651124,34.5339057 C3.282865,31.6910042 0.163811281,27.9195455 0.0062422189,24.0524894 L1.88151716e-13,23.7470121 L1.88151716e-13,0 L34.2073325,0 L34.2073325,23.7470121 L34.2010903,24.0524894 C34.0435212,27.9195455 30.9244675,31.6910042 27.3008213,34.5339057 L27.3008213,34.5339057 L27.3020217,10.9298486 L29.5602986,10.9306584 L31.8380217,4.65684856 L2.36931084,4.65684856 Z M16.3937027,23.3489213 L11.6175846,23.3489213 L11.6175846,32.1451908 L16.3937027,32.1451908 L16.3937027,23.3489213 Z M22.5897479,23.3489213 L17.8136297,23.3489213 L17.8136297,32.1451908 L22.5897479,32.1451908 L22.5897479,23.3489213 Z M14.8446915,24.9012041 L14.8446915,30.5929079 L13.1665959,30.5929079 L13.1665959,24.9012041 L14.8446915,24.9012041 Z M21.0407366,24.9012041 L21.0407366,30.5929079 L19.362641,30.5929079 L19.362641,24.9012041 L21.0407366,24.9012041 Z M16.3937027,13.0003689 L11.6175846,13.0003689 L11.6175846,21.7966384 L16.3937027,21.7966384 L16.3937027,13.0003689 Z M22.5897479,13.0003689 L17.8136297,13.0003689 L17.8136297,21.7966384 L22.5897479,21.7966384 L22.5897479,13.0003689 Z M14.8446915,14.5526518 L14.8446915,20.2443556 L13.1665959,20.2443556 L13.1665959,14.5526518 L14.8446915,14.5526518 Z M21.0407366,14.5526518 L21.0407366,20.2443556 L19.362641,20.2443556 L19.362641,14.5526518 L21.0407366,14.5526518 Z M6.429112,8.73159106 L5.58365804,6.85591594 L28.6236744,6.85591594 L27.7782205,8.73159106 L6.429112,8.73159106 Z" id="Combined-Shape" fill="#1B72FF"></path>
            <g id="Group-3" transform="translate(40.922882, 0.000000)" fill="#242424" fill-rule="nonzero">
                <path d="M62.1695634,4.538702 C62.3280559,4.63956205 62.4487264,4.7530296 62.5315748,4.87910465 C62.6144231,5.00517971 62.6558473,5.13665798 62.6558473,5.27353947 C62.6558473,5.59052818 62.5369779,5.89671046 62.2992391,6.19208631 C62.0615003,6.48746215 61.7229026,6.7504187 61.283446,6.98095594 C61.4491428,7.28353607 61.5680122,7.58431513 61.6400542,7.88329312 C61.7120963,8.18227111 61.7481173,8.49025446 61.7481173,8.80724317 C61.7481173,10.0535852 61.2924513,11.0675888 60.3811192,11.8492542 C59.4697871,12.6309195 58.2756898,13.0217522 56.7988275,13.0217522 C56.3737794,13.0217522 55.9739459,12.991134 55.5993272,12.9298975 C55.2247084,12.868661 54.8717023,12.7804085 54.5403088,12.6651399 C54.3818163,12.8308385 54.2647479,12.9875318 54.1891038,13.1352197 C54.1134596,13.2829077 54.0756375,13.4215902 54.0756375,13.5512674 C54.0756375,13.9042776 54.2521406,14.165433 54.6051467,14.3347338 C54.9581528,14.5040346 55.5092746,14.588685 56.2585121,14.588685 C56.6331308,14.588685 57.2058652,14.5472604 57.9767153,14.464411 C58.7475654,14.3815617 59.3347082,14.340137 59.7381437,14.340137 C60.7827537,14.340137 61.5824206,14.5526636 62.1371445,14.9777166 C62.6918683,15.4027697 62.9692303,16.0115321 62.9692303,16.8040038 C62.9692303,17.9999158 62.3820875,18.9959087 61.2078018,19.7919827 C60.0335162,20.5880566 58.5386434,20.9860936 56.7231834,20.9860936 C55.2967505,20.9860936 54.1080565,20.6943199 53.1571012,20.1107725 C52.206146,19.5272251 51.7306684,18.8212047 51.7306684,17.9927115 C51.7306684,17.6180885 51.8495378,17.2776858 52.0872766,16.9715036 C52.3250154,16.6653213 52.7356551,16.3357251 53.3191959,15.9827149 C52.8797393,15.8314248 52.5411416,15.611694 52.3034028,15.3235225 C52.065664,15.0353509 51.9467945,14.7003515 51.9467945,14.3185242 C51.9467945,13.9366969 52.0836745,13.5638749 52.3574343,13.2000583 C52.6311942,12.8362417 53.0418339,12.4886348 53.5893536,12.1572375 C53.149897,11.7826145 52.8185035,11.3539593 52.5951731,10.8712719 C52.3718427,10.3885846 52.2601775,9.85546721 52.2601775,9.27191981 C52.2601775,8.0471907 52.7212467,7.02958489 53.6433851,6.21910239 C54.5655236,5.40861989 55.732605,5.00337864 57.1446294,5.00337864 C57.4832271,5.00337864 57.8812595,5.03759901 58.3387266,5.10603975 C58.7961938,5.1744805 59.3743313,5.28794805 60.0731393,5.4464424 C60.3468992,5.4464424 60.6476748,5.37620059 60.9754662,5.23571695 C61.3032576,5.09523332 61.70129,4.862895 62.1695634,4.538702 Z M59.2086346,16.3825529 C59.014121,16.3825529 58.5764655,16.4185744 57.895668,16.4906173 C57.2148705,16.5626602 56.6331308,16.5986816 56.150449,16.5986816 C55.8983017,16.5986816 55.6569608,16.5914773 55.4264262,16.5770687 C55.1958916,16.5626602 54.965357,16.5410473 54.7348224,16.5122301 C54.5403088,16.6995417 54.3962247,16.8958585 54.30257,17.1011808 C54.2089153,17.306503 54.162088,17.531637 54.162088,17.7765828 C54.162088,18.3024959 54.4322457,18.7257479 54.9725612,19.0463388 C55.5128767,19.3669296 56.2368994,19.5272251 57.1446294,19.5272251 C58.1532183,19.5272251 58.9889063,19.3327093 59.6516933,18.9436777 C60.3144802,18.5546461 60.6458737,18.0755608 60.6458737,17.506422 C60.6458737,17.1534119 60.5216012,16.8778478 60.2730561,16.6797299 C60.0245109,16.4816119 59.6697038,16.3825529 59.2086346,16.3825529 Z M7.96425014,0.0216128667 C8.37488991,0.0216128667 8.83235701,0.0612364556 9.33665146,0.140483633 C9.8409459,0.219730811 10.5649686,0.374623023 11.5087197,0.605160267 C11.5663533,0.583547401 11.6455996,0.558332389 11.7464585,0.529515234 C12.2075277,0.399838034 12.495696,0.334999434 12.6109633,0.334999434 C12.740639,0.334999434 12.8685136,0.374623023 12.9945872,0.4538702 C13.1206609,0.533117378 13.2197187,0.641181712 13.2917608,0.778063201 C13.5294996,1.18150338 13.7258142,1.66959395 13.8807046,2.24233492 C14.0355951,2.81507589 14.1130403,3.32477933 14.1130403,3.77144524 C14.1130403,4.08843395 14.0554066,4.32617548 13.9401393,4.48466984 C13.824872,4.64316419 13.648369,4.72241137 13.4106302,4.72241137 C13.0792367,4.72241137 12.6325759,4.38741194 12.0706478,3.71741307 C11.7752753,3.36440291 11.5339344,3.09424208 11.346625,2.90693057 C10.9503937,2.48908181 10.4515024,2.17029203 9.84995116,1.95056122 C9.24839993,1.73083041 8.5910161,1.620965 7.87779967,1.620965 C6.40093736,1.620965 5.24106014,2.12166308 4.39816799,3.12305924 C3.55527584,4.12445539 3.13382977,5.49687243 3.13382977,7.24031034 C3.13382977,9.48084419 3.67054315,11.3143357 4.7439699,12.7407849 C5.81739665,14.1672341 7.17899165,14.8804587 8.82875491,14.8804587 C9.49154189,14.8804587 10.1147057,14.7723944 10.6982465,14.5562657 C11.2817872,14.340137 11.764469,14.0411591 12.1462919,13.6593317 C12.2903761,13.515246 12.4668791,13.3063216 12.6758011,13.0325586 C13.0071946,12.593097 13.2881587,12.3733662 13.5186933,12.3733662 C13.720411,12.3733662 13.8807046,12.4760273 13.999574,12.6813495 C14.1184434,12.8866718 14.1778781,13.1622358 14.1778781,13.5080417 C14.1778781,14.2068577 14.0788203,14.7579858 13.8807046,15.161426 C13.682589,15.5648662 13.4142323,15.7665862 13.0756346,15.7665862 C13.0468177,15.7665862 13.0125978,15.7629841 12.9729746,15.7557798 C12.9333515,15.7485755 12.8775189,15.7377691 12.8054768,15.7233605 C12.113873,16.0979835 11.416866,16.3753487 10.7144559,16.5554559 C10.0120458,16.7355631 9.27901781,16.8256167 8.51537193,16.8256167 C7.39151574,16.8256167 6.3288953,16.6419073 5.32751061,16.2744886 C4.32612593,15.9070699 3.44000854,15.3811568 2.66915846,14.6967493 C1.8046537,13.9042776 1.14366776,12.9515104 0.686200657,11.8384477 C0.228733552,10.7253851 -1.83320026e-14,9.50966134 -1.83320026e-14,8.19127647 C-1.83320026e-14,7.13224601 0.151288334,6.15246272 0.453865001,5.2519266 C0.756441669,4.35139049 1.21030667,3.53730585 1.81546001,2.80967267 C2.55028906,1.90913656 3.44361065,1.2193259 4.49542478,0.740240684 C5.54723891,0.261155472 6.70351403,0.0216128667 7.96425014,0.0216128667 Z M21.0249288,5.00337864 C22.6458752,5.00337864 23.9732502,5.52929173 25.0070538,6.58111791 C26.0408575,7.63294408 26.5577593,8.98014611 26.5577593,10.622724 C26.5577593,12.3661619 26.0030354,13.8214282 24.8935876,14.988523 C23.7841398,16.1556178 22.4081364,16.7391652 20.7655773,16.7391652 C19.1446309,16.7391652 17.8010464,16.1880371 16.7348239,15.0857809 C15.6686013,13.9835247 15.1354901,12.593097 15.1354901,10.9144977 C15.1354901,9.22148979 15.6956171,7.81305131 16.8158712,6.68918224 C17.9361253,5.56531317 19.3391445,5.00337864 21.0249288,5.00337864 Z M45.7913477,5.00337864 C47.2393932,5.00337864 48.3866631,5.41582418 49.2331573,6.24071526 C50.0796516,7.06560633 50.5028987,8.18047004 50.5028987,9.58530638 C50.5028987,10.0463809 50.4344587,10.3507621 50.2975788,10.49845 C50.1759078,10.6297281 49.8863165,10.7026605 49.4288049,10.7172469 L49.2493668,10.7199819 L43.6949237,10.7199819 L43.5461681,10.7215015 C43.2175887,10.7285933 43.0186288,10.760506 42.9492883,10.8172398 C42.870042,10.8820784 42.8304189,11.0549813 42.8304189,11.3359486 C42.8304189,12.2725061 43.1654145,13.0775854 43.8354057,13.7511864 C44.5053969,14.4247874 45.3194722,14.7615879 46.2776317,14.7615879 C46.6882714,14.7615879 47.0845028,14.7003515 47.4663257,14.5778786 C47.8481486,14.4554057 48.2191653,14.2680942 48.5793756,14.015944 C48.6802345,13.9439012 48.8171144,13.839439 48.9900154,13.7025575 C49.3646341,13.3927731 49.6564044,13.2378808 49.8653264,13.2378808 C50.0310232,13.2378808 50.1679031,13.291913 50.2759662,13.3999773 C50.3840293,13.5080417 50.4380608,13.6377189 50.4380608,13.7890089 C50.4380608,13.9691162 50.3444061,14.1906481 50.1570968,14.4536046 C49.9697874,14.7165611 49.7176402,14.9741145 49.4006551,15.2262646 C48.7450723,15.7665862 48.1147043,16.1538168 47.5095509,16.3879562 C46.9043976,16.6220956 46.2452127,16.7391652 45.5319963,16.7391652 C43.9326625,16.7391652 42.5980832,16.1934404 41.5282586,15.1019906 C40.458434,14.0105408 39.9235216,12.6579356 39.9235216,11.0441749 C39.9235216,9.28632839 40.4728424,7.84006739 41.5714838,6.70539189 C42.6701253,5.57071639 44.0767466,5.00337864 45.7913477,5.00337864 Z M69.2111276,5.00337864 C70.6591731,5.00337864 71.8064429,5.41582418 72.6529372,6.24071526 C73.4994314,7.06560633 73.9226786,8.18047004 73.9226786,9.58530638 C73.9226786,10.0463809 73.8542386,10.3507621 73.7173587,10.49845 C73.5956876,10.6297281 73.3060963,10.7026605 72.8485848,10.7172469 L72.6691467,10.7199819 L67.1147035,10.7199819 L66.9659479,10.7215015 C66.6373686,10.7285933 66.4384087,10.760506 66.3690682,10.8172398 C66.2898219,10.8820784 66.2501988,11.0549813 66.2501988,11.3359486 C66.2501988,12.2725061 66.5851944,13.0775854 67.2551856,13.7511864 C67.9251768,14.4247874 68.7392521,14.7615879 69.6974115,14.7615879 C70.1080513,14.7615879 70.5042826,14.7003515 70.8861056,14.5778786 C71.2679285,14.4554057 71.6389451,14.2680942 71.9991555,14.015944 C72.1000144,13.9439012 72.2368943,13.839439 72.4097952,13.7025575 C72.784414,13.3927731 73.0761843,13.2378808 73.2851063,13.2378808 C73.450803,13.2378808 73.587683,13.291913 73.6957461,13.3999773 C73.8038092,13.5080417 73.8578407,13.6377189 73.8578407,13.7890089 C73.8578407,13.9691162 73.764186,14.1906481 73.5768767,14.4536046 C73.3895673,14.7165611 73.1374201,14.9741145 72.820435,15.2262646 C72.1648522,15.7665862 71.5344842,16.1538168 70.9293308,16.3879562 C70.3241775,16.6220956 69.6649926,16.7391652 68.9517762,16.7391652 C67.3524424,16.7391652 66.0178631,16.1934404 64.9480385,15.1019906 C63.8782138,14.0105408 63.3433015,12.6579356 63.3433015,11.0441749 C63.3433015,9.28632839 63.8926222,7.84006739 64.9912637,6.70539189 C66.0899052,5.57071639 67.4965265,5.00337864 69.2111276,5.00337864 Z M30.9625839,3.44494653e-14 C31.1859143,3.44494653e-14 31.3444069,0.0702418167 31.4380616,0.21072545 C31.5317162,0.351209084 31.5785436,0.597955978 31.5785436,0.950966134 C31.5785436,1.05182618 31.5713394,1.33999773 31.556931,1.8154808 C31.4704805,4.48827198 31.4272553,7.18988032 31.4272553,9.92030581 L31.4272553,9.92030581 L31.4279304,10.4864179 C31.4320712,12.15863 31.4552598,13.2432841 31.4974963,13.74038 C31.5443236,14.2915081 31.628973,14.639115 31.7514445,14.7832008 C31.8234866,14.862448 32.0342096,14.9705123 32.3836137,15.1073938 C32.7330177,15.2442753 32.9077197,15.4568018 32.9077197,15.7449734 C32.9077197,16.0331449 32.7204103,16.2366661 32.3457916,16.3555369 C31.9711728,16.4744076 31.2939774,16.533843 30.3142054,16.533843 C29.1687366,16.533843 28.4140959,16.4726066 28.0502835,16.3501336 C27.6864711,16.2276607 27.5045649,16.0007256 27.5045649,15.6693283 C27.5045649,15.4387911 27.6594553,15.2550817 27.9692362,15.1182002 C28.2790171,14.9813188 28.4699285,14.8768566 28.5419706,14.8048137 C28.6716463,14.6823408 28.7635,14.3923681 28.8175315,13.9348958 C28.871563,13.4774235 28.8985788,12.7371828 28.8985788,11.7141737 L28.8985788,11.7141737 L28.8982307,11.5240914 C28.8971697,11.1930635 28.8936837,10.6728769 28.8877725,9.96353154 C28.8809921,9.14987068 28.8774024,8.46703372 28.8770036,7.91502066 L28.8770036,7.91502066 L28.8769662,6.94853664 C28.8769662,5.06821724 28.8445473,3.85429456 28.7797094,3.3067686 C28.7148716,2.75924265 28.6032064,2.44225394 28.4447138,2.35580247 C28.2790171,2.269351 28.0484825,2.18650168 27.75311,2.1072545 C27.2776324,1.9775773 27.0398936,1.77945936 27.0398936,1.51290067 C27.0398936,1.32558916 27.1137367,1.16889587 27.2614229,1.04282082 C27.4091092,0.916745762 27.7495079,0.763654623 28.2826192,0.583547401 C28.801322,0.403440178 29.3038154,0.261155472 29.7900994,0.156693283 C30.2763833,0.0522310945 30.6672115,3.44494653e-14 30.9625839,3.44494653e-14 Z M37.0964182,3.44494653e-14 C37.3197485,3.44494653e-14 37.4782411,0.0702418167 37.5718958,0.21072545 C37.6655505,0.351209084 37.7123778,0.597955978 37.7123778,0.950966134 C37.7123778,1.05182618 37.7051736,1.33999773 37.6907652,1.8154808 C37.6043147,4.48827198 37.5610895,7.18988032 37.5610895,9.92030581 C37.5610895,11.9158938 37.5845031,13.1892519 37.6313305,13.74038 C37.6781578,14.2915081 37.7628072,14.639115 37.8852787,14.7832008 C37.9573208,14.862448 38.1680438,14.9705123 38.5174479,15.1073938 C38.8668519,15.2442753 39.0415539,15.4568018 39.0415539,15.7449734 C39.0415539,16.0331449 38.8542445,16.2366661 38.4796258,16.3555369 C38.105007,16.4744076 37.4278116,16.533843 36.4480396,16.533843 C35.3025708,16.533843 34.5479301,16.4726066 34.1841177,16.3501336 C33.8203053,16.2276607 33.6383991,16.0007256 33.6383991,15.6693283 C33.6383991,15.4387911 33.7932895,15.2550817 34.1030704,15.1182002 C34.4128513,14.9813188 34.6037627,14.8768566 34.6758048,14.8048137 C34.8054805,14.6823408 34.8973342,14.3923681 34.9513657,13.9348958 C35.0033961,13.4943669 35.0303748,12.7916275 35.0323018,11.8266778 L35.0323018,11.8266778 L35.0322692,11.5982124 C35.0315338,11.2731881 35.0279797,10.7282945 35.0216067,9.96353154 C35.0152501,9.20072448 35.0116978,8.55289937 35.01095,8.0200562 L35.01095,8.0200562 L35.0104639,6.62363318 C35.0068742,4.92770868 34.9745675,3.82208715 34.9135436,3.3067686 C34.8487058,2.75924265 34.7370406,2.44225394 34.578548,2.35580247 C34.4128513,2.269351 34.1823167,2.18650168 33.8869442,2.1072545 C33.4114666,1.9775773 33.1737278,1.77945936 33.1737278,1.51290067 C33.1737278,1.32558916 33.2475709,1.16889587 33.3952571,1.04282082 C33.5429434,0.916745762 33.8833421,0.763654623 34.4164534,0.583547401 C34.9351562,0.403440178 35.4376496,0.261155472 35.9239336,0.156693283 C36.4102175,0.0522310945 36.8010457,3.44494653e-14 37.0964182,3.44494653e-14 Z M20.473807,6.58111791 C19.7317737,6.58111791 19.1338246,6.88549911 18.6799596,7.49426152 C18.2260946,8.10302394 17.9991621,8.91170536 17.9991621,9.92030581 C17.9991621,11.4115936 18.3143461,12.6579356 18.9447142,13.6593317 C19.5750822,14.6607279 20.3441313,15.161426 21.2518613,15.161426 C21.9866903,15.161426 22.5828384,14.8516416 23.0403055,14.2320727 C23.4977726,13.6125039 23.7265062,12.7948171 23.7265062,11.7790123 C23.7265062,10.3093374 23.40772,9.07560294 22.7701478,8.07780892 C22.1325755,7.08001491 21.3671286,6.58111791 20.473807,6.58111791 Z M56.9717285,6.41902141 C56.3809836,6.41902141 55.8856944,6.66216616 55.4858609,7.14845566 C55.0860275,7.63474516 54.8861107,8.24891079 54.8861107,8.99095254 C54.8861107,9.76181145 55.0770222,10.3813803 55.4588452,10.8496591 C55.8406681,11.3179379 56.3377583,11.5520772 56.9501159,11.5520772 C57.5912902,11.5520772 58.1207994,11.3161368 58.5386434,10.8442559 C58.9564873,10.3723749 59.1654093,9.76181145 59.1654093,9.01256541 C59.1654093,8.2417065 58.9618905,7.61673443 58.5548528,7.13764922 C58.1478152,6.65856401 57.6201071,6.41902141 56.9717285,6.41902141 Z M45.4131269,6.44063427 C44.6999105,6.44063427 44.1091655,6.68738117 43.6408921,7.18087496 C43.1726187,7.67436875 42.938482,8.28493223 42.938482,9.01256541 C42.938482,9.17826405 42.9817072,9.28993053 43.0681577,9.34756484 C43.1401998,9.39559343 43.2797813,9.42361011 43.4869022,9.43161488 L43.6192795,9.43401631 L47.2718121,9.43401631 C47.5599804,9.43401631 47.7508919,9.40519915 47.8445465,9.34756484 C47.9382012,9.28993053 47.9850286,9.17826405 47.9850286,9.01256541 C47.9850286,8.28493223 47.7418866,7.67436875 47.2556027,7.18087496 C46.7693187,6.68738117 46.1551601,6.44063427 45.4131269,6.44063427 Z M68.8329068,6.44063427 C68.1196903,6.44063427 67.5289454,6.68738117 67.060672,7.18087496 C66.5923986,7.67436875 66.3582619,8.28493223 66.3582619,9.01256541 C66.3582619,9.17826405 66.4014871,9.28993053 66.4879376,9.34756484 C66.5599797,9.39559343 66.6995612,9.42361011 66.9066821,9.43161488 L67.0390594,9.43401631 L70.691592,9.43401631 C70.9797603,9.43401631 71.1706717,9.40519915 71.2643264,9.34756484 C71.3579811,9.28993053 71.4048084,9.17826405 71.4048084,9.01256541 C71.4048084,8.28493223 71.1616665,7.67436875 70.6753825,7.18087496 C70.1890986,6.68738117 69.57494,6.44063427 68.8329068,6.44063427 Z" id="Combined-Shape"></path>
                <path d="M53.409796,27.6683597 C54.2454839,27.6683597 54.9623024,27.7782251 55.5602516,27.9979559 C56.1582007,28.2176867 56.622872,28.5364765 56.9542655,28.9543252 C57.1775959,29.2424968 57.3360884,29.6171198 57.4297431,30.0781943 C57.5148837,30.4973529 57.5613241,31.1695548 57.5690641,32.0947998 L57.5702251,32.3799646 L57.5702251,36.0109262 L57.5732269,36.2144474 C57.5832327,36.5386404 57.6182532,36.7877887 57.6782882,36.9618923 C57.7503303,37.1708167 57.8619955,37.2968918 58.0132838,37.3401175 C58.0997343,37.3689347 58.2150016,37.401354 58.3590857,37.4373754 C58.8345634,37.5670526 59.0723022,37.7579663 59.0723022,38.0101164 C59.0723022,38.3703308 58.8201549,38.6963249 58.3158605,38.9880986 C57.8115661,39.2798723 57.2244232,39.4257592 56.554432,39.4257592 C56.2230385,39.4257592 55.8718335,39.2294423 55.5008169,38.8368085 C55.1298002,38.4441748 54.9334856,38.2478579 54.911873,38.2478579 C54.8470351,38.2478579 54.6849405,38.3307072 54.4255891,38.4964059 C53.4746338,39.1159747 52.538087,39.4257592 51.6159486,39.4257592 C50.5209092,39.4257592 49.6347918,39.1069694 48.9575964,38.4693898 C48.280401,37.8318102 47.9418033,36.9979138 47.9418033,35.9677005 C47.9418033,34.7645842 48.3776578,33.8262256 49.2493668,33.1526246 C50.1210758,32.4790236 51.3385866,32.1422231 52.9018994,32.1422231 C53.1972719,32.1422231 53.5196601,32.1584327 53.8690641,32.190852 C54.1311171,32.2151665 54.4083665,32.2485989 54.7008123,32.2911492 L54.9983235,32.3367389 L55.0091298,31.1480312 L55.0037933,30.9327697 C54.9753323,30.3738592 54.833027,29.9359096 54.5768774,29.6189209 C54.2887091,29.2623086 53.8780694,29.0840024 53.3449581,29.0840024 C52.9775436,29.0840024 52.6353438,29.1650507 52.3183587,29.3271472 C52.0013736,29.4892437 51.6951948,29.7395927 51.3998224,30.0781943 C51.3421887,30.1430329 51.2629425,30.2402908 51.1620836,30.369968 C50.7082186,30.9463111 50.2255367,31.2344827 49.7140381,31.2344827 C49.4186656,31.2344827 49.1827279,31.1390258 49.0062248,30.9481122 C48.8297218,30.7571985 48.7414702,30.4996452 48.7414702,30.1754522 C48.7414702,29.4694319 49.1773247,28.8750781 50.0490337,28.3923907 C50.9207427,27.9097034 52.0409967,27.6683597 53.409796,27.6683597 Z M21.1221856,27.6683597 C22.570231,27.6683597 23.7175009,28.0808052 24.5639952,28.9056963 C25.4104894,29.7305874 25.8337365,30.8454511 25.8337365,32.2502874 C25.8337365,32.7113619 25.7652966,33.0157431 25.6284166,33.163431 C25.5067456,33.2947092 25.2171543,33.3676415 24.7596427,33.382228 L24.5802046,33.3849629 L19.0257615,33.3849629 L18.8770059,33.3864826 C18.5484266,33.3935743 18.3494666,33.425487 18.2801261,33.4822208 C18.2008799,33.5470594 18.1612567,33.7199623 18.1612567,34.0009296 C18.1612567,34.9374872 18.4962523,35.7425665 19.1662435,36.4161675 C19.8362347,37.0897685 20.65031,37.426569 21.6084695,37.426569 C22.0191093,37.426569 22.4153406,37.3653325 22.7971635,37.2428596 C23.1789865,37.1203867 23.5500031,36.9330752 23.9102134,36.6809251 C24.0110723,36.6088822 24.1479522,36.50442 24.3208532,36.3675385 C24.6954719,36.0577541 24.9872423,35.9028619 25.1961643,35.9028619 C25.361861,35.9028619 25.4987409,35.956894 25.606804,36.0649584 C25.7148671,36.1730227 25.7688987,36.3026999 25.7688987,36.45399 C25.7688987,36.6340972 25.675244,36.8556291 25.4879346,37.1185856 C25.3006253,37.3815422 25.048478,37.6390955 24.731493,37.8912456 C24.0759102,38.4315673 23.4455421,38.8187978 22.8403888,39.0529372 C22.2352354,39.2870766 21.5760506,39.4041463 20.8628341,39.4041463 C19.2635003,39.4041463 17.9289211,38.8584214 16.8590964,37.7669716 C15.7892718,36.6755219 15.2543595,35.3229166 15.2543595,33.7091559 C15.2543595,31.9513094 15.8036802,30.5050484 16.9023217,29.3703729 C18.0009632,28.2356974 19.4075844,27.6683597 21.1221856,27.6683597 Z M43.5045597,25.507073 C43.6558481,25.507073 43.7747175,25.5394923 43.8611679,25.6043309 C43.9476184,25.6691695 43.9908436,25.7592231 43.9908436,25.8744917 L43.9908436,25.8744917 L43.9908436,27.9817462 L46.5087138,27.9817462 L46.6139672,27.9860688 C46.7447956,27.9975957 46.8375858,28.0321763 46.8923378,28.0898106 C46.9607777,28.1618535 46.9949977,28.3023371 46.9949977,28.5112615 L46.9949977,28.5112615 L46.9949977,28.7814223 L46.9904591,28.8916479 C46.978356,29.0299703 46.9420468,29.133712 46.8815315,29.2028732 C46.8058873,29.2893247 46.6816147,29.3325504 46.5087138,29.3325504 L46.5087138,29.3325504 L44.1853572,29.3325504 L44.1340273,29.3382913 C44.0853989,29.3497732 44.0448752,29.3784778 44.0124563,29.4244051 C43.969231,29.4856415 43.9476184,29.5738941 43.9476184,29.6891627 L43.9476184,29.6891627 L43.9476184,35.2868952 L43.9493069,35.5207344 C43.9616891,36.3506284 44.0421736,36.8778423 44.1907604,37.102376 C44.352855,37.3473218 44.6536306,37.4697947 45.0930872,37.4697947 C45.330826,37.4697947 45.6352038,37.4085583 46.0062204,37.2860853 C46.377237,37.1636124 46.6347874,37.102376 46.7788715,37.102376 C46.9445683,37.102376 47.0814482,37.1510049 47.1895113,37.2482628 C47.2975744,37.3455207 47.3516059,37.4733969 47.3516059,37.6318912 C47.3516059,38.0425357 47.0328198,38.4405726 46.3952475,38.8260021 C45.7576753,39.2114316 45.0354536,39.4041463 44.2285825,39.4041463 C43.760309,39.4041463 43.340664,39.3429098 42.9696474,39.2204369 C42.5986308,39.097964 42.2798446,38.9142546 42.013289,38.6693088 C41.7467334,38.424363 41.559424,38.0947668 41.4513609,37.6805202 C41.3432978,37.2662736 41.2892663,36.4972157 41.2892663,35.3733466 L41.2892663,35.3733466 L41.2892663,29.3325504 L40.2518605,29.3325504 L40.1626004,29.3290924 C40.0513675,29.3198709 39.9712567,29.2922064 39.9222681,29.2460989 C39.8610323,29.1884646 39.8304145,29.0912067 39.8304145,28.9543252 L39.8304145,28.9543252 L39.8304145,28.6841644 L39.8364241,28.6284231 C39.8885076,28.3727811 40.2791336,27.9338892 41.0083022,27.3117474 C41.2028158,27.1460487 41.3577062,27.0127694 41.4729735,26.9119093 C41.5738324,26.8254579 41.7179165,26.6993828 41.9052259,26.5336842 C42.6832802,25.8492767 43.2163915,25.507073 43.5045597,25.507073 Z M72.4638268,27.5819082 C72.8312413,27.5819082 73.1896506,27.8772841 73.5390546,28.4680357 C73.8884586,29.0587874 74.0631606,29.6783563 74.0631606,30.3267423 C74.0631606,30.593301 74.0055269,30.8004243 73.8902596,30.9481122 C73.7749923,31.0958001 73.6092956,31.1696441 73.3931694,31.1696441 C73.2202684,31.1696441 73.0509696,31.0994023 72.8852728,30.9589186 C72.7195761,30.818435 72.5214604,30.5644838 72.2909258,30.1970651 C72.0099618,29.7359906 71.7199925,29.4135987 71.4210179,29.2298893 C71.1220433,29.0461799 70.7636341,28.9543252 70.3457901,28.9543252 C69.9063335,28.9543252 69.5533274,29.0767982 69.2867718,29.321744 C69.0202161,29.5666898 68.8869383,29.8872807 68.8869383,30.2835165 C68.8869383,30.6221181 69.0220172,30.9246983 69.2921749,31.1912569 C69.5623327,31.4578156 70.1728891,31.8252344 71.1238444,32.2935131 C71.145457,32.3079217 71.1850801,32.3295346 71.2427138,32.3583517 C73.3319336,33.3885651 74.3765436,34.5124341 74.3765436,35.7299589 C74.3765436,36.7745808 73.9749091,37.6481009 73.17164,38.350519 C72.368371,39.0529372 71.3651853,39.4041463 70.1620828,39.4041463 C69.9099356,39.4041463 69.6127621,39.3807323 69.2705623,39.3339045 C68.9283625,39.2870766 68.5339322,39.2204369 68.0872714,39.1339855 C67.9647999,39.2276412 67.8477315,39.296082 67.7360663,39.3393077 C67.6244011,39.3825334 67.5109349,39.4041463 67.3956676,39.4041463 C67.3236255,39.4041463 67.2497824,39.3879366 67.1741382,39.3555173 C67.0984941,39.323098 67.0174468,39.2708669 66.9309963,39.1988241 C66.6860533,38.9898997 66.4555187,38.5828574 66.2393925,37.9776971 C66.0232663,37.3725368 65.9152032,36.7925916 65.9152032,36.2378613 C65.9152032,36.0001198 65.980041,35.8002008 66.1097168,35.6381043 C66.2393925,35.4760078 66.397885,35.3949595 66.5851944,35.3949595 C66.9309963,35.3949595 67.2804003,35.6975396 67.6334064,36.3026999 C67.8063074,36.60528 67.9503915,36.8322151 68.0656588,36.9835052 C68.2889892,37.2788811 68.595168,37.5130205 68.9841951,37.6859234 C69.3732222,37.8588263 69.7910662,37.9452778 70.237727,37.9452778 C70.7348172,37.9452778 71.1274465,37.8210038 71.4156147,37.5724558 C71.703783,37.3239079 71.8478671,36.9907095 71.8478671,36.5728607 C71.8478671,35.9388833 71.2174991,35.3193145 69.956763,34.7141542 C69.7103791,34.5974447 69.5106785,34.5011594 69.3576612,34.4252983 L69.3576612,34.4252983 L69.3083844,34.4007676 C68.1340987,33.8172202 67.341636,33.2805007 66.9309963,32.7906091 C66.5203565,32.3007174 66.3150366,31.6991593 66.3150366,30.9859347 C66.3150366,30.0061514 66.6536343,29.2082764 67.3308297,28.5923097 C68.0080251,27.976343 68.8941425,27.6683597 69.9891819,27.6683597 C70.2557375,27.6683597 70.5222932,27.6827683 70.7888488,27.7115854 C71.0554044,27.7404026 71.3219601,27.7872304 71.5885157,27.852069 C71.7974377,27.7584133 71.9739407,27.6899725 72.1180249,27.6467468 C72.262109,27.6035211 72.3773763,27.5819082 72.4638268,27.5819082 Z M7.94263752,22.8486904 C9.57799237,22.8486904 10.8279222,23.1998995 11.6924269,23.9023177 C12.5569317,24.6047358 12.9891841,25.6187395 12.9891841,26.9443286 C12.9891841,27.9313162 12.7028169,28.7850245 12.1300825,29.5054533 C11.6094148,30.1603887 10.8967343,30.6426593 9.99204074,30.9522651 L9.71487229,31.0399669 L9.71487229,31.2128698 L9.97735889,31.2674356 C10.6600686,31.4303771 11.2047422,31.7327793 11.6113796,32.1746424 C12.0688467,32.6717383 12.4776854,33.5254465 12.8378958,34.7357671 C12.917142,35.0095301 13.0180009,35.3877552 13.1404724,35.8704426 C13.4286407,37.0303331 13.7924531,37.6102784 14.2319097,37.6102784 C14.2823391,37.6102784 14.3886012,37.6030741 14.5506958,37.5886655 C14.7127905,37.5742569 14.8514714,37.5670526 14.9667387,37.5670526 C15.1036187,37.5670526 15.2296923,37.6246869 15.3449596,37.7399556 C15.4602269,37.8552242 15.5178605,37.9885035 15.5178605,38.1397936 C15.5178605,38.4928037 15.3035354,38.7809753 14.8748851,39.0043083 C14.4462348,39.2276412 13.8789036,39.3393077 13.1728914,39.3393077 C11.6816206,39.3393077 10.6045918,38.1974279 9.94180479,35.9136683 C9.92739638,35.8776469 9.92019217,35.8524319 9.92019217,35.8380233 C9.3870809,34.0297468 8.85216858,32.8842648 8.3154552,32.4015775 C7.82346794,31.9591141 7.11506682,31.7194464 6.19025185,31.6825744 L5.93266395,31.6775464 L4.91687085,31.6775464 L4.81615604,31.6833819 C4.69166736,31.6989432 4.60636955,31.745627 4.56026263,31.8234333 C4.50983319,31.908534 4.48146663,32.1191187 4.47516295,32.4551875 L4.47381216,32.6068997 L4.47381216,33.0499635 C4.47381216,34.7645842 4.50082793,35.8866522 4.55485948,36.4161675 C4.60889103,36.9456827 4.70794886,37.2608703 4.85203299,37.3617304 C4.94568767,37.4409776 5.11138442,37.5202247 5.34912323,37.5994719 C5.81019244,37.7651706 6.04072704,38.0029121 6.04072704,38.3126965 C6.04072704,38.6440938 5.83540716,38.8746311 5.4247674,39.0043083 C5.01412763,39.1339855 4.21085862,39.1988241 3.01496037,39.1988241 C1.84787893,39.1988241 1.05361518,39.1339855 0.632169109,39.0043083 C0.210723036,38.8746311 -6.56541488e-14,38.6440938 -6.56541488e-14,38.3126965 C-6.56541488e-14,38.0101164 0.234136707,37.7687727 0.702410121,37.5886655 C0.940148931,37.4950097 1.10584568,37.4121604 1.19950036,37.3401175 C1.3579929,37.2176446 1.47145915,36.7097422 1.53989911,35.8164104 C1.60833907,34.9230786 1.64255905,33.2913072 1.64255905,30.9210961 C1.64255905,29.1920668 1.61194118,27.7800262 1.55070542,26.6849742 C1.48946967,25.5899223 1.40842235,24.9739556 1.30756346,24.8370741 C1.22831719,24.7290098 0.990578376,24.5921283 0.594347026,24.4264297 C0.198115675,24.260731 -6.56541488e-14,24.0373981 -6.56541488e-14,23.7564308 C-6.56541488e-14,23.4826678 0.11346625,23.2809477 0.340398751,23.1512705 C0.534912323,23.0401187 0.820728184,22.9766033 1.19784633,22.9607244 L1.39401393,22.9567547 L3.85785251,22.9567547 L4.08689562,22.9559105 C4.63886165,22.9519706 5.31355246,22.9342413 6.11096805,22.9027226 C7.02230016,22.8667011 7.63285665,22.8486904 7.94263752,22.8486904 Z M34.2477021,27.6683597 C34.7880175,27.6683597 35.3085214,27.7854294 35.8092138,28.0195688 C36.3099061,28.2537081 36.7331532,28.5724979 37.0789552,28.9759381 C37.4247571,29.3865826 37.6697001,29.8764742 37.8137842,30.445613 C37.9578683,31.0147519 38.0299104,31.9044815 38.0299104,33.1148021 L38.0299104,33.1148021 L38.0294781,34.7578122 C38.0283255,34.9261044 38.0248675,35.1312825 38.0191041,35.3733466 C38.0118999,35.6759268 38.0082978,35.8884533 38.0082978,36.0109262 C38.0082978,36.5440436 38.0461199,36.9204677 38.121764,37.1401985 C38.1974082,37.3599293 38.328885,37.5238269 38.5161943,37.6318912 C38.5882364,37.6679127 38.6854932,37.7075363 38.8079647,37.750762 C39.1753792,37.8876435 39.3590865,38.0821593 39.3590865,38.3343094 C39.3590865,38.6585024 39.1861855,38.8800343 38.8403836,38.998905 C38.4945817,39.1177758 37.7453442,39.1772112 36.5926712,39.1772112 C35.5408571,39.1772112 34.8366459,39.1213779 34.4800377,39.0097115 C34.1234295,38.898045 33.9451254,38.698126 33.9451254,38.4099544 C33.9451254,38.1217829 34.1324347,37.9092563 34.5070535,37.7723749 C34.7015671,37.700332 34.8420491,37.6390955 34.9284996,37.5886655 C35.1014005,37.4950097 35.223872,37.2842843 35.2959141,36.9564891 C35.3679561,36.628694 35.4039772,36.0577541 35.4039772,35.2436694 C35.4039772,32.8518455 35.2508878,31.3533534 34.944709,30.7481932 C34.6385302,30.1430329 34.0892095,29.8404528 33.2967468,29.8404528 C32.8933113,29.8404528 32.5096873,29.9611246 32.1458748,30.2024683 C31.7820624,30.443812 31.5028994,30.7662039 31.3083859,31.1696441 C31.1426891,31.4938371 31.0274218,31.9477073 30.9625839,32.5312547 C30.8977461,33.1148021 30.8653272,34.1522197 30.8653272,35.6435075 C30.8653272,36.3711407 30.895945,36.8556291 30.9571808,37.0969728 C31.0184165,37.3383164 31.1282807,37.502214 31.2867732,37.5886655 C31.3804279,37.6390955 31.5209099,37.700332 31.7082193,37.7723749 C32.0900422,37.9092563 32.2809537,38.1217829 32.2809537,38.4099544 C32.2809537,38.698126 32.0972464,38.9016471 31.7298319,39.0205179 C31.3624174,39.1393887 30.6888241,39.1988241 29.709052,39.1988241 C28.5635832,39.1988241 27.8053405,39.1375876 27.4343239,39.0151147 C27.0633072,38.8926418 26.8777989,38.6657067 26.8777989,38.3343094 C26.8777989,38.0821593 27.0615062,37.8876435 27.4289207,37.750762 C27.5658006,37.700332 27.6630574,37.6607084 27.7206911,37.6318912 C27.9152047,37.5238269 28.0520846,37.3437197 28.1313308,37.0915695 C28.2105771,36.8394194 28.2502002,36.428775 28.2502002,35.8596361 C28.2502002,35.7227547 28.2465981,35.4706045 28.2393939,35.1031858 C28.2321897,34.7357671 28.2285876,34.4331869 28.2285876,34.1954454 L28.2285876,34.1954454 L28.2280761,32.7629855 C28.2239838,31.7306834 28.1953374,31.0482795 28.1421372,30.7157739 C28.0845035,30.3555594 27.9800425,30.1358286 27.8287542,30.0565814 C27.7134869,29.9989471 27.5369838,29.9341085 27.299245,29.8620656 C26.84538,29.7179799 26.6184475,29.5198619 26.6184475,29.2677118 C26.6184475,29.1020132 26.6886885,28.9525242 26.8291705,28.8192448 C26.9696526,28.6859655 27.2019882,28.5544872 27.5261775,28.42481 C28.0809014,28.2086813 28.6212169,28.0357784 29.1471239,27.9061012 C29.673031,27.776424 30.0620581,27.7115854 30.3142054,27.7115854 C30.5231274,27.7115854 30.6744157,27.7674186 30.7680704,27.8790851 C30.8617251,27.9907516 30.9085524,28.1726599 30.9085524,28.42481 L30.9085524,28.42481 L30.9085524,29.1704539 L30.9103534,29.2208839 C30.9127549,29.2497011 30.9175577,29.2689125 30.9247619,29.2785182 C30.9355682,29.2929268 30.9589818,29.3037333 30.9950029,29.3109375 C31.0094113,29.3109375 31.0292229,29.3055343 31.0544376,29.2947279 C31.0796523,29.2839215 31.0958618,29.2749161 31.103066,29.2677118 L31.103066,29.2677118 L31.3624174,29.0299703 L31.4272553,28.972336 C31.4752833,28.9291102 31.5329169,28.8762788 31.6001562,28.8138416 C32.4142315,28.050187 33.2967468,27.6683597 34.2477021,27.6683597 Z M63.1745502,22.664981 C63.3978806,22.664981 63.5563731,22.7352229 63.6500278,22.8757065 C63.7436825,23.0161901 63.7905098,23.262937 63.7905098,23.6159472 C63.7905098,23.7168072 63.7833056,24.0049788 63.7688972,24.4804618 C63.6824467,27.153253 63.6392215,29.8548614 63.6392215,32.5852868 L63.6392215,32.5852868 L63.6398966,33.151399 C63.6440374,34.8236111 63.6672261,35.9082651 63.7094625,36.405361 C63.7562898,36.9564891 63.8409393,37.3040961 63.9634108,37.4481819 C64.0354528,37.527429 64.2461759,37.6354934 64.5955799,37.7723749 C64.9449839,37.9092563 65.1196859,38.1217829 65.1196859,38.4099544 C65.1196859,38.698126 64.9323765,38.9016471 64.5577578,39.0205179 C64.1831391,39.1393887 63.5059437,39.1988241 62.5261716,39.1988241 C61.3807028,39.1988241 60.6260622,39.1375876 60.2622498,39.0151147 C59.8984373,38.8926418 59.7165311,38.6657067 59.7165311,38.3343094 C59.7165311,38.1037721 59.8714216,37.9200628 60.1812024,37.7831813 C60.4909833,37.6462998 60.6818948,37.5418376 60.7539368,37.4697947 C60.8836126,37.3473218 60.9754662,37.0573492 61.0294977,36.5998768 C61.0835293,36.1424045 61.1105451,35.4021638 61.1105451,34.3791548 L61.1105451,34.3791548 L61.1101969,34.1890724 C61.1091359,33.8580446 61.1056499,33.3378579 61.0997387,32.6285126 C61.0925345,31.7639979 61.0889324,31.0471712 61.0889324,30.4780323 L61.0889324,30.4780323 L61.0887486,29.3720378 C61.0860521,27.6288995 61.0536945,26.4954701 60.9916756,25.9717496 C60.9268378,25.4242237 60.8151726,25.107235 60.65668,25.0207835 C60.4909833,24.934332 60.2604487,24.8514827 59.9650762,24.7722355 C59.4895986,24.6425583 59.2518598,24.4444404 59.2518598,24.1778817 C59.2518598,23.9905702 59.3257029,23.8338769 59.4733892,23.7078019 C59.6210754,23.5817268 59.9614741,23.4286357 60.4945854,23.2485284 C61.0132883,23.0684212 61.5157817,22.9261365 62.0020656,22.8216743 C62.4883495,22.7172121 62.8791777,22.664981 63.1745502,22.664981 Z M53.3665707,33.5794787 C52.5596996,33.5794787 51.9293316,33.7595859 51.4754665,34.1198004 C51.0216015,34.4800148 50.794669,34.9771108 50.794669,35.6110882 C50.794669,36.2090442 50.9909837,36.6881294 51.3836129,37.0483438 C51.7762422,37.4085583 52.3039503,37.5886655 52.9667373,37.5886655 C53.7015663,37.5886655 54.2256723,37.426569 54.5390553,37.102376 C54.8211,36.8106023 54.9762246,36.3320934 55.004429,35.6668494 L55.0091298,35.4381852 L54.9983235,33.7739945 L54.7065531,33.7145591 C54.5144409,33.6785377 54.3271316,33.6497205 54.144625,33.6281077 C53.8708652,33.5956884 53.6115137,33.5794787 53.3665707,33.5794787 Z M20.7439647,29.1056153 C20.0307483,29.1056153 19.4400034,29.3523622 18.97173,29.845856 C18.5034565,30.3393498 18.2693198,30.9499133 18.2693198,31.6775464 C18.2693198,31.8432451 18.3125451,31.9549116 18.3989956,32.0125459 C18.4710376,32.0605745 18.6106191,32.0885912 18.81774,32.0965959 L18.9501173,32.0989973 L22.60265,32.0989973 C22.8908182,32.0989973 23.0817297,32.0701802 23.1753844,32.0125459 C23.2690391,31.9549116 23.3158664,31.8432451 23.3158664,31.6775464 C23.3158664,30.9499133 23.0727244,30.3393498 22.5864405,29.845856 C22.1001566,29.3523622 21.485998,29.1056153 20.7439647,29.1056153 Z M6.31088478,24.2427203 C5.72734407,24.2427203 5.32570956,24.2805428 5.10598127,24.3561879 C4.88625297,24.4318329 4.74036779,24.5777197 4.66832573,24.7938484 C4.61789628,24.9883642 4.5800742,25.3179604 4.55485948,25.7826371 C4.53300672,26.1853568 4.52062349,26.8058782 4.51767197,27.6442013 L4.51703739,30.1430329 L4.81601196,30.1688483 C5.01292693,30.1840573 5.2050391,30.195264 5.39234847,30.2024683 C5.67331252,30.2132747 5.94347026,30.2186779 6.20282169,30.2186779 C7.47796621,30.2186779 8.41271199,29.9773343 9.00705902,29.4946469 C9.60140604,29.0119596 9.89857955,28.2555092 9.89857955,27.2252959 C9.89857955,26.2455126 9.59600289,25.5034709 8.99084955,24.9991706 C8.38569622,24.4948704 7.49237463,24.2427203 6.31088478,24.2427203 Z" id="Combined-Shape"></path>
                <path d="M78.0249266,35.9028619 C78.5148126,35.9028619 78.9290545,36.0703616 79.2676522,36.405361 C79.6062499,36.7403605 79.7755487,37.1564081 79.7755487,37.6535041 C79.7755487,38.1361914 79.6044488,38.548637 79.262249,38.8908407 C78.9200492,39.2330444 78.5076084,39.4041463 78.0249266,39.4041463 C77.5350405,39.4041463 77.1207987,39.2330444 76.782201,38.8908407 C76.4436033,38.548637 76.2743044,38.1361914 76.2743044,37.6535041 C76.2743044,37.1564081 76.4436033,36.7403605 76.782201,36.405361 C77.1207987,36.0703616 77.5350405,35.9028619 78.0249266,35.9028619 Z M87.5411357,27.6683597 C88.773055,27.6683597 89.823068,27.9907516 90.6911749,28.6355355 C91.5592818,29.2803193 91.9933352,30.0349686 91.9933352,30.8994832 C91.9933352,31.2452891 91.8726648,31.5280575 91.6313238,31.7477883 C91.3899829,31.9675191 91.0820031,32.0773845 90.7073844,32.0773845 C90.3255614,32.0773845 90.0193827,31.9873309 89.7888481,31.8072236 C89.5583135,31.6271164 89.3133704,31.2308805 89.054019,30.618516 C88.8162802,30.0781943 88.5533267,29.7017702 88.2651584,29.4892437 C87.9769902,29.2767172 87.6023714,29.1704539 87.1413022,29.1704539 C86.2695932,29.1704539 85.5905968,29.4928458 85.1043129,30.1376297 C84.6180289,30.7824135 84.374887,31.6847507 84.374887,32.8446412 C84.374887,34.184639 84.7206889,35.2760887 85.4122927,36.1189905 C86.1038965,36.9618923 86.9900139,37.3833433 88.0706448,37.3833433 C88.4452636,37.3833433 88.8000707,37.3329132 89.1350663,37.2320532 C89.4700619,37.1311931 89.7816439,36.9835052 90.0698121,36.7889894 C90.170671,36.7169465 90.3147551,36.6088822 90.5020645,36.4647964 C90.8982958,36.1478077 91.2116788,35.9893133 91.4422134,35.9893133 C91.600706,35.9893133 91.7249785,36.0343402 91.8150311,36.1243938 C91.9050837,36.2144474 91.95011,36.3387214 91.95011,36.4972157 C91.95011,36.6845272 91.8708637,36.9114623 91.7123712,37.178021 C91.5538786,37.4445797 91.3521608,37.6823212 91.1072178,37.8912456 C90.5164729,38.4099544 89.9023143,38.7917817 89.264742,39.0367276 C88.6271698,39.2816734 87.9337649,39.4041463 87.1845275,39.4041463 C85.6068063,39.4041463 84.2866354,38.8584214 83.224015,37.7669716 C82.1613946,36.6755219 81.6300843,35.3229166 81.6300843,33.7091559 C81.6300843,31.9729223 82.1938135,30.5320645 83.3212718,29.3865826 C84.4487301,28.2411006 85.8553514,27.6683597 87.5411357,27.6683597 Z M98.8728048,27.6683597 C100.493751,27.6683597 101.821126,28.1942728 102.85493,29.2460989 C103.888733,30.2979251 104.405635,31.6451271 104.405635,33.287705 C104.405635,35.0311429 103.850911,36.4864093 102.741464,37.6535041 C101.632016,38.8205989 100.256012,39.4041463 98.6134533,39.4041463 C96.9925069,39.4041463 95.6489224,38.8530182 94.5826999,37.750762 C93.5164773,36.6485058 92.9833661,35.258078 92.9833661,33.5794787 C92.9833661,31.8864708 93.5434931,30.4780323 94.6637472,29.3541633 C95.7840013,28.2302942 97.1870205,27.6683597 98.8728048,27.6683597 Z M119.454675,27.6683597 C120.326384,27.6683597 121.088229,27.8430637 121.740209,28.1924717 C122.39219,28.5418797 122.869469,29.0335724 123.172045,29.6675498 C123.503439,30.3591616 123.669136,31.8108258 123.669136,34.0225425 C123.67634,34.5052298 123.679942,34.8726486 123.679942,35.1247987 C123.679942,35.283293 123.67634,35.4886153 123.669136,35.7407654 C123.661931,35.9929155 123.658329,36.1658184 123.658329,36.2594742 C123.658329,36.6917315 123.696151,37.0015159 123.771796,37.1888274 C123.84744,37.376139 123.978916,37.5238269 124.166226,37.6318912 C124.223859,37.6607084 124.321116,37.700332 124.457996,37.750762 C124.839819,37.8876435 125.030731,38.0821593 125.030731,38.3343094 C125.030731,38.6585024 124.854228,38.8800343 124.501221,38.998905 C124.148215,39.1177758 123.388172,39.1772112 122.22109,39.1772112 C121.147663,39.1772112 120.429044,39.1213779 120.065231,39.0097115 C119.701419,38.898045 119.519513,38.698126 119.519513,38.4099544 C119.519513,38.1217829 119.717628,37.8984499 120.11386,37.7399556 C120.286761,37.675117 120.420039,37.6174826 120.513693,37.5670526 C120.701003,37.4661926 120.832479,37.2302521 120.908123,36.8592312 C120.983768,36.4882104 121.02159,35.8596361 121.02159,34.9735086 C121.02159,32.7473833 120.870301,31.3353427 120.567725,30.7373867 C120.265148,30.1394308 119.717628,29.8404528 118.925166,29.8404528 C118.053457,29.8404528 117.428492,30.220479 117.050271,30.9805315 C116.67205,31.740584 116.48294,33.0355549 116.48294,34.8654443 L116.48294,34.8654443 L116.48294,35.481411 L116.484128,35.7152622 C116.491261,36.3921772 116.530487,36.8473442 116.601809,37.0807631 C116.681055,37.3401175 116.817935,37.5238269 117.012449,37.6318912 C117.084491,37.6679127 117.181748,37.7075363 117.304219,37.750762 C117.671634,37.8876435 117.855341,38.0821593 117.855341,38.3343094 C117.855341,38.6585024 117.68244,38.8800343 117.336638,38.998905 C116.990836,39.1177758 116.241599,39.1772112 115.088926,39.1772112 C114.037112,39.1772112 113.331099,39.1213779 112.970889,39.0097115 C112.610679,38.898045 112.430574,38.698126 112.430574,38.4099544 C112.430574,38.1217829 112.621485,37.9092563 113.003308,37.7723749 C113.183413,37.7075363 113.327497,37.6462998 113.43556,37.5886655 C113.594053,37.4950097 113.707519,37.2950907 113.775959,36.9889084 C113.844399,36.6827262 113.878619,36.1009798 113.878619,35.2436694 C113.878619,32.8518455 113.72553,31.3533534 113.419351,30.7481932 C113.113172,30.1430329 112.563851,29.8404528 111.771389,29.8404528 C111.367953,29.8404528 110.987931,29.9611246 110.631323,30.2024683 C110.274715,30.443812 109.999154,30.7662039 109.80464,31.1696441 C109.631739,31.5082457 109.511069,31.9855298 109.442629,32.6014965 C109.374189,33.2174632 109.339969,34.2314669 109.339969,35.6435075 C109.339969,36.3351192 109.372388,36.8088012 109.437226,37.0645535 C109.502064,37.3203057 109.617331,37.4950097 109.783028,37.5886655 C109.876682,37.6390955 110.017165,37.700332 110.204474,37.7723749 C110.586297,37.9092563 110.777208,38.1217829 110.777208,38.4099544 C110.777208,38.698126 110.5917,38.9016471 110.220683,39.0205179 C109.849667,39.1393887 109.17067,39.1988241 108.183694,39.1988241 C107.038225,39.1988241 106.283585,39.1375876 105.919772,39.0151147 C105.55596,38.8926418 105.374054,38.6657067 105.374054,38.3343094 C105.374054,38.0821593 105.557761,37.8876435 105.925175,37.750762 C106.062055,37.700332 106.159312,37.6607084 106.216946,37.6318912 C106.411459,37.5238269 106.548339,37.3437197 106.627585,37.0915695 C106.706832,36.8394194 106.746455,36.428775 106.746455,35.8596361 C106.746455,35.7227547 106.742853,35.4706045 106.735649,35.1031858 C106.728444,34.7357671 106.724842,34.4331869 106.724842,34.1954454 L106.724434,33.2646513 C106.720624,32.0274347 106.690142,31.2138304 106.632989,30.8238382 C106.571753,30.4059895 106.461889,30.1502372 106.303396,30.0565814 C106.188129,29.9989471 106.015228,29.9341085 105.784693,29.8620656 C105.338032,29.7179799 105.114702,29.5198619 105.114702,29.2677118 C105.114702,29.1020132 105.181341,28.9579274 105.314619,28.8354545 C105.447897,28.7129816 105.683834,28.5833044 106.022432,28.4464229 C106.605973,28.2086813 107.155294,28.0195688 107.670394,27.8790851 C108.185495,27.7386015 108.558313,27.6683597 108.788847,27.6683597 C108.983361,27.6683597 109.131047,27.7313972 109.231906,27.8574723 C109.332765,27.9835473 109.390399,28.1798642 109.404807,28.4464229 L109.404807,28.4464229 L109.404807,29.1704539 L109.407208,29.2268875 C109.41041,29.2589066 109.416814,29.279719 109.42642,29.2893247 C109.440828,29.3037333 109.462441,29.3109375 109.491257,29.3109375 C109.505666,29.3109375 109.525477,29.3055343 109.550692,29.2947279 C109.575907,29.2839215 109.592116,29.2749161 109.599321,29.2677118 L109.599321,29.2677118 L109.858672,29.0299703 L109.892292,28.997551 C109.917907,28.9735367 109.949925,28.9447195 109.988348,28.9110995 C110.888873,28.0826063 111.800206,27.6683597 112.722344,27.6683597 C113.068146,27.6683597 113.403142,27.7205908 113.727331,27.825053 C114.05152,27.9295151 114.364903,28.0862084 114.66748,28.2951328 C114.955648,28.4824443 115.240214,28.7454009 115.521178,29.0840024 C115.802142,29.422604 115.975043,29.5919048 116.039881,29.5919048 C116.14074,29.5919048 116.290227,29.4766362 116.488343,29.2460989 C116.686459,29.0155617 116.853956,28.8462609 116.990836,28.7381966 C117.473518,28.3275521 117.896765,28.0465848 118.260578,27.8952948 C118.62439,27.7440047 119.022422,27.6683597 119.454675,27.6683597 Z M98.321683,29.2460989 C97.5796497,29.2460989 96.9817006,29.5504801 96.5278356,30.1592426 C96.0739706,30.768005 95.8470381,31.5766864 95.8470381,32.5852868 C95.8470381,34.0765746 96.1622221,35.3229166 96.7925902,36.3243128 C97.4229582,37.3257089 98.1920073,37.826407 99.0997373,37.826407 C99.8345663,37.826407 100.430714,37.5166226 100.888182,36.8970537 C101.345649,36.2774849 101.574382,35.4597981 101.574382,34.4439934 C101.574382,32.9743184 101.255596,31.740584 100.618024,30.74279 C99.9804515,29.7449959 99.2150046,29.2460989 98.321683,29.2460989 Z" id="Combined-Shape"></path>
            </g>
        </g>
    </g>
</svg>