<?xml version="1.0" encoding="UTF-8"?>
<svg width="49px" height="49px" viewBox="0 0 49 49" version="1.1" xmlns="http://www.w3.org/2000/svg" xmlns:xlink="http://www.w3.org/1999/xlink">
    <title>cribwiz_logo</title>
    <defs>
        <rect id="path-1" x="0" y="0" width="49" height="49" rx="9.8"></rect>
    </defs>
    <g id="Page-1" stroke="none" stroke-width="1" fill="none" fill-rule="evenodd">
        <g id="cribwiz_logo">
            <mask id="mask-2" fill="white">
                <use xlink:href="#path-1"></use>
            </mask>
            <use id="Rectangle" fill="#674EEA" xlink:href="#path-1"></use>
            <g id="Group-4-Copy-3" mask="url(#mask-2)">
                <g transform="translate(16.827140, 32.520600) rotate(45.000000) translate(-16.827140, -32.520600) translate(-4.672860, 0.020600)">
                    <g id="Group-4" stroke-width="1" fill="none" transform="translate(8.330000, 8.134000)">
                        <rect id="Rectangle" fill="#FFFFFF" opacity="0.45" x="9.39399822" y="13.4704977" width="7.35" height="40.572" rx="0.784"></rect>
                        <path d="M12.8059828,19.6708757 L7.13040973,22.6547011 C6.65134204,22.9065619 6.05880742,22.7223743 5.80694663,22.2433066 C5.70665434,22.0525393 5.67204596,21.8340306 5.70847927,21.6216081 L6.79241728,15.3017646 C6.81967987,15.1428115 6.76698111,14.9806214 6.65149493,14.8680502 L2.05985983,10.3923121 C1.67228592,10.0145209 1.66435546,9.39406995 2.04214665,9.00649604 C2.19258508,8.85216208 2.38970464,8.75172465 2.60298894,8.72073263 L8.94847258,7.79867988 C9.10807056,7.77548894 9.2460377,7.67524994 9.31741209,7.53062964 L12.1551986,1.78064604 C12.3947325,1.29529745 12.9823658,1.09602523 13.4677144,1.33555908 C13.6609828,1.43094271 13.8174177,1.58737768 13.9128014,1.78064604 L16.7505879,7.53062964 C16.8219623,7.67524994 16.9599294,7.77548894 17.1195274,7.79867988 L23.4650111,8.72073263 C24.000625,8.79856189 24.3717329,9.29585589 24.2939036,9.83146985 C24.2629116,10.0447541 24.1624741,10.2418737 24.0081402,10.3923121 L19.4165051,14.8680502 C19.3010189,14.9806214 19.2483201,15.1428115 19.2755827,15.3017646 L20.3595207,21.6216081 C20.4510145,22.1550578 20.0927384,22.6616747 19.5592887,22.7531684 C19.3468663,22.7896017 19.1283575,22.7549934 18.9375903,22.6547011 L13.2620172,19.6708757 C13.1192684,19.5958282 12.9487316,19.5958282 12.8059828,19.6708757 Z" id="Star" fill="#FFB68A"></path>
                        <path d="M12.8059828,19.6708757 L7.13040973,22.6547011 C6.65134204,22.9065619 6.05880742,22.7223743 5.80694663,22.2433066 C5.70665434,22.0525393 5.67204596,21.8340306 5.70847927,21.6216081 L6.79241728,15.3017646 C6.81967987,15.1428115 6.76698111,14.9806214 6.65149493,14.8680502 L2.05985983,10.3923121 C1.67228592,10.0145209 1.66435546,9.39406995 2.04214665,9.00649604 C2.19258508,8.85216208 2.38970464,8.75172465 2.60298894,8.72073263 L8.94847258,7.79867988 C9.10807056,7.77548894 9.2460377,7.67524994 9.31741209,7.53062964 L12.1551986,1.78064604 C12.3947325,1.29529745 12.9823658,1.09602523 13.4677144,1.33555908 C13.6609828,1.43094271 13.8174177,1.58737768 13.9128014,1.78064604 L16.7505879,7.53062964 C16.8219623,7.67524994 16.9599294,7.77548894 17.1195274,7.79867988 L23.4650111,8.72073263 C24.000625,8.79856189 24.3717329,9.29585589 24.2939036,9.83146985 C24.2629116,10.0447541 24.1624741,10.2418737 24.0081402,10.3923121 L19.4165051,14.8680502 C19.3010189,14.9806214 19.2483201,15.1428115 19.2755827,15.3017646 L20.3595207,21.6216081 C20.4510145,22.1550578 20.0927384,22.6616747 19.5592887,22.7531684 C19.3468663,22.7896017 19.1283575,22.7549934 18.9375903,22.6547011 L13.2620172,19.6708757 C13.1192684,19.5958282 12.9487316,19.5958282 12.8059828,19.6708757 Z" id="Star-Copy" fill="#FFCA21"></path>
                    </g>
                    <path d="M11.9887242,32.3726798 C12.0405952,32.4505917 12.0405952,32.5520933 11.9887242,32.6300051 L9.51206603,36.3500207 C9.44110366,36.4566083 9.29728775,36.4854105 9.19084419,36.414352 C9.17815234,36.4058793 9.16632729,36.396172 9.15554129,36.3853714 L7.91721222,35.1453662 C7.8267526,35.0547841 7.8267526,34.9079216 7.91721222,34.8173395 C7.92799823,34.8065389 7.93982327,34.7968316 7.95251513,34.7883589 L11.6675023,32.3083485 C11.7739459,32.2372901 11.9177618,32.2660922 11.9887242,32.3726798 Z M32.4308724,31.0062101 L36.1458596,33.4862205 C36.2523031,33.5572789 36.2810663,33.7012895 36.2101039,33.8078772 C36.2016427,33.8205862 36.1919485,33.8324272 36.1811625,33.8432278 L34.9428334,35.083233 C34.8523738,35.1738151 34.7057097,35.1738151 34.6152501,35.083233 C34.6044641,35.0724324 34.5947699,35.0605914 34.5863087,35.0478824 L32.1096505,31.3278668 C32.0386882,31.2212791 32.0674513,31.0772686 32.1738949,31.0062101 C32.2517014,30.9542689 32.3530658,30.9542689 32.4308724,31.0062101 Z M2.52063459,21.3951837 C2.5358883,21.3951837 2.55110472,21.3966925 2.56606222,21.399688 L6.9442166,22.2765041 C7.06966154,22.3016271 7.1510161,22.4238241 7.12592712,22.5494388 C7.10758795,22.6412588 7.03591247,22.7130313 6.9442166,22.7313953 L2.56606222,23.6082114 C2.44061728,23.6333343 2.31858543,23.5518696 2.29349645,23.4262549 C2.29050495,23.4112772 2.28899822,23.3960402 2.28899822,23.3807658 L2.28899822,21.6271336 C2.28899822,21.4990312 2.39270536,21.3951837 2.52063459,21.3951837 Z M40.5045,19.7401428 C40.5074915,19.7551205 40.5089982,19.7703575 40.5089982,19.7856319 L40.5089982,21.5392641 C40.5089982,21.6673665 40.4052911,21.771214 40.2773619,21.771214 C40.2621081,21.771214 40.2468917,21.7697052 40.2319342,21.7667096 L35.8537798,20.8898936 C35.7283349,20.8647706 35.6469803,20.7425736 35.6720693,20.6169589 C35.6904085,20.5251389 35.762084,20.4533664 35.8537798,20.4350024 L40.2319342,19.5581863 C40.3573792,19.5330634 40.479411,19.6145281 40.5045,19.7401428 Z M8.18274633,8.08316465 C8.19353234,8.09396525 8.20322656,8.1058063 8.21168779,8.11851534 L10.6883459,11.8385309 C10.7593083,11.9451186 10.7305451,12.0891291 10.6241016,12.1601876 C10.546295,12.2121288 10.4449306,12.2121288 10.3671241,12.1601876 L6.65213689,9.68017716 C6.54569334,9.60911874 6.51693015,9.46510816 6.58789252,9.35852053 C6.59635376,9.3458115 6.60604798,9.33397045 6.61683398,9.32316984 L7.85516305,8.08316465 C7.94562267,7.99258258 8.09228671,7.99258258 8.18274633,8.08316465 Z M33.6071523,6.75204565 C33.6198441,6.76051834 33.6316692,6.77022568 33.6424552,6.78102629 L34.8807842,8.02103148 C34.9712439,8.11161355 34.9712439,8.2584761 34.8807842,8.34905817 C34.8699982,8.35985877 34.8581732,8.36956611 34.8454813,8.3780388 L31.1304941,10.8580492 C31.0240506,10.9291076 30.8802347,10.9003055 30.8092723,10.7937179 C30.7574013,10.715806 30.7574013,10.6143044 30.8092723,10.5363926 L33.2859304,6.81637698 C33.3568928,6.70978935 33.5007087,6.68098723 33.6071523,6.75204565 Z M21.3551228,2.44733261 C21.4830521,2.44733261 21.5867592,2.55118011 21.5867592,2.6792825 C21.5867592,2.69455686 21.5852525,2.70979387 21.582261,2.72477162 L20.7066301,7.10885203 C20.6815411,7.23446676 20.5595093,7.31593145 20.4340643,7.2908085 C20.3423685,7.2724445 20.270693,7.20067201 20.2523538,7.10885203 L19.3767229,2.72477162 C19.3516339,2.59915689 19.4329885,2.47695986 19.5584334,2.45183692 C19.5733909,2.44884137 19.5886074,2.44733261 19.6038611,2.44733261 L21.3551228,2.44733261 Z" id="Shape" fill="#FFFFFF"></path>
                </g>
            </g>
        </g>
    </g>
</svg>