<?xml version="1.0" encoding="UTF-8"?>
<svg width="174px" height="40px" viewBox="0 0 174 40" version="1.1" xmlns="http://www.w3.org/2000/svg" xmlns:xlink="http://www.w3.org/1999/xlink">
    <title>csa_color</title>
    <defs>
        <radialGradient cx="47.134806%" cy="50%" fx="47.134806%" fy="50%" r="362.768235%" gradientTransform="translate(0.471348,0.500000),scale(0.075000,1.000000),rotate(90.000000),translate(-0.471348,-0.500000)" id="radialGradient-1">
            <stop stop-color="#2F78B8" offset="0%"></stop>
            <stop stop-color="#336FA9" offset="100%"></stop>
        </radialGradient>
        <radialGradient cx="50%" cy="50%" fx="50%" fy="50%" r="50.8525626%" gradientTransform="translate(0.500000,0.500000),scale(1.000000,0.868852),rotate(90.000000),translate(-0.500000,-0.500000)" id="radialGradient-2">
            <stop stop-color="#3B92CA" offset="0%"></stop>
            <stop stop-color="#336FA9" offset="100%"></stop>
        </radialGradient>
    </defs>
    <g id="Page-1" stroke="none" stroke-width="1" fill="none" fill-rule="evenodd">
        <g id="csa_color">
            <g id="Group" transform="translate(42.452459, 4.898361)" fill-rule="nonzero">
                <path d="M6.91164209,0.493134625 L6.91164209,2.49783408 C6.33295644,2.21910442 5.84831449,2.07974168 5.45770168,2.07974168 C4.92241746,2.07974168 4.46309262,2.21017091 4.07971338,2.47103328 C3.69633414,2.73189566 3.37987018,3.13390356 3.130312,3.67706905 C2.88075381,4.22023454 2.69630053,4.90811473 2.57694662,5.74073025 C2.4575927,6.57334578 2.39791664,7.55781846 2.39791664,8.69417784 C2.39791664,12.7822129 3.45761883,14.8261997 5.577055,14.8261997 C5.94596709,14.8261997 6.39082501,14.7118508 6.91164209,14.4831495 L6.91164209,16.5307303 C6.3691243,16.8309007 5.76151349,16.9809836 5.08879143,16.9809836 C1.69624685,16.9809836 0,14.2437565 0,8.76922007 C0,5.81039753 0.414115701,3.60918092 1.24235953,2.16550422 C2.07060335,0.721827523 3.33826757,0 5.04539022,0 C5.67471086,0 6.29678859,0.164376565 6.91164209,0.493134625 Z M17.3943099,8.9085842 C17.3943099,11.8316722 17.0651874,13.9078197 16.4069324,15.1370889 C15.7486775,16.3663582 14.6455746,16.9809836 13.0975905,16.9809836 C11.4700371,16.9809836 10.3235334,16.3199039 9.65804488,14.9977248 C8.99978997,13.7041333 8.67066744,11.4064348 8.67066744,8.10456036 C8.67066744,5.16003164 8.99617323,3.07673736 9.64719458,1.854615 C10.3054495,0.625345733 11.4194027,0.0107203179 12.9890875,0.0107203179 C14.3924001,0.0107203179 15.4340187,0.485982994 16.1139743,1.4365226 C16.5624557,2.07259798 16.8879615,2.97666909 17.0905014,4.14876304 C17.2930414,5.23509402 17.3943099,6.82168521 17.3943099,8.9085842 Z M15.0289442,9.1444312 C15.0289442,6.27851854 14.8987418,4.37746784 14.6383333,3.44122206 C14.3779248,2.49782936 13.8462653,2.02614009 13.043339,2.02614009 C12.2404126,2.02614009 11.7051364,2.45852192 11.4374943,3.32329856 C11.1770858,4.19522211 11.0468835,5.94618986 11.0468835,8.57625435 C11.0468835,10.9990583 11.1843193,12.678558 11.4591949,13.6148038 C11.7413042,14.5010212 12.2693469,14.9441232 13.043339,14.9441232 C13.8028639,14.9441232 14.3236731,14.5296084 14.6057824,13.7005663 C14.8878916,12.8786712 15.0289442,11.3599746 15.0289442,9.1444312 Z M19.9562576,0.225126677 L22.2131203,0.225126677 L22.2131203,14.8905216 L25.9022228,14.8905216 L25.9022228,16.7772976 L19.9562576,16.7772976 L19.9562576,0.225126677 Z M27.6395476,0.225126677 L29.8964103,0.225126677 L29.8964103,14.8905216 L33.5855128,14.8905216 L33.5855128,16.7772976 L27.6395476,16.7772976 L27.6395476,0.225126677 Z M35.3228376,0.225126677 L41.3230543,0.225126677 L41.3230543,2.11190263 L37.5797003,2.11190263 L37.5797003,7.3541381 L40.8998926,7.3541381 L40.8998926,9.24091406 L37.5797003,9.24091406 L37.5797003,14.8905216 L41.3230543,14.8905216 L41.3230543,16.7772976 L35.3228376,16.7772976 L35.3228376,0.225126677 Z M47.736859,8.0723994 L51.838273,8.0723994 L51.838273,8.71561848 C51.838273,11.9388769 51.5525513,14.1150796 50.9810992,15.2442921 C50.4168807,16.4020922 49.3607952,16.9809836 47.8128112,16.9809836 C46.2141921,16.9809836 45.0749218,16.337771 44.3949662,15.0513264 C43.7222441,13.7648818 43.3858881,11.6029726 43.3858881,8.56553403 C43.3858881,5.09213365 43.7547947,2.78014154 44.4926189,1.62948833 C45.1870416,0.550304258 46.2539773,0.0107203179 47.6934578,0.0107203179 C48.7929606,0.0107203179 49.6501258,0.271578779 50.2649793,0.793303527 C50.8870664,1.32217519 51.3717083,2.19051226 51.7189197,3.39834078 L49.6139612,4.26668654 C49.5199248,3.83072476 49.4150396,3.4644509 49.2993025,3.16785395 C49.1835653,2.871257 49.0569797,2.64077247 48.9195419,2.47639344 C48.6446662,2.14048847 48.2323589,1.9725385 47.6826075,1.9725385 C46.9303162,1.9725385 46.4167404,2.42993416 46.1418647,3.3447392 C45.866989,4.30242572 45.7295533,6.02123284 45.7295533,8.50121212 C45.7295533,11.0097791 45.8706058,12.7071458 46.152715,13.5933631 C46.4348243,14.4795805 46.9664837,14.9226826 47.7477093,14.9226826 C48.4638328,14.9226826 48.9665584,14.608223 49.2559013,13.9792946 C49.5524776,13.3074846 49.7007636,12.2283168 49.7007636,10.7417586 L49.7007636,9.95917536 L47.736859,9.95917536 L47.736859,8.0723994 Z M54.411071,0.225126677 L60.4112878,0.225126677 L60.4112878,2.11190263 L56.6679337,2.11190263 L56.6679337,7.3541381 L59.988126,7.3541381 L59.988126,9.24091406 L56.6679337,9.24091406 L56.6679337,14.8905216 L60.4112878,14.8905216 L60.4112878,16.7772976 L54.411071,16.7772976 L54.411071,0.225126677 Z M73.3256996,0.56817685 L73.3256996,2.74440139 C72.6385104,2.25841121 72.0200494,2.01541977 71.470298,2.01541977 C70.8771453,2.01541977 70.3925033,2.22267718 70.0163576,2.63719821 C69.640212,3.0302785 69.452142,3.55556883 69.452142,4.21308495 C69.452142,4.79198501 69.585961,5.28868811 69.8536031,5.70320914 C69.991041,5.92476349 70.2170866,6.21063577 70.531747,6.56083458 C70.8464073,6.91103338 71.2532895,7.332695 71.7524059,7.82583209 C72.6710693,8.74778404 73.2967638,9.54465304 73.6295081,10.216463 C73.9622523,10.8668322 74.1286219,11.6637012 74.1286219,12.6070939 C74.1286219,13.8863916 73.7633321,14.9405456 73.0327415,15.7695877 C72.3021508,16.577189 71.3654175,16.9809836 70.2225134,16.9809836 C69.2604485,16.9809836 68.4394505,16.7201251 67.7594949,16.1984004 L67.7594949,13.9900149 C68.5624212,14.568915 69.2930009,14.8583607 69.9512558,14.8583607 C70.5661093,14.8583607 71.0471345,14.6564634 71.3943459,14.2526627 C71.7415573,13.848862 71.9151604,13.3003446 71.9151604,12.6070939 C71.9151604,12.0067531 71.7813414,11.4671691 71.5136993,10.9883259 C71.3762614,10.7596246 71.1845747,10.4969795 70.9386333,10.2003825 C70.6926919,9.90378557 70.3852697,9.57324574 70.0163576,9.2087531 C69.4449056,8.65129378 68.9711138,8.15816409 68.5949681,7.72934923 C68.2188225,7.30053437 67.9403342,6.92532699 67.7594949,6.60371585 C67.4122835,5.97478738 67.2386804,5.18149179 67.2386804,4.22380527 C67.2386804,2.93021377 67.5786532,1.90464694 68.2586088,1.14707402 C68.945798,0.382354183 69.8680644,0 71.0254357,0 C71.828362,0 72.595109,0.18939039 73.3256996,0.56817685 Z M75.2908807,0.225126677 L82.6365348,0.225126677 L82.6365348,2.17622454 L80.1084146,2.17622454 L80.1084146,16.7772976 L77.8949531,16.7772976 L77.8949531,2.17622454 L75.2908807,2.17622454 L75.2908807,0.225126677 Z M84.2111051,0.225126677 L86.4245666,0.225126677 L86.4245666,11.9209935 C86.4245666,13.1145282 86.5330685,13.9078238 86.7500756,14.3009041 C86.9743163,14.6939844 87.4155575,14.8905216 88.0738124,14.8905216 C88.7320673,14.8905216 89.1660751,14.7189982 89.3758486,14.3759463 C89.5928557,14.0257475 89.7013577,13.3146402 89.7013577,12.2426031 L89.7013577,0.225126677 L91.9148192,0.225126677 L91.9148192,12.2426031 C91.9148192,14.0436255 91.6363309,15.2621561 91.079346,15.8982315 C90.4138575,16.6200698 89.397556,16.9809836 88.0304112,16.9809836 C86.5258285,16.9809836 85.4661264,16.5164411 84.8512729,15.5873423 C84.4244922,14.9512669 84.2111051,13.7291629 84.2111051,11.9209935 L84.2111051,0.225126677 Z M94.8239765,0.225126677 L97.6016537,0.225126677 C98.4479814,0.225126677 99.1604775,0.31803517 99.7391631,0.503854943 C100.274447,0.682527802 100.751856,1.00056072 101.171403,1.45796324 C101.800724,2.14406702 102.249198,3.03741791 102.51684,4.13804272 C102.784482,5.20293296 102.918301,6.72877629 102.918301,8.71561848 C102.918301,10.5380816 102.770015,12.0246175 102.473439,13.1752707 C102.184096,14.2758956 101.706688,15.1156454 101.041199,15.6945455 C100.223806,16.4163838 98.7590297,16.7772976 96.6468272,16.7772976 L94.8239765,16.7772976 L94.8239765,0.225126677 Z M97.0808392,14.8261997 C98.4552176,14.8261997 99.3738673,14.4152583 99.8368158,13.5933631 C100.314231,12.771468 100.552936,11.1741566 100.552936,8.80138102 C100.552936,6.2499326 100.325082,4.49539144 99.8693667,3.53770492 C99.4136518,2.58001839 98.5781869,2.10118231 97.3629471,2.10118231 L97.0808392,2.10118231 L97.0808392,14.8261997 Z M105.491099,0.225126677 L111.491316,0.225126677 L111.491316,2.11190263 L107.747962,2.11190263 L107.747962,7.3541381 L111.068154,7.3541381 L111.068154,9.24091406 L107.747962,9.24091406 L107.747962,14.8905216 L111.491316,14.8905216 L111.491316,16.7772976 L105.491099,16.7772976 L105.491099,0.225126677 Z M113.890509,0.225126677 L115.995468,0.225126677 L118.24148,6.82884252 C118.892502,8.69418717 119.467562,10.684573 119.966678,12.8000596 C119.785839,11.5207619 119.65202,10.3629792 119.565217,9.3266766 C119.478414,8.29037402 119.435013,7.31483484 119.435013,6.40002981 L119.435013,0.225126677 L121.702726,0.225126677 L121.702726,16.7772976 L119.586918,16.7772976 L117.058797,9.3266766 C116.827323,8.63342591 116.608511,7.9223186 116.402354,7.19333333 C116.196197,6.46434807 116.006319,5.6996397 115.832713,4.8991853 C115.818246,4.79912849 115.794737,4.67763277 115.762186,4.53469449 C115.729635,4.3917562 115.69166,4.22737963 115.648258,4.04155986 C115.669959,4.22737963 115.688043,4.38639609 115.70251,4.51861401 C115.716977,4.65083192 115.727827,4.76339414 115.735061,4.85630402 L115.854414,6.53939394 L115.973767,8.58697466 C115.981001,8.70132529 115.986426,8.84068803 115.990043,9.00506706 C115.993659,9.16944609 115.995468,9.35526308 115.995468,9.5625236 L116.114821,16.7772976 L113.890509,16.7772976 L113.890509,0.225126677 Z M123.277297,0.225126677 L130.622951,0.225126677 L130.622951,2.17622454 L128.094831,2.17622454 L128.094831,16.7772976 L125.881369,16.7772976 L125.881369,2.17622454 L123.277297,2.17622454 L123.277297,0.225126677 Z" id="COLLEGESTUDENT" fill="#58595B"></path>
                <path d="M6.12039179,26.3387396 L5.00297587,23.2495725 L3.88555994,26.3387396 L6.12039179,26.3387396 Z M6.78068303,28.172548 L3.2252687,28.172548 L2.65386283,29.7848225 L0,29.7848225 L3.64429968,20.5050136 L6.36165205,20.5050136 L10.0059517,29.7848225 L7.3520889,29.7848225 L6.78068303,28.172548 Z M18.0408579,24.7633874 L18.866222,24.7633874 C19.780476,24.7633874 20.2375961,24.3777582 20.2375961,23.6064882 C20.2375961,22.8352182 19.780476,22.4495889 18.866222,22.4495889 L18.0408579,22.4495889 L18.0408579,24.7633874 Z M18.0408579,29.7848225 L15.5520679,29.7848225 L15.5520679,20.5050136 L19.5138153,20.5050136 C20.5889103,20.5050136 21.4121497,20.7757745 21.9835585,21.3173046 C22.5549672,21.8588346 22.8406673,22.6218881 22.8406673,23.6064882 C22.8406673,24.5910882 22.5549672,25.3541418 21.9835585,25.8956718 C21.4121497,26.4372018 20.5889103,26.7079628 19.5138153,26.7079628 L18.0408579,26.7079628 L18.0408579,29.7848225 Z M33.2881761,26.3387396 L32.1707601,23.2495725 L31.0533442,26.3387396 L33.2881761,26.3387396 Z M33.9484673,28.172548 L30.393053,28.172548 L29.8216471,29.7848225 L27.1677843,29.7848225 L30.812084,20.5050136 L33.5294363,20.5050136 L37.173736,29.7848225 L34.5198732,29.7848225 L33.9484673,28.172548 Z M45.2086422,24.6526205 L45.6784648,24.6526205 C46.1694531,24.6526205 46.5461539,24.554162 46.8085787,24.3572419 C47.0710034,24.1603219 47.2022138,23.8772537 47.2022138,23.5080287 C47.2022138,23.1388037 47.0710034,22.8557354 46.8085787,22.6588154 C46.5461539,22.4618954 46.1694531,22.3634369 45.6784648,22.3634369 L45.2086422,22.3634369 L45.2086422,24.6526205 Z M50.6814407,29.7848225 L47.5831511,29.7848225 L45.2086422,26.2156652 L45.2086422,29.7848225 L42.7198522,29.7848225 L42.7198522,20.5050136 L46.5927142,20.5050136 C47.126029,20.5050136 47.5916144,20.5809087 47.9894841,20.7327012 C48.3873539,20.8844937 48.7153799,21.0916669 48.973572,21.3542269 C49.2317641,21.6167869 49.4264634,21.9203673 49.5576758,22.2649773 C49.6888882,22.6095874 49.7544934,22.9788068 49.7544934,23.3726468 C49.7544934,24.0782769 49.5788408,24.650567 49.2275302,25.0895346 C48.8762196,25.5285021 48.3577269,25.8259289 47.6720364,25.9818239 L50.6814407,29.7848225 Z M59.8210649,22.5480484 L59.8210649,29.7848225 L57.3322749,29.7848225 L57.3322749,22.5480484 L55.2879117,22.5480484 L55.2879117,20.5050136 L61.8654282,20.5050136 L61.8654282,22.5480484 L59.8210649,22.5480484 Z M66.9925134,29.7848225 L68.6178457,20.5050136 L71.0812399,20.5050136 L72.998624,25.452604 L74.9033103,20.5050136 L77.3667045,20.5050136 L78.9920367,29.7848225 L76.5159446,29.7848225 L75.6905806,24.443394 L73.4303529,29.7848225 L72.439916,29.7848225 L70.2939695,24.443394 L69.4686055,29.7848225 L66.9925134,29.7848225 Z M90.4680761,22.5480484 L87.5094635,22.5480484 L87.5094635,24.0987857 L90.3030033,24.0987857 L90.3030033,26.1418206 L87.5094635,26.1418206 L87.5094635,27.7417876 L90.4680761,27.7417876 L90.4680761,29.7848225 L85.0206734,29.7848225 L85.0206734,20.5050136 L90.4680761,20.5050136 L90.4680761,22.5480484 Z M96.7125772,29.7848225 L96.7125772,20.5050136 L99.2013673,20.5050136 L103.79801,26.1787429 L103.79801,20.5050136 L106.274102,20.5050136 L106.274102,29.7848225 L103.79801,29.7848225 L99.2013673,24.1110932 L99.2013673,29.7848225 L96.7125772,29.7848225 Z M116.36607,22.5480484 L116.36607,29.7848225 L113.87728,29.7848225 L113.87728,22.5480484 L111.832916,22.5480484 L111.832916,20.5050136 L118.410433,20.5050136 L118.410433,22.5480484 L116.36607,22.5480484 Z M129.238879,22.8803493 C128.967989,22.6670193 128.697103,22.5090754 128.426213,22.4065129 C128.155323,22.3039504 127.892902,22.2526699 127.638942,22.2526699 C127.31726,22.2526699 127.05484,22.3265138 126.851672,22.4742038 C126.648505,22.6218938 126.546922,22.8147084 126.546922,23.0526534 C126.546922,23.2167534 126.597713,23.3521339 126.699297,23.4587989 C126.800881,23.5654639 126.934208,23.6577688 127.099281,23.7357163 C127.264355,23.8136638 127.450589,23.881354 127.657989,23.938789 C127.865389,23.996224 128.07067,24.0577606 128.273838,24.1234006 C129.086508,24.3859606 129.681187,24.7367191 130.057894,25.1756866 C130.4346,25.6146541 130.622951,26.1869443 130.622951,26.8925743 C130.622951,27.3684644 130.540415,27.7992204 130.375342,28.1848554 C130.210268,28.5704904 129.96901,28.9007367 129.651561,29.1756043 C129.334112,29.4504718 128.944713,29.6637986 128.483353,29.8155911 C128.021994,29.9673836 127.499268,30.0432787 126.915162,30.0432787 C125.704622,30.0432787 124.582984,29.6945714 123.550216,28.9971464 L124.61684,27.0525711 C124.989314,27.3725661 125.35755,27.6105075 125.721558,27.7664025 C126.085567,27.9222975 126.445337,28.0002438 126.80088,28.0002438 C127.207216,28.0002438 127.509846,27.9099902 127.708781,27.7294802 C127.907716,27.5489702 128.007182,27.3438483 128.007182,27.1141082 C128.007182,26.9746232 127.981786,26.8536013 127.930994,26.7510388 C127.880202,26.6484763 127.795551,26.5541202 127.677036,26.4679677 C127.558522,26.3818152 127.404032,26.3018177 127.213562,26.2279727 C127.023093,26.1541276 126.792417,26.0720789 126.521526,25.9818239 C126.199844,25.8833639 125.884516,25.7746492 125.575532,25.6556767 C125.266548,25.5367042 124.99143,25.3787604 124.750168,25.1818403 C124.508907,24.9849203 124.314207,24.7367228 124.166064,24.4372403 C124.017921,24.1377578 123.943851,23.7582822 123.943851,23.2988022 C123.943851,22.8393222 124.022154,22.4229247 124.178762,22.0495972 C124.335371,21.6762697 124.555466,21.3562794 124.839054,21.0896169 C125.122642,20.8229544 125.469714,20.6157813 125.880282,20.4680913 C126.29085,20.3204013 126.750086,20.2465574 127.258005,20.2465574 C127.732063,20.2465574 128.227276,20.3101452 128.74366,20.4373227 C129.260045,20.5645002 129.755258,20.7511611 130.229316,20.9973111 L129.238879,22.8803493 Z" id="APARTMENTS" fill="url(#radialGradient-1)"></path>
            </g>
            <path d="M16.5891148,23.5774426 L11.7560656,23.5774426 L11.7560656,32.4598033 L16.5891148,32.4598033 L16.5891148,23.5774426 Z M22.8590164,23.5774426 L18.0259672,23.5774426 L18.0259672,32.4598033 L22.8590164,32.4598033 L22.8590164,23.5774426 Z M15.0216393,25.144918 L15.0216393,30.8923279 L13.323541,30.8923279 L13.323541,25.144918 L15.0216393,25.144918 Z M21.291541,25.144918 L21.291541,30.8923279 L19.5934426,30.8923279 L19.5934426,25.144918 L21.291541,25.144918 Z M16.5891148,13.1276066 L11.7560656,13.1276066 L11.7560656,22.0099672 L16.5891148,22.0099672 L16.5891148,13.1276066 Z M22.8590164,13.1276066 L18.0259672,13.1276066 L18.0259672,22.0099672 L22.8590164,22.0099672 L22.8590164,13.1276066 Z M15.0216393,14.695082 L15.0216393,20.4424918 L13.323541,20.4424918 L13.323541,14.695082 L15.0216393,14.695082 Z M21.291541,14.695082 L21.291541,20.4424918 L19.5934426,20.4424918 L19.5934426,14.695082 L21.291541,14.695082 Z M17.307541,11.0376393 L25.5368183,11.0376393 L25.5370976,36.3750349 C22.3927158,38.4527508 19.2157591,39.7693864 17.447775,39.8372442 L17.307541,39.84 C15.5710741,39.84 12.3073494,38.5089052 9.07798435,36.3750349 L9.07826371,11.0376393 L17.307541,11.0376393 L17.307541,8.81704918 L6.50574666,8.81704918 L5.65021493,6.92301639 L17.307541,6.92301639 L17.307541,4.70242623 L2.39755289,4.70242623 L4.70242623,11.0376393 L6.9882965,11.0376393 L6.98806331,34.8712918 C3.2960591,31.980676 0.121891848,28.139524 0.00342630003,24.2064346 L0,23.9794297 L0,0 L34.615082,0 L34.615082,23.9794297 L34.6116557,24.2064346 C34.495513,28.0624046 31.4423252,31.8300073 27.843579,34.7001657 L27.6270187,34.8712918 L27.6267855,11.0376393 L29.9126557,11.0376393 L32.2175291,4.70242623 L17.307541,4.70177311 L17.307541,6.92301639 L28.964867,6.92301639 L28.1093353,8.81704918 L17.307541,8.81704918 L17.307541,11.0376393 Z" id="Shape" fill="url(#radialGradient-2)"></path>
        </g>
    </g>
</svg>