<?xml version="1.0" encoding="UTF-8"?>
<svg width="100px" height="23px" viewBox="0 0 100 23" version="1.1" xmlns="http://www.w3.org/2000/svg" xmlns:xlink="http://www.w3.org/1999/xlink">
    <title>csa_bababa</title>
    <g id="Page-1" stroke="none" stroke-width="1" fill="none" fill-rule="evenodd">
        <g id="csa_bababa" fill="#BABABA">
            <g id="Group" transform="translate(24.285447, 2.802167)" fill-rule="nonzero">
                <path d="M3.95388923,0.282103682 L3.95388923,1.42891648 C3.62284504,1.26946577 3.3455997,1.18974162 3.12214487,1.18974162 C2.815929,1.18974162 2.55316662,1.26435525 2.33384984,1.41358475 C2.11453307,1.56281426 1.933496,1.79278779 1.79073319,2.10351224 C1.64797039,2.41423669 1.54245163,2.80774695 1.47417377,3.28405482 C1.40589591,3.76036269 1.37175749,4.32354231 1.37175749,4.97361057 C1.37175749,7.3122209 1.97797306,8.48150853 3.19042239,8.48150853 C3.40146306,8.48150853 3.65594946,8.41609384 3.95388923,8.28526249 L3.95388923,9.45660604 C3.6435353,9.62832218 3.29594412,9.71417897 2.91110526,9.71417897 C0.970358715,9.71417897 0,8.14831477 0,5.01653939 C0,3.32390883 0.236899942,2.06467601 0.710706933,1.23880313 C1.18451392,0.412930246 1.90969672,0 2.88627707,0 C3.24628762,0 3.60215478,0.0940336203 3.95388923,0.282103682 Z M9.95062731,5.09626434 C9.95062731,6.7684525 9.76234875,7.95613801 9.38578599,8.6593565 C9.00922323,9.36257499 8.37817972,9.71417897 7.49263652,9.71417897 C6.56157474,9.71417897 5.90570329,9.33600027 5.52500248,8.57963155 C5.14843971,7.83961674 4.96016116,6.52519026 4.96016116,4.63631269 C4.96016116,2.95185909 5.14637072,1.76008516 5.51879543,1.06095515 C5.89535819,0.35773666 6.53260869,0.00613268874 7.43056604,0.00613268874 C8.23334819,0.00613268874 8.82921879,0.278012504 9.21819571,0.821780291 C9.47475495,1.18565498 9.66096452,1.70283989 9.77682998,2.37335054 C9.89269545,2.99479944 9.95062731,3.9024283 9.95062731,5.09626434 Z M8.59749096,5.2311835 C8.59749096,3.59170318 8.52300714,2.50418391 8.37403726,1.96859309 C8.22506737,1.42891378 7.92092509,1.15907817 7.46160128,1.15907817 C7.00227747,1.15907817 6.69606619,1.40642748 6.54295826,1.90113351 C6.39398837,2.39992802 6.31950455,3.4015905 6.31950455,4.90615099 C6.31950455,6.29214558 6.39812636,7.25292387 6.55537235,7.7885147 C6.71675639,8.29548617 7.01882968,8.5489681 7.46160128,8.5489681 C7.89609677,8.5489681 8.19403207,8.31183984 8.35541611,7.83757621 C8.51680015,7.36740106 8.59749096,6.49861217 8.59749096,5.2311835 Z M11.4162207,0.128786464 L12.7072866,0.128786464 L12.7072866,8.51830466 L14.8176828,8.51830466 L14.8176828,9.59765788 L11.4162207,9.59765788 L11.4162207,0.128786464 Z M15.8115406,0.128786464 L17.1026065,0.128786464 L17.1026065,8.51830466 L19.2130026,8.51830466 L19.2130026,9.59765788 L15.8115406,9.59765788 L15.8115406,0.128786464 Z M20.2068604,0.128786464 L23.6393577,0.128786464 L23.6393577,1.20813968 L21.4979263,1.20813968 L21.4979263,4.20702448 L23.3972828,4.20702448 L23.3972828,5.28637769 L21.4979263,5.28637769 L21.4979263,8.51830466 L23.6393577,8.51830466 L23.6393577,9.59765788 L20.2068604,9.59765788 L20.2068604,0.128786464 Z M27.308453,4.61791462 L29.6547169,4.61791462 L29.6547169,4.98587595 C29.6547169,6.82978025 29.4912663,8.07470361 29.1643601,8.72068339 C28.8415921,9.38301708 28.2374455,9.71417897 27.3519023,9.71417897 C26.4373927,9.71417897 25.7856593,9.34622132 25.3966823,8.61029499 C25.0118435,7.87436866 24.8194269,6.63762213 24.8194269,4.9000183 C24.8194269,2.91301722 25.0304644,1.5904139 25.4525458,0.932168689 C25.8497988,0.314808269 26.4601524,0.00613268874 27.2836248,0.00613268874 C27.9126087,0.00613268874 28.4029606,0.155359956 28.754695,0.453818967 C29.1105675,0.756366457 29.3878129,1.25310928 29.5864394,1.94406233 L28.3822722,2.44081012 C28.3284775,2.19141286 28.2684766,1.98188143 28.2022678,1.81220952 C28.136059,1.64253762 28.0636441,1.51068613 27.9850211,1.4166511 C27.8277751,1.22449256 27.5919097,1.12841473 27.2774177,1.12841473 C26.8470603,1.12841473 26.553263,1.3900735 26.396017,1.91339889 C26.238771,2.46125515 26.1601492,3.44451975 26.1601492,4.86322217 C26.1601492,6.29827851 26.24084,7.26927785 26.402224,7.77624932 C26.5636081,8.28322079 26.8677504,8.53670273 27.31466,8.53670273 C27.7243272,8.53670273 28.0119175,8.35681232 28.1774396,7.99702612 C28.3470997,7.61270904 28.4319285,6.99535788 28.4319285,6.14495412 L28.4319285,5.69726784 L27.308453,5.69726784 L27.308453,4.61791462 Z M31.1265174,0.128786464 L34.5590146,0.128786464 L34.5590146,1.20813968 L32.4175833,1.20813968 L32.4175833,4.20702448 L34.3169398,4.20702448 L34.3169398,5.28637769 L32.4175833,5.28637769 L32.4175833,8.51830466 L34.5590146,8.51830466 L34.5590146,9.59765788 L31.1265174,9.59765788 L31.1265174,0.128786464 Z M41.9468616,0.325032503 L41.9468616,1.56996832 C41.5537466,1.2919517 41.1999484,1.15294548 40.8854565,1.15294548 C40.5461362,1.15294548 40.2688908,1.27150961 40.0537121,1.50864143 C39.8385334,1.73350781 39.7309456,2.03400655 39.7309456,2.41014668 C39.7309456,2.74131352 39.8074985,3.02545859 39.9606064,3.26259041 C40.0392294,3.38933328 40.1685416,3.55287001 40.3485469,3.75320551 C40.5285521,3.95354101 40.7613141,4.19475769 41.0468397,4.47686278 C41.5723723,5.00427665 41.9303085,5.46013529 42.1206589,5.84445237 C42.3110093,6.21650401 42.4061831,6.67236265 42.4061831,7.21204196 C42.4061831,7.94387981 42.1972146,8.5469215 41.7792713,9.02118514 C41.361328,9.48318333 40.8254583,9.71417897 40.171646,9.71417897 C39.621285,9.71417897 39.1516231,9.5649517 38.7626462,9.26649269 L38.7626462,8.00315881 C39.22197,8.33432565 39.6399071,8.49990659 40.0164698,8.49990659 C40.3682043,8.49990659 40.6433806,8.38440878 40.8420071,8.15340968 C41.0406336,7.92241058 41.1399454,7.60862448 41.1399454,7.21204196 C41.1399454,6.86860967 41.0633926,6.55993409 40.9102846,6.28600596 C40.8316617,6.15517461 40.7220049,6.00492524 40.5813111,5.83525334 C40.4406174,5.66558143 40.2647528,5.47649209 40.0537121,5.26797963 C39.726806,4.94907822 39.4557676,4.66697736 39.2405889,4.42166858 C39.0254102,4.17635981 38.8660975,3.96171785 38.7626462,3.77773626 C38.5640197,3.41795006 38.464708,2.96413563 38.464708,2.41627936 C38.464708,1.67626456 38.6591935,1.08957653 39.0481704,0.656197695 C39.4412854,0.218730378 39.9688791,0 40.6309675,0 C41.0902913,0 41.5289183,0.108343084 41.9468616,0.325032503 Z M43.0710674,0.128786464 L47.2732385,0.128786464 L47.2732385,1.24493581 L45.8269965,1.24493581 L45.8269965,9.59765788 L44.5607588,9.59765788 L44.5607588,1.24493581 L43.0710674,1.24493581 L43.0710674,0.128786464 Z M48.1739907,0.128786464 L49.4402283,0.128786464 L49.4402283,6.81954988 C49.4402283,7.50232597 49.5022982,7.9561404 49.6264398,8.18100678 C49.7547194,8.40587316 50.0071368,8.51830466 50.3836995,8.51830466 C50.7602623,8.51830466 51.0085417,8.42018262 51.1285452,8.2239356 C51.2526868,8.0236001 51.3147567,7.61680248 51.3147567,7.00353054 L51.3147567,0.128786464 L52.5809943,0.128786464 L52.5809943,7.00353054 C52.5809943,8.0338274 52.4216817,8.73090272 52.1030517,9.0947774 C51.7223509,9.50771384 51.1409632,9.71417897 50.3588714,9.71417897 C49.4981565,9.71417897 48.8919409,9.44843178 48.5402065,8.91692943 C48.2960614,8.55305474 48.1739907,7.85393522 48.1739907,6.81954988 L48.1739907,0.128786464 Z M54.2452133,0.128786464 L55.8342175,0.128786464 C56.3183696,0.128786464 56.7259616,0.181935901 57.0570058,0.288236371 C57.3632217,0.390448361 57.636329,0.572382974 57.8763361,0.834045669 C58.2363466,1.22653971 58.492902,1.737592 58.6460099,2.36721785 C58.7991179,2.97640131 58.8756707,3.84927862 58.8756707,4.98587595 C58.8756707,6.02843824 58.7908419,6.87882925 58.6211818,7.53707446 C58.4556597,8.16670032 58.1825523,8.64708947 57.8018515,8.97825632 C57.3342516,9.39119276 56.4963086,9.59765788 55.2879973,9.59765788 L54.2452133,9.59765788 L54.2452133,0.128786464 Z M55.5362792,8.48150853 C56.3225091,8.48150853 56.8480339,8.24642448 57.1128692,7.77624932 C57.3859807,7.30607417 57.5225344,6.39231268 57.5225344,5.03493746 C57.5225344,3.57535024 57.3921877,2.57164355 57.1314904,2.02378728 C56.8707931,1.47593102 56.3928552,1.20200699 55.6976624,1.20200699 L55.5362792,1.20200699 L55.5362792,8.48150853 Z M60.3474712,0.128786464 L63.7799684,0.128786464 L63.7799684,1.20813968 L61.6385371,1.20813968 L61.6385371,4.20702448 L63.5378936,4.20702448 L63.5378936,5.28637769 L61.6385371,5.28637769 L61.6385371,8.51830466 L63.7799684,8.51830466 L63.7799684,9.59765788 L60.3474712,9.59765788 L60.3474712,0.128786464 Z M65.1524562,0.128786464 L66.3566234,0.128786464 L67.6414822,3.90652273 C68.0139069,4.9736159 68.3428771,6.11224039 68.6284027,7.32243036 C68.5249514,6.59059251 68.4483986,5.92826875 68.398742,5.3354392 C68.3490854,4.74260966 68.3242574,4.18454057 68.3242574,3.66121518 L68.3242574,0.128786464 L69.6215303,0.128786464 L69.6215303,9.59765788 L68.4111561,9.59765788 L66.964914,5.3354392 C66.8324963,4.93885668 66.7073221,4.53205906 66.5893876,4.11503414 C66.4714532,3.69800923 66.3628309,3.26054847 66.2635177,2.80263875 C66.2552416,2.74540004 66.2417931,2.67589693 66.2231718,2.59412734 C66.2045506,2.51235775 66.1828262,2.41832412 66.1579978,2.31202366 C66.170412,2.41832412 66.180757,2.50929143 66.1890331,2.5849283 C66.1973092,2.66056518 66.2035162,2.72495776 66.2076542,2.778108 L66.2759318,3.74094013 L66.3442093,4.91228368 C66.3483473,4.97769935 66.3514508,5.05742351 66.3535198,5.15145854 C66.3555889,5.24549357 66.3566234,5.35179245 66.3566234,5.47035836 L66.4249009,9.59765788 L65.1524562,9.59765788 L65.1524562,0.128786464 Z M70.5222825,0.128786464 L74.7244536,0.128786464 L74.7244536,1.24493581 L73.2782115,1.24493581 L73.2782115,9.59765788 L72.0119738,9.59765788 L72.0119738,1.24493581 L70.5222825,1.24493581 L70.5222825,0.128786464 Z" id="COLLEGESTUDENT"></path>
                <path d="M3.50124484,15.0673975 L2.86201342,13.3002017 L2.22278199,15.0673975 L3.50124484,15.0673975 Z M3.8789725,16.11645 L1.84505433,16.11645 L1.51817463,17.0387713 L0,17.0387713 L2.08476612,11.7301433 L3.63926072,11.7301433 L5.72402683,17.0387713 L4.2058522,17.0387713 L3.8789725,16.11645 Z M10.320493,14.1661981 L10.7926526,14.1661981 C11.3156627,14.1661981 11.5771639,13.9455942 11.5771639,13.5043797 C11.5771639,13.0631653 11.3156627,12.8425614 10.7926526,12.8425614 L10.320493,12.8425614 L10.320493,14.1661981 Z M10.320493,17.0387713 L8.89675031,17.0387713 L8.89675031,11.7301433 L11.1631163,11.7301433 C11.7781374,11.7301433 12.2490816,11.8850354 12.575963,12.1948243 C12.9028443,12.5046132 13.0662825,12.9411273 13.0662825,13.5043797 C13.0662825,14.0676322 12.9028443,14.5041463 12.575963,14.8139352 C12.2490816,15.123724 11.7781374,15.2786161 11.1631163,15.2786161 L10.320493,15.2786161 L10.320493,17.0387713 Z M19.0429075,15.0673975 L18.4036761,13.3002017 L17.7644446,15.0673975 L19.0429075,15.0673975 Z M19.4206351,16.11645 L17.386717,16.11645 L17.0598373,17.0387713 L15.5416626,17.0387713 L17.6264288,11.7301433 L19.1809234,11.7301433 L21.2656895,17.0387713 L19.7475148,17.0387713 L19.4206351,16.11645 Z M25.8621557,14.1028325 L26.1309234,14.1028325 C26.4117992,14.1028325 26.6272956,14.0465081 26.7774188,13.9338576 C26.9275421,13.8212071 27.0026026,13.6592744 27.0026026,13.4480548 C27.0026026,13.2368351 26.9275421,13.0749024 26.7774188,12.9622519 C26.6272956,12.8496015 26.4117992,12.7932771 26.1309234,12.7932771 L25.8621557,12.7932771 L25.8621557,14.1028325 Z M28.9929368,17.0387713 L27.2205224,17.0387713 L25.8621557,14.9969913 L25.8621557,17.0387713 L24.4384129,17.0387713 L24.4384129,11.7301433 L26.653931,11.7301433 C26.9590202,11.7301433 27.225364,11.7735601 27.4529702,11.8603948 C27.6805765,11.9472296 27.8682278,12.0657455 28.0159297,12.2159462 C28.1636317,12.3661468 28.2750118,12.5398137 28.3500734,12.7369521 C28.4251351,12.9340905 28.4626653,13.145307 28.4626653,13.3706079 C28.4626653,13.7742722 28.3621811,14.1016578 28.1612096,14.3527745 C27.9602381,14.6038912 27.663628,14.7740379 27.2713704,14.8632195 L28.9929368,17.0387713 Z M34.2213705,12.8988864 L34.2213705,17.0387713 L32.7976277,17.0387713 L32.7976277,12.8988864 L31.6281248,12.8988864 L31.6281248,11.7301433 L35.3908734,11.7301433 L35.3908734,12.8988864 L34.2213705,12.8988864 Z M38.3238851,17.0387713 L39.2536762,11.7301433 L40.662891,11.7301433 L41.759754,14.5604728 L42.849353,11.7301433 L44.2585677,11.7301433 L45.1883589,17.0387713 L43.7718802,17.0387713 L43.2997206,13.9831419 L42.0067298,17.0387713 L41.4401383,17.0387713 L40.2125234,13.9831419 L39.7403638,17.0387713 L38.3238851,17.0387713 Z M51.7533673,12.8988864 L50.0608568,12.8988864 L50.0608568,13.7860046 L51.6589354,13.7860046 L51.6589354,14.9547476 L50.0608568,14.9547476 L50.0608568,15.8700283 L51.7533673,15.8700283 L51.7533673,17.0387713 L48.6371141,17.0387713 L48.6371141,11.7301433 L51.7533673,11.7301433 L51.7533673,12.8988864 Z M55.3256104,17.0387713 L55.3256104,11.7301433 L56.7493531,11.7301433 L59.3789188,14.9758694 L59.3789188,11.7301433 L60.7953975,11.7301433 L60.7953975,17.0387713 L59.3789188,17.0387713 L56.7493531,13.7930452 L56.7493531,17.0387713 L55.3256104,17.0387713 Z M66.5686306,12.8988864 L66.5686306,17.0387713 L65.1448879,17.0387713 L65.1448879,12.8988864 L63.9753849,12.8988864 L63.9753849,11.7301433 L67.7381335,11.7301433 L67.7381335,12.8988864 L66.5686306,12.8988864 Z M73.9326783,13.0889831 C73.7777123,12.9669451 73.6227487,12.8765914 73.4677827,12.8179192 C73.3128167,12.7592471 73.1626957,12.7299115 73.0174151,12.7299115 C72.833393,12.7299115 72.683272,12.7721548 72.5670475,12.8566426 C72.450823,12.9411305 72.3927117,13.0514325 72.3927117,13.1875518 C72.3927117,13.2814272 72.4217674,13.3588733 72.4798796,13.4198923 C72.5379918,13.4809113 72.614263,13.5337154 72.7086954,13.5783063 C72.8031278,13.6228971 72.9096653,13.6616201 73.0283111,13.6944765 C73.1469569,13.7273329 73.2643903,13.7625356 73.3806148,13.8000858 C73.8455127,13.9502865 74.1857063,14.1509421 74.4012059,14.4020589 C74.6167054,14.6531756 74.7244536,14.9805612 74.7244536,15.3842254 C74.7244536,15.6564641 74.6772381,15.9028834 74.5828057,16.1234906 C74.4883733,16.3440978 74.3503588,16.5330193 74.1687581,16.6902606 C73.9871573,16.8475019 73.7643971,16.9695381 73.5004707,17.0563728 C73.2365443,17.1432076 72.9375129,17.1866243 72.6033675,17.1866243 C71.9108633,17.1866243 71.269217,16.9871421 70.6784092,16.5881716 L71.2885847,15.4757535 C71.5016629,15.6588106 71.7123166,15.7949279 71.9205521,15.8841095 C72.1287876,15.9732911 72.3345987,16.0178813 72.5379916,16.0178813 C72.7704405,16.0178813 72.9435639,15.9662506 73.0573671,15.8629876 C73.1711702,15.7597247 73.2280709,15.6423822 73.2280709,15.5109566 C73.2280709,15.4311625 73.2135431,15.3619304 73.184487,15.3032583 C73.1554308,15.2445862 73.1070047,15.1906086 73.0392071,15.141324 C72.9714095,15.0920394 72.8830318,15.0462759 72.7740713,15.0040319 C72.6651109,14.961788 72.5331497,14.914851 72.3781837,14.8632195 C72.1941616,14.8068943 72.0137742,14.7447027 71.8370162,14.6766431 C71.6602581,14.6085834 71.5028732,14.5182297 71.3648566,14.4055792 C71.22684,14.2929287 71.1154599,14.1509443 71.0307129,13.9796216 C70.9459659,13.808299 70.903593,13.5912154 70.903593,13.3283642 C70.903593,13.0655131 70.9483872,12.8273078 71.0379769,12.6137412 C71.1275666,12.4001747 71.2534746,12.2171204 71.4157046,12.0645728 C71.5779346,11.9120253 71.7764817,11.7935093 72.011352,11.7090215 C72.2462223,11.6245336 72.5089341,11.5822903 72.7994953,11.5822903 C73.0706858,11.5822903 73.3539787,11.6186665 73.6493825,11.6914199 C73.9447864,11.7641734 74.2280793,11.870955 74.4992698,12.0117682 L73.9326783,13.0889831 Z" id="APARTMENTS"></path>
            </g>
            <path d="M9.4900056,13.4877639 L6.72520082,13.4877639 L6.72520082,18.5690267 L9.4900056,18.5690267 L9.4900056,13.4877639 Z M13.0767794,13.4877639 L10.3119746,13.4877639 L10.3119746,18.5690267 L13.0767794,18.5690267 L13.0767794,13.4877639 Z M8.59331216,14.3844573 L8.59331216,17.6723333 L7.62189426,17.6723333 L7.62189426,14.3844573 L8.59331216,14.3844573 Z M12.1800859,14.3844573 L12.1800859,17.6723333 L11.208668,17.6723333 L11.208668,14.3844573 L12.1800859,14.3844573 Z M9.4900056,7.50980758 L6.72520082,7.50980758 L6.72520082,12.5910704 L9.4900056,12.5910704 L9.4900056,7.50980758 Z M13.0767794,7.50980758 L10.3119746,7.50980758 L10.3119746,12.5910704 L13.0767794,12.5910704 L13.0767794,7.50980758 Z M8.59331216,8.40650103 L8.59331216,11.694377 L7.62189426,11.694377 L7.62189426,8.40650103 L8.59331216,8.40650103 Z M12.1800859,8.40650103 L12.1800859,11.694377 L11.208668,11.694377 L11.208668,8.40650103 L12.1800859,8.40650103 Z M9.9009901,6.31421633 L14.6086486,6.31421633 L14.6088084,20.8087828 C12.8100264,21.9973655 10.9926096,22.750563 9.98121267,22.7893818 L9.9009901,22.7909583 C8.90762301,22.7909583 7.04056948,22.0294893 5.19317176,20.8087828 L5.19333158,6.31421633 L9.9009901,6.31421633 L9.9009901,5.04390062 L3.72169179,5.04390062 L3.23227442,3.96039604 L9.9009901,3.96039604 L9.9009901,2.69008033 L1.3715494,2.69008033 L2.69008033,6.31421633 L3.99774032,6.31421633 L3.99760692,19.9485482 C1.88555084,18.2949361 0.0697297197,16.0975582 0.00196005676,13.8475864 L0,13.7177255 L0,0 L19.8019802,0 L19.8019802,13.7177255 L19.8000201,13.8475864 C19.7335793,16.0534411 17.986966,18.2087442 15.9282592,19.8506534 L15.8043733,19.9485482 L15.8042399,6.31421633 L17.1118999,6.31421633 L18.4304308,2.69008033 L9.9009901,2.68970671 L9.9009901,3.96039604 L16.5697058,3.96039604 L16.0802884,5.04390062 L9.9009901,5.04390062 L9.9009901,6.31421633 Z" id="Shape"></path>
        </g>
    </g>
</svg>