<?xml version="1.0" encoding="UTF-8"?>
<svg width="122px" height="28px" viewBox="0 0 122 28" version="1.1" xmlns="http://www.w3.org/2000/svg" xmlns:xlink="http://www.w3.org/1999/xlink">
    <title>csa_757575</title>
    <g id="Page-1" stroke="none" stroke-width="1" fill="none" fill-rule="evenodd">
        <g id="csa_757575" fill="#757575">
            <g id="Group" transform="translate(29.716721, 3.428852)" fill-rule="nonzero">
                <path d="M4.83814946,0.345194237 L4.83814946,1.74848385 C4.43306951,1.55337309 4.09382014,1.45581918 3.82039118,1.45581918 C3.44569222,1.45581918 3.12416483,1.54711964 2.85579937,1.7297233 C2.5874339,1.91232696 2.36590913,2.19373249 2.1912184,2.57394834 C2.01652767,2.95416418 1.88741037,3.43568031 1.80386263,4.01851118 C1.72031489,4.60134204 1.67854165,5.29047292 1.67854165,6.08592449 C1.67854165,8.947549 2.42033318,10.3783398 3.9039385,10.3783398 C4.16217697,10.3783398 4.47357751,10.2982956 4.83814946,10.1382047 L4.83814946,11.5715112 C4.45838701,11.7816305 4.03305944,11.8866885 3.562154,11.8866885 C1.18737279,11.8866885 0,9.97062953 0,6.13845405 C0,4.06727827 0.289880991,2.52642665 0.869651669,1.51585296 C1.44942235,0.505279266 2.3367873,0 3.53177315,0 C3.9722976,0 4.40775201,0.115063595 4.83814946,0.345194237 Z M12.1760169,6.23600894 C12.1760169,8.28217052 11.9456312,9.73547376 11.4848527,10.5959622 C11.0240743,11.4564507 10.2519022,11.8866885 9.16831333,11.8866885 C8.02902597,11.8866885 7.22647336,11.4239328 6.76063142,10.4984074 C6.29985298,9.5928933 6.06946721,7.98450435 6.06946721,5.67319225 C6.06946721,3.61202215 6.29732126,2.15371615 6.75303621,1.2982305 C7.21381465,0.437742013 7.99358186,0.00750422255 9.09236122,0.00750422255 C10.0746801,0.00750422255 10.8038131,0.340188096 11.279782,1.00556582 C11.593719,1.45081859 11.821573,2.08366836 11.963351,2.90413413 C12.105129,3.66456582 12.1760169,4.77517965 12.1760169,6.23600894 Z M10.5202609,6.40110184 C10.5202609,4.39496298 10.4291193,3.06422749 10.2468333,2.40885544 C10.0645473,1.74848055 9.69238571,1.41829806 9.13033728,1.41829806 C8.56828885,1.41829806 8.19359551,1.72096535 8.00624604,2.32630899 C7.82396006,2.93665548 7.73281844,4.1623329 7.73281844,6.00337804 C7.73281844,7.69934082 7.82902348,8.8749906 8.02143646,9.53036264 C8.21891293,10.1507148 8.58854284,10.4608862 9.13033728,10.4608862 C9.66200471,10.4608862 10.0265712,10.1707259 10.2240477,9.59039642 C10.4215241,9.01506982 10.5202609,7.95198225 10.5202609,6.40110184 Z M13.9693803,0.157588674 L15.5491842,0.157588674 L15.5491842,10.4233651 L18.131556,10.4233651 L18.131556,11.7441083 L13.9693803,11.7441083 L13.9693803,0.157588674 Z M19.3476833,0.157588674 L20.9274872,0.157588674 L20.9274872,10.4233651 L23.509859,10.4233651 L23.509859,11.7441083 L19.3476833,11.7441083 L19.3476833,0.157588674 Z M24.7259863,0.157588674 L28.926138,0.157588674 L28.926138,1.47833184 L26.3057902,1.47833184 L26.3057902,5.14789667 L28.6299248,5.14789667 L28.6299248,6.46863984 L26.3057902,6.46863984 L26.3057902,10.4233651 L28.926138,10.4233651 L28.926138,11.7441083 L24.7259863,11.7441083 L24.7259863,0.157588674 Z M33.4158013,5.65067958 L36.2867911,5.65067958 L36.2867911,6.10093294 C36.2867911,8.3572138 36.0867859,9.88055574 35.6867694,10.6710045 C35.2918165,11.4814646 34.5525567,11.8866885 33.4689678,11.8866885 C32.3499344,11.8866885 31.5524453,11.4364397 31.0764763,10.5359285 C30.6055709,9.63541726 30.3701217,8.12208084 30.3701217,5.99587382 C30.3701217,3.56449356 30.6283563,1.94609908 31.1448332,1.14064183 C31.6309292,0.385212981 32.3777841,0.00750422255 33.3854205,0.00750422255 C34.1550724,0.00750422255 34.7550881,0.190105145 35.1854855,0.555312469 C35.6209465,0.925522633 35.9601958,1.53335858 36.2032438,2.37883855 L34.7297728,2.98668058 C34.6639474,2.68150733 34.5905277,2.42511563 34.5095117,2.21749776 C34.4284957,2.0098799 34.3398858,1.84854073 34.2436793,1.73347541 C34.0512664,1.49834193 33.7626512,1.38077695 33.3778253,1.38077695 C32.8512213,1.38077695 32.4917183,1.70095391 32.2993053,2.34131744 C32.1068923,3.011698 32.0106873,4.21486299 32.0106873,5.95084848 C32.0106873,7.70684534 32.109424,8.89500203 32.3069005,9.5153542 C32.504377,10.1357064 32.8765386,10.4458778 33.4233965,10.4458778 C33.924683,10.4458778 34.2765909,10.2257561 34.4791309,9.78550621 C34.6867344,9.31523924 34.7905345,8.55982173 34.7905345,7.519231 L34.7905345,6.97142275 L33.4158013,6.97142275 L33.4158013,5.65067958 Z M38.0877497,0.157588674 L42.2879014,0.157588674 L42.2879014,1.47833184 L39.6675536,1.47833184 L39.6675536,5.14789667 L41.9916882,5.14789667 L41.9916882,6.46863984 L39.6675536,6.46863984 L39.6675536,10.4233651 L42.2879014,10.4233651 L42.2879014,11.7441083 L38.0877497,11.7441083 L38.0877497,0.157588674 Z M51.3279897,0.397723795 L51.3279897,1.92108097 C50.8469573,1.58088785 50.4140346,1.41079384 50.0292086,1.41079384 C49.6140017,1.41079384 49.2747523,1.55587403 49.0114503,1.84603875 C48.7481484,2.12119495 48.6164994,2.48889818 48.6164994,2.94915946 C48.6164994,3.35438951 48.7101727,3.70208168 48.8975222,3.9922464 C48.9937287,4.14733444 49.1519606,4.34744504 49.3722229,4.5925842 C49.5924851,4.83772337 49.8773027,5.1328865 50.2266841,5.47808246 C50.8697485,6.12344883 51.3077347,6.68125713 51.5406556,7.15152409 C51.7735766,7.60678254 51.8900353,8.16459084 51.8900353,8.82496572 C51.8900353,9.72047409 51.6343325,10.4583819 51.122919,11.0387114 C50.6115056,11.6040323 49.9557923,11.8866885 49.1557594,11.8866885 C48.4823139,11.8866885 47.9076154,11.7040876 47.4316464,11.3388803 L47.4316464,9.79301043 C47.9936949,10.1982405 48.5051006,10.4008525 48.9658791,10.4008525 C49.3962765,10.4008525 49.7329942,10.2595243 49.9760422,9.97686388 C50.2190901,9.69420342 50.3406123,9.31024121 50.3406123,8.82496572 C50.3406123,8.40472716 50.246939,8.0270184 50.0595895,7.69182812 C49.963383,7.53173724 49.8292023,7.34788562 49.6570433,7.14026776 C49.4848843,6.9326499 49.2696888,6.70127202 49.0114503,6.44612717 C48.6114339,6.05590565 48.2797797,5.71071486 48.0164777,5.41054446 C47.7531757,5.11037406 47.5582339,4.8477289 47.4316464,4.62260109 C47.1885985,4.18235117 47.0670763,3.62704425 47.0670763,2.95666369 C47.0670763,2.05114964 47.3050572,1.33325286 47.7810262,0.802951813 C48.2620586,0.267647928 48.9076451,0 49.717805,0 C50.2798534,0 50.8165763,0.132573273 51.3279897,0.397723795 Z M52.7036165,0.157588674 L57.8455744,0.157588674 L57.8455744,1.52335718 L56.0758902,1.52335718 L56.0758902,11.7441083 L54.5264671,11.7441083 L54.5264671,1.52335718 L52.7036165,1.52335718 L52.7036165,0.157588674 Z M58.9477736,0.157588674 L60.4971966,0.157588674 L60.4971966,8.34469548 C60.4971966,9.18016977 60.573148,9.73547668 60.7250529,10.0106329 C60.8820214,10.2857891 61.1908903,10.4233651 61.6516687,10.4233651 C62.1124471,10.4233651 62.4162525,10.3032988 62.563094,10.0631624 C62.714999,9.81802328 62.7909504,9.32024816 62.7909504,8.56982216 L62.7909504,0.157588674 L64.3403734,0.157588674 L64.3403734,8.56982216 C64.3403734,9.83053785 64.1454316,10.6835093 63.7555422,11.128762 C63.2897002,11.6340489 62.5782892,11.8866885 61.6212879,11.8866885 C60.56808,11.8866885 59.8262885,11.5615088 59.395891,10.9111396 C59.0971445,10.4658868 58.9477736,9.61041401 58.9477736,8.34469548 L58.9477736,0.157588674 Z M66.3767835,0.157588674 L68.3211576,0.157588674 C68.913587,0.157588674 69.4123342,0.222624619 69.8174142,0.35269846 C70.1921131,0.477769461 70.5262991,0.700392504 70.819982,1.02057427 C71.2605065,1.50084691 71.5744387,2.12619254 71.7617882,2.89662991 C71.9491377,3.64205307 72.042811,4.7101434 72.042811,6.10093294 C72.042811,7.37665715 71.9390108,8.41723227 71.7314074,9.22268952 C71.5288674,9.99312689 71.1946814,10.5809518 70.7288395,10.9861818 C70.1566641,11.4914687 69.1313208,11.7441083 67.652779,11.7441083 L66.3767835,11.7441083 L66.3767835,0.157588674 Z M67.9565875,10.3783398 C68.9186523,10.3783398 69.5617071,10.0906808 69.8857711,9.5153542 C70.219962,8.94002759 70.387055,7.82190961 70.387055,6.16096672 C70.387055,4.37495282 70.2275572,3.14677401 69.9085567,2.47639344 C69.5895562,1.80601288 69.0047308,1.47082762 68.1540629,1.47082762 L67.9565875,1.47082762 L67.9565875,10.3783398 Z M73.8437696,0.157588674 L78.0439213,0.157588674 L78.0439213,1.47833184 L75.4235735,1.47833184 L75.4235735,5.14789667 L77.7477081,5.14789667 L77.7477081,6.46863984 L75.4235735,6.46863984 L75.4235735,10.4233651 L78.0439213,10.4233651 L78.0439213,11.7441083 L73.8437696,11.7441083 L73.8437696,0.157588674 Z M79.7233565,0.157588674 L81.1968275,0.157588674 L82.7690362,4.78018977 C83.2247511,6.08593102 83.6272933,7.47920107 83.9766747,8.96004173 C83.8500873,8.06453336 83.7564139,7.25408543 83.6956519,6.52867362 C83.6348899,5.80326181 83.6045094,5.12038439 83.6045094,4.48002086 L83.6045094,0.157588674 L85.1919085,0.157588674 L85.1919085,11.7441083 L83.7108423,11.7441083 L81.9411582,6.52867362 C81.7791262,6.04339814 81.6259576,5.54562302 81.4816479,5.03533333 C81.3373382,4.52504365 81.2044233,3.98974779 81.0828993,3.42942971 C81.0727723,3.35938995 81.0563162,3.27434294 81.0335304,3.17428614 C81.0107447,3.07422934 80.9841617,2.95916574 80.9537807,2.8290919 C80.9689712,2.95916574 80.9816298,3.07047727 80.9917568,3.16302981 C81.0018838,3.25558235 81.0094789,3.3343759 81.0145424,3.39941282 L81.0980897,4.57757576 L81.1816371,6.01088227 C81.1867006,6.09092771 81.1904981,6.18848162 81.1930299,6.30354694 C81.1955616,6.41861227 81.1968275,6.54868416 81.1968275,6.69376652 L81.2803748,11.7441083 L79.7233565,11.7441083 L79.7233565,0.157588674 Z M86.2941077,0.157588674 L91.4360656,0.157588674 L91.4360656,1.52335718 L89.6663814,1.52335718 L89.6663814,11.7441083 L88.1169583,11.7441083 L88.1169583,1.52335718 L86.2941077,1.52335718 L86.2941077,0.157588674 Z" id="COLLEGESTUDENT"></path>
                <path d="M4.28427426,18.4371177 L3.50208311,16.2747007 L2.71989196,18.4371177 L4.28427426,18.4371177 Z M4.74647812,19.7207836 L2.25768809,19.7207836 L1.85770398,20.8493757 L0,20.8493757 L2.55100977,14.3535095 L4.45315644,14.3535095 L7.00416621,20.8493757 L5.14646223,20.8493757 L4.74647812,19.7207836 Z M12.6286006,17.3343712 L13.2063554,17.3343712 C13.8463332,17.3343712 14.1663173,17.0644307 14.1663173,16.5245417 C14.1663173,15.9846527 13.8463332,15.7147122 13.2063554,15.7147122 L12.6286006,15.7147122 L12.6286006,17.3343712 Z M12.6286006,20.8493757 L10.8864475,20.8493757 L10.8864475,14.3535095 L13.6596707,14.3535095 C14.4122372,14.3535095 14.9885048,14.5430422 15.3884909,14.9221132 C15.788477,15.3011842 15.9884671,15.8353217 15.9884671,16.5245417 C15.9884671,17.2137617 15.788477,17.7478992 15.3884909,18.1269703 C14.9885048,18.5060413 14.4122372,18.6955739 13.6596707,18.6955739 L12.6286006,18.6955739 L12.6286006,20.8493757 Z M23.3017233,18.4371177 L22.5195321,16.2747007 L21.737341,18.4371177 L23.3017233,18.4371177 Z M23.7639271,19.7207836 L21.2751371,19.7207836 L20.875153,20.8493757 L19.017449,20.8493757 L21.5684588,14.3535095 L23.4706054,14.3535095 L26.0216152,20.8493757 L24.1639112,20.8493757 L23.7639271,19.7207836 Z M31.6460496,17.2568343 L31.9749254,17.2568343 C32.3186172,17.2568343 32.5823077,17.1879134 32.7660051,17.0500694 C32.9497024,16.9122254 33.0415497,16.7140776 33.0415497,16.4556201 C33.0415497,16.1971626 32.9497024,15.9990148 32.7660051,15.8611708 C32.5823077,15.7233268 32.3186172,15.6544058 31.9749254,15.6544058 L31.6460496,15.6544058 L31.6460496,17.2568343 Z M35.4770085,20.8493757 L33.3082058,20.8493757 L31.6460496,18.3509656 L31.6460496,20.8493757 L29.9038965,20.8493757 L29.9038965,14.3535095 L32.6149,14.3535095 C32.9882203,14.3535095 33.3141301,14.4066361 33.5926389,14.5128908 C33.8711477,14.6191456 34.100766,14.7641668 34.2815004,14.9479588 C34.4622349,15.1317508 34.5985244,15.3442571 34.6903731,15.5854841 C34.7822217,15.8267111 34.8281454,16.0851648 34.8281454,16.3608528 C34.8281454,16.8547938 34.7051885,17.2553969 34.4592711,17.5626742 C34.2133538,17.8699514 33.8504088,18.0781502 33.3704255,18.1872767 L35.4770085,20.8493757 Z M41.8747455,15.7836339 L41.8747455,20.8493757 L40.1325924,20.8493757 L40.1325924,15.7836339 L38.7015382,15.7836339 L38.7015382,14.3535095 L43.3057997,14.3535095 L43.3057997,15.7836339 L41.8747455,15.7836339 Z M46.8947594,20.8493757 L48.032492,14.3535095 L49.7568679,14.3535095 L51.0990368,17.8168228 L52.4323172,14.3535095 L54.1566931,14.3535095 L55.2944257,20.8493757 L53.5611612,20.8493757 L52.9834064,17.1103758 L51.401247,20.8493757 L50.7079412,20.8493757 L49.2057787,17.1103758 L48.6280239,20.8493757 L46.8947594,20.8493757 Z M63.3276533,15.7836339 L61.2566244,15.7836339 L61.2566244,16.86915 L63.2121023,16.86915 L63.2121023,18.2992744 L61.2566244,18.2992744 L61.2566244,19.4192513 L63.3276533,19.4192513 L63.3276533,20.8493757 L59.5144714,20.8493757 L59.5144714,14.3535095 L63.3276533,14.3535095 L63.3276533,15.7836339 Z M67.6988041,20.8493757 L67.6988041,14.3535095 L69.4409571,14.3535095 L72.658607,18.32512 L72.658607,14.3535095 L74.3918715,14.3535095 L74.3918715,20.8493757 L72.658607,20.8493757 L69.4409571,16.8777652 L69.4409571,20.8493757 L67.6988041,20.8493757 Z M81.4562487,15.7836339 L81.4562487,20.8493757 L79.7140957,20.8493757 L79.7140957,15.7836339 L78.2830414,15.7836339 L78.2830414,14.3535095 L82.8873029,14.3535095 L82.8873029,15.7836339 L81.4562487,15.7836339 Z M90.4672152,16.0162445 C90.2775921,15.8669135 90.0879719,15.7563528 89.8983489,15.684559 C89.7087258,15.6127653 89.5250313,15.5768689 89.3472597,15.5768689 C89.1220823,15.5768689 88.9383877,15.6285597 88.7961704,15.7319427 C88.6539532,15.8353257 88.5828456,15.9702959 88.5828456,16.1368574 C88.5828456,16.2517274 88.6183994,16.3464937 88.689508,16.4211592 C88.7606167,16.4958247 88.8539453,16.5604381 88.9694969,16.6150014 C89.0850484,16.6695647 89.2154123,16.7169478 89.3605925,16.7571523 C89.5057726,16.7973568 89.6494692,16.8404324 89.7916865,16.8863804 C90.3605556,17.0701724 90.7768312,17.3157034 91.0405257,17.6229806 C91.3042203,17.9302579 91.4360656,18.330861 91.4360656,18.824802 C91.4360656,19.1579251 91.3782907,19.4594543 91.2627391,19.7293988 C91.1471876,19.9993433 90.9783071,20.2305157 90.7560926,20.422923 C90.5338781,20.6153302 90.261299,20.764659 89.9383473,20.8709137 C89.6153955,20.9771685 89.2494878,21.0302951 88.8406131,21.0302951 C87.9932351,21.0302951 87.208089,20.7862 86.4851511,20.2980025 L87.2317881,18.9367997 C87.4925198,19.1607962 87.7502848,19.3273552 88.0050908,19.4364818 C88.2598967,19.5456083 88.5117361,19.6001707 88.7606163,19.6001707 C89.0450509,19.6001707 89.2568922,19.5369931 89.3961466,19.4106361 C89.535401,19.2842791 89.6050272,19.1406938 89.6050272,18.9798758 C89.6050272,18.8822363 89.5872503,18.7975209 89.551696,18.7257272 C89.5161417,18.6539334 89.4568854,18.5878841 89.3739253,18.5275774 C89.2909652,18.4672706 89.1828224,18.4112724 89.0494937,18.3595809 C88.916165,18.3078894 88.7546916,18.2504552 88.5650685,18.1872767 C88.3398911,18.1183547 88.1191614,18.0422545 87.9028726,17.9589737 C87.6865838,17.875693 87.4940008,17.7651322 87.3251178,17.6272882 C87.1562347,17.4894442 87.0199452,17.315706 86.9162451,17.1060682 C86.812545,16.8964305 86.7606957,16.6307976 86.7606957,16.3091615 C86.7606957,15.9875255 86.8155078,15.6960473 86.9251337,15.434718 C87.0347595,15.1733888 87.1888259,14.9493956 87.3873375,14.7627319 C87.5858491,14.5760681 87.8288,14.4310469 88.1161975,14.3276639 C88.4035949,14.2242809 88.7250604,14.1725902 89.0806036,14.1725902 C89.4124439,14.1725902 89.7590933,14.2171016 90.1205623,14.3061259 C90.4820312,14.3951501 90.8286806,14.5258128 91.160521,14.6981178 L90.4672152,16.0162445 Z" id="APARTMENTS"></path>
            </g>
            <path d="M11.6123803,16.5042098 L8.2292459,16.5042098 L8.2292459,22.7218623 L11.6123803,22.7218623 L11.6123803,16.5042098 Z M16.0013115,16.5042098 L12.618177,16.5042098 L12.618177,22.7218623 L16.0013115,22.7218623 L16.0013115,16.5042098 Z M10.5151475,17.6014426 L10.5151475,21.6246295 L9.32647869,21.6246295 L9.32647869,17.6014426 L10.5151475,17.6014426 Z M14.9040787,17.6014426 L14.9040787,21.6246295 L13.7154098,21.6246295 L13.7154098,17.6014426 L14.9040787,17.6014426 Z M11.6123803,9.18932459 L8.2292459,9.18932459 L8.2292459,15.406977 L11.6123803,15.406977 L11.6123803,9.18932459 Z M16.0013115,9.18932459 L12.618177,9.18932459 L12.618177,15.406977 L16.0013115,15.406977 L16.0013115,9.18932459 Z M10.5151475,10.2865574 L10.5151475,14.3097443 L9.32647869,14.3097443 L9.32647869,10.2865574 L10.5151475,10.2865574 Z M14.9040787,10.2865574 L14.9040787,14.3097443 L13.7154098,14.3097443 L13.7154098,10.2865574 L14.9040787,10.2865574 Z M12.1152787,7.72634754 L17.8757728,7.72634754 L17.8759683,25.4625245 C15.6749011,26.9169255 13.4510314,27.8385705 12.2134425,27.8860709 L12.1152787,27.888 C10.8997519,27.888 8.6151446,26.9562337 6.35458904,25.4625245 L6.3547846,7.72634754 L12.1152787,7.72634754 L12.1152787,6.17193443 L4.55402266,6.17193443 L3.95515045,4.84611148 L12.1152787,4.84611148 L12.1152787,3.29169836 L1.67828702,3.29169836 L3.29169836,7.72634754 L4.89180755,7.72634754 L4.89164431,24.4099043 C2.30724137,22.3864732 0.0853242937,19.6976668 0.00239841002,16.9445042 L0,16.7856008 L0,0 L24.2305574,0 L24.2305574,16.7856008 L24.228159,16.9445042 C24.1468591,19.6436832 22.0096276,22.2810051 19.4905053,24.290116 L19.3389131,24.4099043 L19.3387498,7.72634754 L20.938859,7.72634754 L22.5522704,3.29169836 L12.1152787,3.29124118 L12.1152787,4.84611148 L20.2754069,4.84611148 L19.6765347,6.17193443 L12.1152787,6.17193443 L12.1152787,7.72634754 Z" id="Shape"></path>
        </g>
    </g>
</svg>