<?xml version="1.0" encoding="UTF-8"?>
<svg width="71px" height="101px" viewBox="0 0 71 101" version="1.1" xmlns="http://www.w3.org/2000/svg" xmlns:xlink="http://www.w3.org/1999/xlink">
    <title>cw_map_pin</title>
    <defs>
        <rect id="path-1" x="0" y="0" width="70.07" height="70.07" rx="14.014"></rect>
    </defs>
    <g id="Page-1" stroke="none" stroke-width="1" fill="none" fill-rule="evenodd">
        <g id="cw_map_pin">
            <polygon id="Triangle" fill="#674EEA" transform="translate(35.440000, 66.320000) scale(1, -1) translate(-35.440000, -66.320000) " points="35.44 32 46.88 100.64 24 100.64"></polygon>
            <g id="Group-8-Copy-3">
                <mask id="mask-2" fill="white">
                    <use xlink:href="#path-1"></use>
                </mask>
                <use id="Rectangle" fill="#674EEA" xlink:href="#path-1"></use>
                <g id="Group-4-Copy-3" mask="url(#mask-2)">
                    <g transform="translate(24.578998, 46.348895) rotate(45.000000) translate(-24.578998, -46.348895) translate(-6.421002, 0.348895)">
                        <g id="Group-4" stroke-width="1" fill="none" transform="translate(11.911900, 11.631620)">
                            <rect id="Rectangle" fill="#FFFFFF" opacity="0.45" x="13.4334175" y="19.2628118" width="10.5105" height="58.01796" rx="1.12112"></rect>
                            <path d="M18.3125555,28.1293523 L10.1964859,32.3962225 C9.51141911,32.7563835 8.66409462,32.4929952 8.30393369,31.8079284 C8.16051571,31.5351312 8.11102573,31.2226638 8.16312536,30.9188996 L9.71315671,21.8815234 C9.75214222,21.6542204 9.67678299,21.4222886 9.51163775,21.2613118 L2.94559955,14.8610064 C2.39136887,14.320765 2.38002831,13.43352 2.92026971,12.8792893 C3.13539667,12.6585918 3.41727764,12.5149662 3.72227418,12.4706477 L12.7963158,11.1521122 C13.0245409,11.1189492 13.2218339,10.9756074 13.3238993,10.7688004 L17.3819341,2.54632383 C17.7244675,1.85227535 18.5647831,1.56731608 19.2588316,1.90984948 C19.5352053,2.04624808 19.7589073,2.26995009 19.8953059,2.54632383 L23.9533407,10.7688004 C24.0554061,10.9756074 24.2526991,11.1189492 24.4809242,11.1521122 L33.5549658,12.4706477 C34.3208938,12.5819435 34.851578,13.2930739 34.7402821,14.0590019 C34.6959635,14.3639984 34.552338,14.6458794 34.3316404,14.8610064 L27.7656022,21.2613118 C27.600457,21.4222886 27.5250978,21.6542204 27.5640833,21.8815234 L29.1141146,30.9188996 C29.2449508,31.6817327 28.732616,32.4061948 27.9697829,32.5370309 C27.6660187,32.5891305 27.3535513,32.5396405 27.0807541,32.3962225 L18.9646845,28.1293523 C18.7605538,28.0220344 18.5166862,28.0220344 18.3125555,28.1293523 Z" id="Star" fill="#FFB68A"></path>
                            <path d="M18.3125555,28.1293523 L10.1964859,32.3962225 C9.51141911,32.7563835 8.66409462,32.4929952 8.30393369,31.8079284 C8.16051571,31.5351312 8.11102573,31.2226638 8.16312536,30.9188996 L9.71315671,21.8815234 C9.75214222,21.6542204 9.67678299,21.4222886 9.51163775,21.2613118 L2.94559955,14.8610064 C2.39136887,14.320765 2.38002831,13.43352 2.92026971,12.8792893 C3.13539667,12.6585918 3.41727764,12.5149662 3.72227418,12.4706477 L12.7963158,11.1521122 C13.0245409,11.1189492 13.2218339,10.9756074 13.3238993,10.7688004 L17.3819341,2.54632383 C17.7244675,1.85227535 18.5647831,1.56731608 19.2588316,1.90984948 C19.5352053,2.04624808 19.7589073,2.26995009 19.8953059,2.54632383 L23.9533407,10.7688004 C24.0554061,10.9756074 24.2526991,11.1189492 24.4809242,11.1521122 L33.5549658,12.4706477 C34.3208938,12.5819435 34.851578,13.2930739 34.7402821,14.0590019 C34.6959635,14.3639984 34.552338,14.6458794 34.3316404,14.8610064 L27.7656022,21.2613118 C27.600457,21.4222886 27.5250978,21.6542204 27.5640833,21.8815234 L29.1141146,30.9188996 C29.2449508,31.6817327 28.732616,32.4061948 27.9697829,32.5370309 C27.6660187,32.5891305 27.3535513,32.5396405 27.0807541,32.3962225 L18.9646845,28.1293523 C18.7605538,28.0220344 18.5166862,28.0220344 18.3125555,28.1293523 Z" id="Star-Copy" fill="#FFCA21"></path>
                        </g>
                        <path d="M17.1438755,46.2929321 C17.2180511,46.4043461 17.2180511,46.5494934 17.1438755,46.6609073 L13.6022544,51.9805296 C13.5007782,52.1329499 13.2951215,52.174137 13.1429072,52.0725234 C13.1247578,52.0604075 13.107848,52.046526 13.092424,52.0310811 L11.3216135,50.2578737 C11.1922562,50.1283413 11.1922562,49.9183279 11.3216135,49.7887955 C11.3370375,49.7733507 11.3539473,49.7594692 11.3720966,49.7473532 L16.6845283,46.2009383 C16.8367426,46.0993248 17.0423994,46.1405118 17.1438755,46.2929321 Z M46.3761475,44.3388805 L51.6885792,47.8852954 C51.8407934,47.9869089 51.8819248,48.192844 51.7804486,48.3452643 C51.768349,48.3634383 51.7544863,48.380371 51.7390623,48.3958158 L49.9682518,50.1690233 C49.8388945,50.2985556 49.6291649,50.2985556 49.4998077,50.1690233 C49.4843837,50.1535784 49.4705209,50.1366457 49.4584214,50.1184718 L45.9168003,44.7988495 C45.8153241,44.6464292 45.8564554,44.440494 46.0086697,44.3388805 C46.119933,44.2646045 46.2648842,44.2646045 46.3761475,44.3388805 Z M3.60450746,30.5951127 C3.62632027,30.5951127 3.64807975,30.5972703 3.66946897,30.6015539 L9.93022974,31.8554009 C10.109616,31.8913267 10.225953,32.0660685 10.1900758,32.2456975 C10.1638508,32.3770001 10.0613548,32.4796348 9.93022974,32.5058953 L3.66946897,33.7597423 C3.49008272,33.7956681 3.31557717,33.6791736 3.27969992,33.4995445 C3.27542207,33.4781263 3.27326746,33.4563374 3.27326746,33.4344951 L3.27326746,30.9268011 C3.27326746,30.7436147 3.42156866,30.5951127 3.60450746,30.5951127 Z M57.921435,28.2284042 C57.9257128,28.2498223 57.9278675,28.2716113 57.9278675,28.2934536 L57.9278675,30.8011476 C57.9278675,30.984334 57.7795663,31.132836 57.5966275,31.132836 C57.5748146,31.132836 57.5530552,31.1306784 57.531666,31.1263948 L51.2709052,29.8725478 C51.0915189,29.836622 50.9751819,29.6618802 51.0110591,29.4822512 C51.0372842,29.3509486 51.1397801,29.2483139 51.2709052,29.2220534 L57.531666,27.9682064 C57.7110522,27.9322806 57.8855578,28.0487751 57.921435,28.2284042 Z M11.7013273,11.5589254 C11.7167512,11.5743703 11.730614,11.591303 11.7427135,11.6094769 L15.2843347,16.9290992 C15.3858109,17.0815195 15.3446795,17.2874547 15.1924652,17.3890682 C15.0812019,17.4633442 14.9362508,17.4633442 14.8249874,17.3890682 L9.51255575,13.8426533 C9.36034147,13.7410398 9.31921012,13.5351047 9.42068631,13.3826844 C9.43278588,13.3645104 9.44664861,13.3475777 9.4620726,13.3321329 L11.2328832,11.5589254 C11.3622404,11.4293931 11.57197,11.4293931 11.7013273,11.5589254 Z M48.0582277,9.65542528 C48.0763771,9.66754123 48.0932869,9.68142272 48.1087109,9.69686759 L49.8795214,11.470075 C50.0088787,11.5996074 50.0088787,11.8096208 49.8795214,11.9391532 C49.8640975,11.954598 49.8471876,11.9684795 49.8290383,11.9805955 L44.5166066,15.5270103 C44.3643923,15.6286239 44.1587356,15.5874369 44.0572594,15.4350166 C43.9830838,15.3236026 43.9830838,15.1784553 44.0572594,15.0670414 L47.5988805,9.74741908 C47.7003567,9.59499876 47.9060134,9.55381174 48.0582277,9.65542528 Z M30.5378256,3.49968563 C30.7207644,3.49968563 30.8690656,3.64818756 30.8690656,3.83137397 C30.8690656,3.85321631 30.866911,3.87500524 30.8626332,3.89642341 L29.610481,10.1656584 C29.5746038,10.3452875 29.4000982,10.461782 29.220712,10.4258562 C29.0895869,10.3995956 28.987091,10.296961 28.9608659,10.1656584 L27.7087138,3.89642341 C27.6728365,3.71679435 27.7891736,3.5420526 27.9685598,3.50612679 C27.989949,3.50184316 28.0117085,3.49968563 28.0335213,3.49968563 L30.5378256,3.49968563 Z" id="Shape" fill="#FFFFFF"></path>
                    </g>
                </g>
            </g>
        </g>
    </g>
</svg>