<?xml version="1.0" encoding="UTF-8"?>
<svg width="100px" height="38px" viewBox="0 0 100 38" version="1.1" xmlns="http://www.w3.org/2000/svg" xmlns:xlink="http://www.w3.org/1999/xlink">
    <title>uloop_bababa</title>
    <g id="Page-1" stroke="none" stroke-width="1" fill="none" fill-rule="evenodd">
        <g id="uloop_bababa" fill="#BABABA" fill-rule="nonzero">
            <path d="M36.3446614,0 C36.04134,0.0129565417 35.6607895,0.0583044379 35.1777675,0.142262828 C34.5509304,0.252393433 33.8584623,0.247210817 32.4661581,0.118941053 C30.6118446,-0.0498826857 30.5913776,-0.0488461624 30.0045194,0.264443017 C29.2809415,0.650547961 28.9185385,1.30627854 28.919903,2.22982083 C28.919903,3.60386209 29.6447089,4.16863774 31.1715498,3.98750529 C31.8562404,3.90587908 31.9632148,3.92660954 32.0992524,4.16850818 C32.3201599,4.560314 32.3253449,17.9142329 32.112897,18.3055204 C31.9748128,18.5506582 31.8775261,18.5763122 31.4303896,18.4865233 C30.4131779,18.2824578 29.8548372,18.3472405 29.4678737,18.714688 C28.5817875,19.5560859 28.7846841,21.4549966 29.8246824,22.0556619 C30.181764,22.2618005 30.7540223,22.2865475 35.1133645,22.2839002 L40.0017115,22.2839002 L40.3368251,21.9136582 C41.2751704,20.8777827 41.1149818,18.9213449 40.0524697,18.4420824 C39.7056217,18.2856969 39.5136409,18.2827169 38.9325135,18.4239432 C37.6777477,18.7293289 37.7697129,19.3967204 37.6881177,9.35682575 C37.6198942,0.955026692 37.6048851,0.554280856 37.3446808,0.281675218 C37.1492889,0.0767027271 36.8582476,-0.0139930651 36.3527118,0.00194348126 L36.3446614,0 Z" id="path9447-path"></path>
            <path d="M15.2620102,0.615846973 C14.6117668,1.25531199 14.3917985,2.38976691 14.7036189,3.49441571 C14.8928816,4.16459795 15.2908629,4.41749445 16.1556482,4.41749445 C17.4766494,4.41749445 17.3972385,4.05461466 17.3972385,10.0902897 C17.3972385,15.0239191 17.3787093,15.4251955 17.1231383,16.1038379 C16.8013916,16.9572823 16.0645903,17.6754927 15.2958922,17.8854372 C13.7567756,18.3057166 11.7422519,17.9062624 11.1008761,17.0525578 C10.4704855,16.2140816 10.4101332,15.5968735 10.4101332,10.0672518 C10.4101332,7.22187328 10.4643973,4.81005022 10.5305731,4.70774623 C10.5993959,4.60101688 11.0263622,4.48322412 11.5320776,4.43155149 C12.5821875,4.24724812 12.5821875,4.24724812 12.9815923,3.65633195 C13.419676,2.62548259 13.0583562,0.893213132 12.3038198,0.407073946 C11.6046063,-0.0434020168 11.1178171,-0.081408079 9.1181169,0.157952018 C7.31694406,0.373623405 7.04866738,0.373753563 4.88988054,0.157952018 C3.41045443,0.0120451835 2.40087647,-0.0277830871 2.07092395,0.0473179331 C0.381455853,0.429591237 -0.495879569,2.03522847 0.292118528,3.55350733 C0.911886629,4.41749445 1.10872211,4.43155149 2.52250758,4.53359517 C3.69540741,4.50496046 3.82140612,4.52057939 4.04852146,4.80185028 C4.40692957,5.23709779 4.50169331,6.32886097 4.39726791,8.82034057 C4.21991677,13.0524197 4.26279869,16.5194316 4.5044727,17.5195638 C4.92667428,19.2660204 5.77398918,20.4676367 7.26003288,21.4276803 C8.18490581,22.0252345 9.87132982,22.599881 11.2714773,22.7947271 C12.7194038,22.9962113 15.8497837,22.8480918 17.1895788,22.5131959 C19.5950691,21.9131687 21.674842,20.4848176 22.5138187,18.8565441 C23.1929148,17.5385668 23.2751051,16.7652996 23.3696042,10.8135763 C23.4609268,5.04719764 23.5153233,4.56977902 24.0801999,4.5374999 C24.2112279,4.52448412 24.8357951,4.5374999 25.467774,4.55051567 C25.8999431,4.52304351 26.2058594,4.48338878 26.3855227,4.43155149 C26.5661498,4.37943613 26.8006693,4.26316187 27.089081,4.08272873 C27.613458,3.53593603 27.7806181,2.94280718 27.6735456,2.00879518 C27.5623703,1.03365334 26.8570686,0.286027242 25.8309467,0.0542162937 C25.4653916,-0.0277830871 24.5354893,0.00605792718 22.9856522,0.158342491 C20.8246154,0.371540881 20.5615004,0.370890093 18.6941518,0.145326717 C17.8444545,0.0451052513 17.2439753,-0.0068276898 16.7896123,0.000721459539 C16.0325612,0.0225879611 15.6819618,0.202856441 15.2620102,0.615846973 Z" id="path9447-path"></path>
            <path d="M50.898586,5.42052342 C51.185463,5.42180452 51.4742195,5.43333439 51.7637813,5.45639415 C53.2993856,5.57861086 53.9676467,5.74733142 55.2911472,6.34650077 C57.2651888,7.23993824 58.7299128,9.01822983 59.3804538,11.3115227 C59.7106913,12.48962 59.7053216,15.6947981 59.3670295,16.9200399 C58.5535177,19.8668206 56.4954401,21.9109399 53.642242,22.6052948 C52.6326013,22.8510094 50.6066077,22.9615681 49.5195089,22.8305118 C47.3804828,22.572755 45.7245969,21.8112706 44.427945,20.4882811 C43.3651441,19.4040881 42.7768918,18.2768504 42.4253097,16.6504969 C41.7405368,13.482855 42.400609,10.1376529 44.1111318,8.10813809 C45.5322269,6.42182931 48.1219063,5.40796866 50.898586,5.42052342 Z M51.0526439,9.54468715 C49.6219149,9.56107633 48.7101139,10.2153827 48.0970229,11.6654467 C47.6673093,12.6817017 47.6116363,15.1992054 47.9939246,16.3327061 C48.7128632,18.4649381 50.7520094,19.3493233 52.6547909,18.3552567 C53.7979444,17.7579342 54.2877299,16.5010104 54.2877299,14.1641659 C54.2877299,12.4240134 54.0658624,11.4313336 53.5089944,10.6786921 C52.9174853,9.87902637 52.1659677,9.53208009 51.0526439,9.54468715 Z" id="Combined-Shape"></path>
            <path d="M93.0049453,5.42300827 C93.3828882,5.41260785 93.7664983,5.43340869 94.152807,5.48541078 C96.7962487,5.84279515 98.7102511,7.6464877 99.6045766,10.6226974 C100.099234,12.1221905 100.099234,16.3516596 99.6113232,17.5255851 C98.5146005,21.1713217 95.8730478,23.1637819 92.5206764,22.8745202 C91.5563214,22.7911869 89.8202936,22.0700479 89.331437,21.5495069 C89.1985296,21.4080612 89.0353975,21.2923566 88.9706304,21.2923566 C88.9058633,21.2923566 88.8518907,21.9885346 88.8518907,22.8394188 C88.8518907,23.9895751 88.9018153,24.4266527 89.0468666,24.5423573 C89.1715433,24.6411613 89.7340724,24.6853631 90.6096425,24.6606621 C91.1538828,24.6753505 91.5149467,24.7029874 91.692834,24.7435726 C91.9106556,24.7932688 92.1431551,24.9010541 92.3903326,25.0669284 C92.7415591,25.4447236 92.8036276,25.6233508 92.8036276,26.2634965 C92.8036276,27.6981043 92.1385506,28.2901481 90.5454151,28.2771475 C90.0409065,28.2727274 88.739088,28.2029146 87.6522153,28.1223113 C86.4175927,28.0313077 85.230466,28.0209072 84.4875335,28.0950102 C82.217582,28.3210893 81.8643315,28.3418901 81.5835392,28.2690872 C80.653187,28.0261074 80.1015873,27.1999242 80.1015873,26.0491179 C80.1015873,24.7018737 80.6674897,24.2387951 82.2278368,24.310298 L82.2278368,24.310298 L83.1299884,24.3518997 L83.3014862,23.8759505 C83.5087409,23.3013274 83.5567765,11.3352561 83.3554588,10.4990624 C83.1724918,9.7397019 83.0591494,9.67560932 82.2514498,9.87503734 C81.6290111,10.0281835 81.4952941,10.0188231 81.005493,9.78793384 C80.3289468,9.46903101 80.1038811,9.06042458 80.1038811,8.1312772 C80.1011825,7.21591038 80.3939837,6.54287331 80.9312807,6.22800065 C81.3081442,6.00777179 81.688381,5.97917064 84.4127815,5.99217116 C87.664123,6.00503843 87.8537118,5.98664846 87.8638613,6.9718995 L87.8643276,7.9421196 L88.634921,7.21708043 C89.8343265,6.08876505 91.3678222,5.46643001 93.0049453,5.42300827 Z M91.6406889,9.60523395 C90.7601887,9.63585535 89.8880235,10.2132127 89.3485736,11.352224 C89.0494714,11.9846737 88.981152,12.3720213 88.9264965,13.7723615 C88.8460163,15.8233409 89.1593289,17.0484586 89.9896827,17.9286276 C90.6790253,18.6593536 91.3821683,18.8598322 92.3523035,18.6017749 C93.0833209,18.4073159 93.978988,17.4023059 94.2888847,16.4285716 C94.6683306,15.2372159 94.6165445,12.625891 94.1932376,11.5834549 C93.6465459,10.237291 92.6384251,9.56990157 91.6406889,9.60523395 L91.6406889,9.60523395 Z" id="Combined-Shape"></path>
            <path d="M68.1821212,5.74785467 C69.139618,5.31072408 73.5631108,5.31072408 74.5168412,5.75107503 C77.2603011,6.6100093 79.0222745,8.42925474 79.803433,11.2098419 C80.1756052,12.5343113 80.2039548,15.1331413 79.8625506,16.6187575 C79.1667095,19.6470547 77.1791488,21.7724919 74.3384135,22.5265713 C73.1649291,22.8397191 71.2179445,22.9731707 70.0091239,22.8268376 C65.3039,22.2572204 62.6561031,19.165289 62.6358277,14.2193322 C62.6184828,9.75256483 64.4813591,6.90718406 68.1821212,5.74785467 Z M71.3207025,9.28284755 C69.3418622,9.22704092 67.9725876,11.0898714 67.9725876,13.9363886 C67.9725876,17.2937511 69.5888766,18.9464861 72.3533127,18.4159443 C72.9318142,18.3049623 73.7784483,17.4623074 74.1112978,16.6664946 C74.5937457,15.5124841 74.6659562,12.9015669 74.2504052,11.633923 C73.7892117,10.22651 73.0173768,9.5197101 71.7245363,9.32072536 C71.5874726,9.29926127 71.4528613,9.29547349 71.3207025,9.28284755 L71.3207025,9.28284755 Z" id="Combined-Shape"></path>
            <path d="M43.5874661,25.5441274 C42.7519231,27.051792 44.3238002,30.3302729 47.1047925,32.8802025 C49.8867427,35.4310259 53.7681995,37.236061 57.4813435,37.7051633 C58.0998587,37.7830491 58.7991093,37.8726816 59.0352946,37.9039636 C59.9024475,38.018877 64.366978,37.8605518 65.5477674,37.671583 C68.0231967,37.2775575 70.1384641,36.5117232 72.1769644,35.2719346 C75.0267871,33.538529 77.1930956,31.3055051 78.4863672,28.7674499 C78.8634973,28.0274072 79.192029,25.9906993 78.4628308,25.4181056 C78.1725489,25.0825363 77.2604736,24.8464458 76.7479827,24.9644911 C76.2354917,25.0825363 76.2354917,25.0690241 75.6953856,25.5236983 C75.3720335,25.7961709 74.6699092,26.5925212 74.1351399,27.2932379 C72.0776188,29.989363 69.862869,31.54095 66.712957,32.4935826 C64.8764321,33.0489976 63.5872657,33.2245599 61.325443,33.2268581 C58.1532262,33.2268581 55.8292783,32.7488182 53.4894571,31.6036417 C51.2539077,30.5095379 49.8336489,29.2687279 48.2190778,26.9993148 C46.9217011,25.1757659 46.6020436,24.9041871 45.5292207,24.7135585 C45.4457486,24.6982367 45.3576238,24.6918526 45.2664886,24.6931294 C44.6278579,24.706536 43.8440404,25.0812815 43.5874661,25.5441274 Z" id="path9447-path"></path>
        </g>
    </g>
</svg>