<?xml version="1.0" encoding="UTF-8"?>
<svg width="105px" height="40px" viewBox="0 0 105 40" version="1.1" xmlns="http://www.w3.org/2000/svg" xmlns:xlink="http://www.w3.org/1999/xlink">
    <title>uloop_color</title>
    <g id="Page-1" stroke="none" stroke-width="1" fill="none" fill-rule="evenodd">
        <g id="uloop_color" fill-rule="nonzero">
            <path d="M38.1618945,0 C37.843407,0.0136043688 37.443829,0.0612196598 36.9366559,0.14937597 C36.2784769,0.265013105 35.5513855,0.259571357 34.089466,0.124888106 C32.1424369,-0.05237682 32.1209465,-0.0512884705 31.5047454,0.277665168 C30.7449886,0.683075359 30.3644654,1.37159247 30.3658981,2.34131188 C30.3658981,3.78405519 31.1269444,4.37706963 32.7301273,4.18688055 C33.4490524,4.10117303 33.5613755,4.12294002 33.704215,4.37693359 C33.9361679,4.7883297 33.9416121,18.8099445 33.7185419,19.2207965 C33.5735534,19.4781911 33.4714024,19.5051278 33.0019091,19.4108495 C31.9338368,19.1965807 31.347579,19.2646025 30.9412674,19.6504224 C30.0108769,20.5338901 30.2239183,22.5277464 31.3159165,23.158445 C31.6908522,23.3748905 32.2917234,23.4008748 36.8690328,23.3980952 L42.001797,23.3980952 L42.3536663,23.0093411 C43.338929,21.9216718 43.1707309,19.8674121 42.0550932,19.3641865 C41.6909027,19.1999818 41.4893229,19.1968528 40.8791392,19.3451404 C39.5616351,19.6657954 39.6581986,20.3665564 39.5725236,9.82466704 C39.5008889,1.00277803 39.4851293,0.581994899 39.2119149,0.295758978 C39.0067533,0.0805378635 38.70116,-0.0146927183 38.1703474,0.00204065532 L38.1618945,0 Z" id="path9447-path" fill="#959BA3"></path>
            <path d="M16.0251107,0.646639322 C15.3423552,1.31807758 15.1113884,2.50925526 15.4387998,3.6691365 C15.6375257,4.37282785 16.055406,4.63836918 16.9634306,4.63836918 C18.3504819,4.63836918 18.2671004,4.25734539 18.2671004,10.5948042 C18.2671004,15.7751151 18.2476447,16.1964552 17.9792953,16.9090298 C17.6414612,17.8051464 16.8678198,18.5592674 16.0606868,18.7797091 C14.4446143,19.2210024 12.3293645,18.8015756 11.6559199,17.9051857 C10.9940098,17.0247856 10.9306398,16.3767172 10.9306398,10.5706144 C10.9306398,7.58296694 10.9876172,5.05055273 11.0571018,4.94313354 C11.1293657,4.83106772 11.5776803,4.70738532 12.1086815,4.65312907 C13.2112969,4.45961053 13.2112969,4.45961053 13.6306719,3.83914855 C14.0906598,2.75675672 13.711274,0.937873789 12.9190107,0.427427644 C12.1848366,-0.0455721176 11.673708,-0.0854784829 9.57402275,0.165849619 C7.68279127,0.392304576 7.40110075,0.392441241 5.13437457,0.165849619 C3.58097715,0.0126474427 2.52092029,-0.0291722415 2.17447014,0.0496838297 C0.400528646,0.451070799 -0.520673547,2.13698989 0.306724454,3.73118269 C0.957480961,4.63836918 1.16415821,4.65312907 2.64863296,4.76027492 C3.88017778,4.73020848 4.01247643,4.74660836 4.25094753,5.0419428 C4.62727605,5.49895268 4.72677798,6.64530402 4.6171313,9.2613576 C4.43091261,13.7050407 4.47593862,17.3454032 4.72969633,18.395542 C5.173008,20.2293214 6.06268864,21.4910186 7.62303452,22.4990643 C8.5941511,23.1264962 10.3648963,23.729875 11.8350512,23.9344635 C13.355374,24.1460219 16.6422728,23.9904964 18.0490578,23.6388557 C20.5748225,23.0088271 22.7585841,21.5090584 23.6395097,19.7993714 C24.3525605,18.4154951 24.4388604,17.6035646 24.5380844,11.3542551 C24.6339731,5.29955752 24.6910894,4.79826797 25.2842099,4.76437489 C25.4217893,4.75070833 26.0775849,4.76437489 26.7411627,4.77804146 C27.1949403,4.74919568 27.5161524,4.70755822 27.7047989,4.65312907 C27.8944573,4.59840793 28.1407027,4.47631997 28.443535,4.28686517 C28.9941309,3.71273283 29.169649,3.08994754 29.0572229,2.10923494 C28.9404888,1.08533601 28.1999221,0.300328604 27.1224941,0.0569271083 C26.7386612,-0.0291722415 25.7622638,0.00636082353 24.1349348,0.166259616 C21.8658461,0.390117926 21.5895754,0.389434597 19.6288593,0.152593053 C18.7366773,0.0473605139 18.1061741,-0.00716907429 17.6290929,0.000757532516 C16.8341893,0.0237173591 16.4660599,0.212999263 16.0251107,0.646639322 Z" id="path9447-path" fill="#004A91"></path>
            <path d="M53.4435153,5.69154959 C53.7447362,5.69289474 54.0479304,5.70500111 54.3519704,5.72921386 C55.9643549,5.85754141 56.666029,6.03469799 58.0557046,6.66382581 C60.1284482,7.60193515 61.6664085,9.46914132 62.3494765,11.8770988 C62.6962259,13.114101 62.6905877,16.479538 62.335381,17.7660419 C61.4811936,20.8601616 59.3202121,23.0064869 56.324354,23.7355596 C55.2642313,23.9935598 53.1369381,24.1096465 51.9954843,23.9720374 C49.749507,23.7013927 48.0108268,22.9018341 46.6493422,21.5126951 C45.5334013,20.3742926 44.9157364,19.1906929 44.5465752,17.4830218 C43.8275636,14.1569977 44.5206394,10.6445356 46.3166883,8.513545 C47.8088382,6.74292077 50.5280016,5.67836709 53.4435153,5.69154959 Z M53.6052761,10.0219215 C52.1030107,10.0391301 51.1456196,10.7261518 50.5018741,12.248719 C50.0506748,13.3157868 49.9922181,15.9591657 50.3936209,17.1493414 C51.1485064,19.388185 53.2896098,20.3167895 55.2875304,19.2730195 C56.4878416,18.6458309 57.0021164,17.3260609 57.0021164,14.8723741 C57.0021164,13.0452141 56.7691556,12.0029003 56.1844441,11.2126268 C55.5633595,10.3729777 54.774266,10.0086841 53.6052761,10.0219215 Z" id="Combined-Shape" fill="#959BA3"></path>
            <path d="M97.6551925,5.69415868 C98.0520326,5.68323824 98.4548232,5.70507912 98.8604473,5.75968132 C101.636061,6.13493491 103.645764,8.02881209 104.584805,11.1538323 C105.104196,12.7283 105.104196,17.1692426 104.591889,18.4018643 C103.44033,22.2298878 100.6667,24.321971 97.1467102,24.0182462 C96.1341375,23.9307462 94.3113083,23.1735503 93.7980089,22.6269823 C93.658456,22.4784643 93.4871673,22.3569744 93.4191619,22.3569744 C93.3511565,22.3569744 93.2944853,23.0879613 93.2944853,23.9813898 C93.2944853,25.1890538 93.3469061,25.6479853 93.49921,25.7694752 C93.6301204,25.8732194 94.220776,25.9196312 95.1401246,25.8936952 C95.7115769,25.9091181 96.090694,25.9381367 96.2774758,25.9807512 C96.5061883,26.0329322 96.7503128,26.1461068 97.0098492,26.3202748 C97.3786371,26.7169598 97.443809,26.9045183 97.443809,27.5766714 C97.443809,29.0830095 96.7454781,29.7046555 95.0726859,29.6910049 C94.5429518,29.6863637 93.1760424,29.6130603 92.0348261,29.5284269 C90.7384724,29.432873 89.4919893,29.4219526 88.7119102,29.4997607 C86.3284611,29.7371438 85.9575481,29.7589847 85.6627162,29.6825416 C84.6858463,29.4274128 84.1066667,28.5599204 84.1066667,27.3515738 C84.1066667,25.9369674 84.7008642,25.4507349 86.3392287,25.5258129 L86.3392287,25.5258129 L87.2864878,25.5694946 L87.4665605,25.069748 C87.684178,24.4663938 87.7346153,11.9020189 87.5232317,11.0240156 C87.3311164,10.226687 87.2121068,10.1593898 86.3640223,10.3687892 C85.7104617,10.5295927 85.5700588,10.5197643 85.0557676,10.2773305 C84.3453941,9.94248256 84.1090752,9.51344581 84.1090752,8.53784106 C84.1062416,7.5767059 84.4136829,6.87001698 84.9778447,6.53940068 C85.3735514,6.30816038 85.7728,6.27812917 88.6334206,6.29177972 C92.0605103,6.30534252 92.2478867,6.28583128 92.2571696,7.33252444 L92.2575439,8.33922558 L93.066667,7.57793445 C94.3260428,6.3932033 95.9362133,5.73975152 97.6551925,5.69415868 Z M96.3881559,10.085766 L96.2224364,10.0854956 C95.2981981,10.1176481 94.3824246,10.7238733 93.8160023,11.9198352 C93.5019449,12.5839074 93.4302096,12.9906224 93.3728213,14.4609795 C93.2883171,16.614508 93.6172954,17.9008816 94.4891668,18.8250589 C95.2129765,19.5923213 95.9512767,19.8028238 96.9699187,19.5318637 C97.737487,19.3276817 98.6779374,18.2724212 99.003329,17.2500002 C99.4017471,15.9990767 99.3473717,13.2571856 98.9028995,12.1626276 C98.3288732,10.7491556 97.2703464,10.0483966 96.2227233,10.0854956 Z" id="Combined-Shape" fill="#959BA3"></path>
            <path d="M71.5912272,6.03524741 C72.5965989,5.57626028 77.2412663,5.57626028 78.2426833,6.03862879 C81.1233162,6.94050976 82.9733882,8.85071748 83.7936046,11.770334 C84.1843854,13.1610269 84.2141525,15.8897984 83.8556781,17.4496954 C83.125045,20.6294075 81.0381062,22.8611165 78.0553342,23.6528999 C76.8231755,23.981705 74.7788417,24.1218293 73.5095801,23.9681795 C68.569095,23.3700815 65.7889082,20.1235534 65.767619,14.9302988 C65.7494069,10.2401931 67.7054271,7.25254327 71.5912272,6.03524741 Z M74.8867376,9.74698993 C72.8089553,9.68839296 71.3712169,11.644365 71.3712169,14.633208 C71.3712169,18.1584387 73.0683204,19.8938104 75.9709783,19.3367415 C76.5784049,19.2202104 77.4673707,18.3354227 77.8168627,17.4998194 C78.323433,16.2881083 78.3992541,13.5466453 77.9629255,12.2156192 C77.4786723,10.7378355 76.6682457,9.99569561 75.3107631,9.78676163 C75.1668462,9.76422433 75.0255044,9.76024716 74.8867376,9.74698993 L74.8867376,9.74698993 Z" id="Combined-Shape" fill="#959BA3"></path>
            <path d="M45.7668394,26.8213338 C44.8895193,28.4043816 46.5399902,31.8467866 49.4600321,34.5242127 C52.3810798,37.2025772 56.4566094,39.0978641 60.3554106,39.5904214 C61.0048516,39.6722015 61.7390648,39.7663156 61.9870593,39.7991617 C62.8975698,39.9198209 67.5853269,39.7535794 68.8251558,39.5551622 C71.4243566,39.1414354 73.6453873,38.3373093 75.7858127,37.0355314 C78.7781264,35.2154554 81.0527504,32.8707804 82.4106856,30.2058224 C82.8066721,29.4287776 83.1516305,27.2902343 82.3859723,26.6890109 C82.0811764,26.3366632 81.1234973,26.0887681 80.5853818,26.2127156 C80.0472663,26.3366632 80.0472663,26.3224753 79.4801549,26.7998832 C79.1406352,27.0859795 78.4034047,27.9221472 77.8418969,28.6578998 C75.6814998,31.4888311 73.3560125,33.1179975 70.0486049,34.1182617 C68.1202537,34.7014475 66.766629,34.8857879 64.3917152,34.888201 C61.0608875,34.888201 58.6207422,34.3862591 56.1639299,33.1838238 C53.816603,32.0350148 52.3253313,30.7321643 50.6300317,28.3492806 C49.2677861,26.4345542 48.9321458,26.1493965 47.8056818,25.9492364 C47.718036,25.9331485 47.625505,25.9264452 47.529813,25.9277859 C46.8592508,25.9418628 46.0362424,26.3353456 45.7668394,26.8213338 Z" id="path9447-path" fill="#004A91"></path>
        </g>
    </g>
</svg>