<?xml version="1.0" encoding="UTF-8"?>
<svg width="74px" height="28px" viewBox="0 0 74 28" version="1.1" xmlns="http://www.w3.org/2000/svg" xmlns:xlink="http://www.w3.org/1999/xlink">
    <title>uloop_757575</title>
    <g id="Page-1" stroke="none" stroke-width="1" fill="none" fill-rule="evenodd">
        <g id="uloop_757575" fill="#757575" fill-rule="nonzero">
            <path d="M26.7133262,0 C26.4903849,0.00952305818 26.2106803,0.0428537618 25.8556591,0.104563179 C25.3949338,0.185509173 24.8859698,0.18169995 23.8626262,0.0874216741 C22.4997058,-0.036663774 22.4846625,-0.0359019294 22.0533218,0.194365618 C21.521492,0.478152751 21.2551258,0.960114726 21.2561287,1.63891831 C21.2561287,2.64883863 21.7888611,3.06394874 22.9110891,2.93081639 C23.4143367,2.87082112 23.4929629,2.88605801 23.5929505,3.06385351 C23.7553175,3.35183079 23.7591285,13.1669612 23.6029793,13.4545575 C23.5014874,13.6347338 23.4299817,13.6535894 23.1013364,13.5875946 C22.3536858,13.4376065 21.9433053,13.4852218 21.6588872,13.7552957 C21.0076138,14.3737231 21.1567428,15.7694225 21.9211416,16.2109115 C22.1835965,16.3624233 22.6042064,16.3806124 25.8083229,16.3786667 L29.4012579,16.3786667 L29.6475664,16.1065388 C30.3372503,15.3451703 30.2195116,13.9071885 29.4385652,13.5549306 C29.1836319,13.4399872 29.042526,13.4377969 28.6153974,13.5415983 C27.6931446,13.7660568 27.760739,14.2565895 27.7007665,6.87726693 C27.6506223,0.701944619 27.6395905,0.407396429 27.4483404,0.207031285 C27.3047273,0.0563765045 27.090812,-0.0102849028 26.7192432,0.00142845873 L26.7133262,0 Z" id="path9447-path"></path>
            <path d="M11.2175775,0.452647525 C10.7396486,0.922654309 10.5779719,1.75647868 10.8071599,2.56839555 C10.946268,3.06097949 11.2387842,3.24685842 11.8744014,3.24685842 C12.8453373,3.24685842 12.7869703,2.98014177 12.7869703,7.41636294 C12.7869703,11.0425806 12.7733513,11.3375187 12.5855067,11.8363209 C12.3490228,12.4636025 11.8074739,12.9914872 11.2424808,13.1457963 C10.11123,13.4547017 8.63055518,13.1611029 8.15914395,12.53363 C7.69580683,11.9173499 7.65144787,11.463702 7.65144787,7.39943007 C7.65144787,5.30807686 7.69133202,3.53538691 7.73997123,3.46019348 C7.79055601,3.38174741 8.1043762,3.29516973 8.47607705,3.25719035 C9.24790785,3.12172737 9.24790785,3.12172737 9.54147032,2.68740398 C9.86346189,1.9297297 9.5978918,0.656511652 9.04330752,0.299199351 C8.52938562,-0.0319004823 8.17159559,-0.059834938 6.70181592,0.116094733 C5.37795389,0.274613203 5.18077053,0.274708869 3.5940622,0.116094733 C2.506684,0.00885320991 1.7646442,-0.020420569 1.5221291,0.0347786808 C0.280370052,0.315749559 -0.364471483,1.49589292 0.214707118,2.61182789 C0.670236673,3.24685842 0.81491075,3.25719035 1.85404307,3.33219245 C2.71612444,3.31114594 2.8087335,3.32262585 2.97566327,3.52935996 C3.23909324,3.84926687 3.30874459,4.65171282 3.23199191,6.48295032 C3.10163883,9.5935285 3.13315704,12.1417823 3.31078743,12.8768794 C3.6211056,14.160525 4.24388205,15.043713 5.33612417,15.749345 C6.01590577,16.1885474 7.25542742,16.6109125 8.28453584,16.7541244 C9.34876177,16.9022153 11.649591,16.7933475 12.6343404,16.547199 C14.4023758,16.106179 15.9310089,15.0563409 16.5476568,13.8595599 C17.0467924,12.8908466 17.1072023,12.3224952 17.1766591,7.94797859 C17.2437812,3.70969026 17.2837626,3.35878758 17.6989469,3.33506242 C17.7952525,3.32549583 18.2543094,3.33506242 18.7188139,3.34462902 C19.0364582,3.32443698 19.2613067,3.29529075 19.3933592,3.25719035 C19.5261201,3.21888555 19.6984919,3.13342398 19.9104745,3.00080562 C20.2958916,2.59891298 20.4187543,2.16296328 20.340056,1.47646446 C20.2583422,0.759735206 19.7399455,0.210230023 18.9857459,0.0398489758 C18.7170629,-0.020420569 18.0335847,0.00445257647 16.8944544,0.116381731 C15.3060923,0.273082548 15.1127028,0.272604218 13.7402015,0.106815137 C13.1156741,0.0331523597 12.6743219,-0.005018352 12.3403651,0.000530272761 C11.7839325,0.0166021514 11.5262419,0.149099484 11.2175775,0.452647525 Z" id="path9447-path"></path>
            <path d="M37.4104607,3.98408471 C37.6213153,3.98502632 37.8335513,3.99350078 38.0463793,4.0104497 C39.1750484,4.10027898 39.6662203,4.22428859 40.6389932,4.66467807 C42.0899138,5.32135461 43.1664859,6.62839893 43.6446336,8.31396916 C43.8873581,9.17987072 43.8834114,11.5356766 43.6347667,12.4362293 C43.0368355,14.6021131 41.5241485,16.1045409 39.4270478,16.6148917 C38.6849619,16.7954919 37.1958567,16.8767525 36.396839,16.7804262 C34.8246549,16.5909749 33.6075787,16.0312839 32.6545395,15.0588866 C31.8733809,14.2620048 31.4410155,13.433485 31.1826026,12.2381153 C30.6792945,9.90989842 31.1644476,7.4511749 32.4216818,5.9594815 C33.4661868,4.72004454 35.3696011,3.97485697 37.4104607,3.98408471 Z M37.5236933,7.01534506 C36.4721075,7.0273911 35.8019337,7.50830629 35.3513118,8.57410331 C35.0354724,9.32105078 34.9945527,11.171416 35.2755346,12.004539 C35.8039544,13.5717295 37.3027269,14.2217526 38.7012713,13.4911137 C39.5414892,13.0520816 39.9014815,12.1282426 39.9014815,10.4106619 C39.9014815,9.13164988 39.7384089,8.40203019 39.3291109,7.84883873 C38.8943517,7.26108438 38.3419862,7.00607887 37.5236933,7.01534506 Z" id="Combined-Shape"></path>
            <path d="M68.3586348,3.98591108 C68.6364228,3.97826677 68.9183762,3.99355538 69.2023131,4.03177692 C71.1452428,4.29445444 72.5520345,5.62016846 73.2093638,7.8076826 C73.5729369,8.90981002 73.5729369,12.0184698 73.2143225,12.881305 C72.4082313,15.5609215 70.4666901,17.0253797 68.0026971,16.8127724 C67.2938962,16.7515224 66.0179158,16.2214852 65.6586062,15.8388876 C65.5609192,15.734925 65.4410171,15.6498821 65.3934133,15.6498821 C65.3458095,15.6498821 65.3061397,16.1615729 65.3061397,16.7869728 C65.3061397,17.6323377 65.3428343,17.9535897 65.449447,18.0386326 C65.5410843,18.1112535 65.9545432,18.1437419 66.5980872,18.1255866 C66.9981039,18.1363826 67.2634858,18.1566957 67.394233,18.1865258 C67.5543318,18.2230525 67.725219,18.3022747 67.9068945,18.4241924 C68.165046,18.7018719 68.2106663,18.8331628 68.2106663,19.30367 C68.2106663,20.3581066 67.7218347,20.7932588 66.5508801,20.7837034 C66.1800663,20.7804546 65.2232297,20.7291422 64.4243783,20.6698988 C63.5169307,20.6030111 62.6443925,20.5953668 62.0983371,20.6498325 C60.4299228,20.8160006 60.1702837,20.8312893 59.9639013,20.7777791 C59.2800924,20.599189 58.8746667,19.9919443 58.8746667,19.1461017 C58.8746667,18.1558772 59.290605,17.8155144 60.4374601,17.868069 L60.4374601,17.868069 L61.1005415,17.8986462 L61.2265924,17.5488236 C61.3789246,17.1264756 61.4142307,8.33141322 61.2662622,7.7168109 C61.1317815,7.1586809 61.0484748,7.11157285 60.4548156,7.25815245 C59.9973232,7.37071488 59.8990411,7.363835 59.5390373,7.19413137 C59.0417759,6.9597378 58.8763526,6.65941206 58.8763526,5.97648875 C58.8743691,5.30369413 59.089578,4.80901188 59.4844913,4.57758048 C59.761486,4.41571227 60.04096,4.39469042 62.0433944,4.4042458 C64.4654242,4.41383105 64.5758334,4.39981711 64.5801735,5.15410996 L64.5802808,5.8374579 L65.1466669,5.30455412 C66.02823,4.47524231 67.1553493,4.01782606 68.3586348,3.98591108 Z M67.3557055,7.05984695 C66.7087387,7.08235368 66.0676972,7.50671131 65.6712016,8.34388467 C65.4513615,8.80873518 65.4011467,9.09343568 65.3609749,10.1226857 C65.3018219,11.6301556 65.5321068,12.5306171 66.1424168,13.1775413 C66.6490836,13.7146249 67.1658937,13.8619766 67.8789431,13.6723046 C68.4162409,13.5293772 69.0745562,12.7906948 69.3023303,12.0750001 C69.581223,11.1993537 69.5431602,9.28002992 69.2320296,8.51383932 C68.8302112,7.52440891 68.0892425,7.03387765 67.3559063,7.05984695 Z" id="Combined-Shape"></path>
            <path d="M50.1138591,4.22467319 C50.8176192,3.9033822 54.0688864,3.9033822 54.7698783,4.22704015 C56.7863213,4.85835683 58.0813717,6.19550223 58.6555232,8.23923378 C58.9290698,9.2127188 58.9499067,11.1228589 58.6989747,12.2147868 C58.1875315,14.4405852 56.7266744,16.0027816 54.6387339,16.5570299 C53.7762229,16.7871935 52.3451892,16.8852805 51.456706,16.7777256 C47.9983665,16.359057 46.0522358,14.0864874 46.0373333,10.4512091 C46.0245849,7.16813515 47.393799,5.07678029 50.1138591,4.22467319 Z M52.4207163,6.82289295 C50.9662687,6.78187508 49.9598519,8.15105551 49.9598519,10.2432456 C49.9598519,12.7109071 51.1478243,13.9256673 53.1796848,13.535719 C53.6048834,13.4541473 54.2271595,12.8347959 54.4718039,12.2498736 C54.8264031,11.4016758 54.8794778,9.4826517 54.5740478,8.55093341 C54.2350706,7.51648483 53.667772,6.99698693 52.7175342,6.85073314 C52.6167924,6.83495703 52.5178531,6.83217301 52.4207163,6.82289295 L52.4207163,6.82289295 Z" id="Combined-Shape"></path>
            <path d="M32.0367875,18.7749336 C31.4226635,19.8830671 32.5779932,22.2927506 34.6220225,24.1669489 C36.6667559,26.0418041 39.5196266,27.3685048 42.2487875,27.713295 C42.7033962,27.7705411 43.2173454,27.8364209 43.3909415,27.8594132 C44.0282989,27.9438746 47.3097288,27.8275056 48.177609,27.6886135 C49.9970496,27.3990048 51.5517711,26.8361165 53.0500689,25.924872 C55.1446885,24.6508188 56.7369253,23.0095463 57.6874799,21.1440757 C57.9646705,20.6001443 58.2061413,19.103164 57.6701806,18.6823076 C57.4568235,18.4356642 56.7864481,18.2621377 56.4097673,18.3489009 C56.0330864,18.4356642 56.0330864,18.4257327 55.6361084,18.7599183 C55.3984446,18.9601856 54.8823833,19.5455031 54.4893278,20.0605299 C52.9770498,22.0421818 51.3492087,23.1825983 49.0340234,23.8827832 C47.6841776,24.2910133 46.7366403,24.4200515 45.0742006,24.4217407 C42.7426212,24.4217407 41.0345196,24.0703813 39.314751,23.2286767 C37.6716221,22.4245104 36.6277319,21.512515 35.4410222,19.8444964 C34.4874503,18.5041879 34.2525021,18.3045775 33.4639772,18.1644655 C33.4026252,18.1532039 33.3378535,18.1485116 33.2708691,18.1494501 C32.8014756,18.1593039 32.2253697,18.4347419 32.0367875,18.7749336 Z" id="path9447-path"></path>
        </g>
    </g>
</svg>